<svg width="34" height="34" viewBox="0 0 34 34" fill="none" xmlns="http://www.w3.org/2000/svg">
<g id="Layer_1" clip-path="url(#clip0_5_34)">
<path id="Vector" d="M23.1484 19.063C24.1444 18.0461 25.1404 17.0273 26.1363 16.0104C26.2815 15.8614 26.4266 15.7145 26.5717 15.5655C26.9454 15.1842 27.0985 14.634 26.9554 14.1157C26.8122 13.5973 26.4147 13.2458 25.9137 13.0749C22.1982 11.8138 18.3893 10.8803 14.6082 9.84952C13.3001 9.49203 11.994 9.1246 10.6939 8.74327C9.58463 8.41755 8.58071 9.496 8.85902 10.5764C9.32619 12.3818 9.79535 14.1872 10.2625 15.9945C11.002 18.8485 11.7416 21.7045 12.4811 24.5586C12.6501 25.21 12.819 25.8634 12.988 26.5149C13.2683 27.5993 14.6996 27.9627 15.4809 27.1723C16.7134 25.923 17.9022 24.634 19.1189 23.3689H17.0096C17.5205 23.9151 18.0334 24.4593 18.5443 25.0054C18.7571 25.2318 18.9698 25.4563 19.1805 25.6827C19.2262 25.7323 19.2739 25.784 19.3177 25.8356C19.3713 25.8992 19.423 25.9647 19.4767 26.0263C19.1447 25.633 19.3534 25.8674 19.425 25.9707C19.6019 26.2289 19.753 26.5049 19.8763 26.7929L19.7252 26.4374C19.8763 26.8009 19.9796 27.1782 20.0373 27.5695L19.9836 27.1743C20.0393 27.5913 20.0393 28.0084 19.9856 28.4255L20.0393 28.0303C19.9796 28.4612 19.8643 28.8763 19.6954 29.2775L19.8465 28.922C19.7311 29.1862 19.596 29.4404 19.4369 29.6827C19.3972 29.7423 19.3554 29.8019 19.3137 29.8595C19.1189 30.1276 19.5324 29.5933 19.3813 29.7721C19.2938 29.8753 19.2043 29.9786 19.1089 30.0759C19.0135 30.1733 18.9141 30.2666 18.8107 30.356C18.7133 30.4394 18.4668 30.6042 18.9002 30.2944C18.8405 30.3361 18.7829 30.3818 18.7213 30.4235C18.4748 30.5923 18.2143 30.7333 17.94 30.8525L18.2958 30.7016C17.9181 30.8604 17.5245 30.9677 17.119 31.0253L17.5146 30.9717C16.6578 31.0829 15.7632 30.9915 14.9123 30.8783L15.3079 30.9319C13.9681 30.7472 12.658 30.3897 11.4116 29.8694L11.7674 30.0203C11.0438 29.7145 10.344 29.357 9.67607 28.9478C9.34806 28.7472 9.028 28.5347 8.71589 28.3083C8.64432 28.2567 8.57474 28.205 8.50318 28.1534C8.45944 28.1216 8.41571 28.0879 8.37197 28.0541C8.23282 27.9508 8.65227 28.2746 8.51709 28.1673C8.36203 28.0442 8.20896 27.921 8.05788 27.7939C7.46348 27.2914 6.90685 26.7472 6.39396 26.1633C6.27866 26.0322 6.16534 25.8972 6.05402 25.7621C5.9904 25.6867 5.93076 25.6092 5.86914 25.5317C5.82938 25.4821 5.72799 25.351 5.88504 25.5536C6.05799 25.778 5.89896 25.5695 5.86118 25.5218C5.63058 25.214 5.41191 24.8982 5.20317 24.5764C4.72606 23.8336 4.31456 23.0491 3.97064 22.2368L4.12172 22.5923C3.59889 21.347 3.24106 20.0402 3.05419 18.7035L3.10787 19.0988C2.921 17.7026 2.921 16.2885 3.10787 14.8942L3.05419 15.2894C3.24106 13.9429 3.60088 12.6281 4.12769 11.3729L3.9766 11.7284C4.27877 11.0154 4.63263 10.3242 5.03817 9.66482C5.23697 9.34108 5.44769 9.02529 5.66835 8.71745C5.726 8.638 5.78365 8.56055 5.84131 8.4811C5.86715 8.44734 5.90293 8.37187 5.93871 8.35201C5.94269 8.35002 5.68823 8.67177 5.8254 8.49898C5.94667 8.34605 6.06793 8.1951 6.19516 8.04615C6.69016 7.46025 7.2289 6.91209 7.8054 6.40563C7.94257 6.28448 8.08372 6.16531 8.22685 6.04813C8.29444 5.99252 8.36203 5.9389 8.42962 5.88527C8.46342 5.85747 8.49721 5.83165 8.53101 5.80583C8.15131 6.1097 8.34414 5.94883 8.43559 5.8813C8.7477 5.64694 9.06776 5.4245 9.39776 5.21397C10.1333 4.74327 10.9086 4.3381 11.7117 3.9965L11.3559 4.14744C12.6103 3.62112 13.9263 3.26164 15.2742 3.07495L14.8785 3.12857C16.2761 2.94188 17.6915 2.93989 19.089 3.12658L18.6934 3.07296C20.0333 3.25767 21.3414 3.61715 22.5898 4.13949L22.234 3.98855C22.9576 4.29441 23.6574 4.65389 24.3253 5.06303C24.6533 5.26363 24.9734 5.47812 25.2875 5.70255C25.3591 5.75419 25.4306 5.80583 25.5002 5.85747C25.5439 5.89123 25.5877 5.925 25.6314 5.95677C25.7706 6.06005 25.3511 5.73632 25.4863 5.84555C25.6413 5.96869 25.7944 6.09183 25.9455 6.21894C26.5399 6.72142 27.0965 7.2676 27.6114 7.8535C27.7267 7.98458 27.84 8.11963 27.9513 8.25469C28.015 8.33016 28.0746 8.40762 28.1362 8.48507C28.176 8.53473 28.2774 8.66581 28.1203 8.46323C27.9474 8.2388 28.1064 8.44734 28.1442 8.49501C28.3748 8.80285 28.5935 9.11864 28.8022 9.44436C29.2793 10.1891 29.6908 10.9756 30.0347 11.7899L29.8836 11.4344C30.4065 12.6837 30.7623 13.9945 30.9452 15.3351L30.8915 14.9399C31.0744 16.3242 31.0704 17.7264 30.8856 19.1107L30.9392 18.7155C30.7504 20.072 30.3866 21.3967 29.8538 22.6579L30.0049 22.3024C29.818 22.7393 29.6113 23.1683 29.3867 23.5874C29.0189 24.2745 29.1918 25.2398 29.9214 25.6251C30.6132 25.9905 31.5694 25.8237 31.9611 25.0908C33.9709 21.3351 34.5355 16.9022 33.4739 12.7711C32.6191 9.44436 30.6967 6.35796 28.0766 4.13354C25.3173 1.78795 21.9477 0.371868 18.3356 0.0600502C14.8587 -0.23985 11.2724 0.610199 8.28251 2.39967C5.29263 4.18915 2.99256 6.73731 1.58907 9.79987C0.0563548 13.1445 -0.386959 16.8545 0.346596 20.4652C1.03045 23.8356 2.83353 26.9995 5.34034 29.351C7.84715 31.7026 11.0915 33.3292 14.5207 33.8038C15.4332 33.929 16.3854 34.0601 17.3078 33.9746C18.2302 33.8892 19.1328 33.6469 19.9498 33.1723C21.3712 32.3441 22.4447 30.9002 22.8304 29.3014C23.216 27.7026 22.9596 25.8197 21.9696 24.4215C21.3414 23.5317 20.5283 22.7651 19.7848 21.9727L19.1208 21.2656C18.5781 20.6877 17.5563 20.6976 17.0116 21.2656C15.797 22.5308 14.6062 23.8197 13.3737 25.069C14.2046 25.2875 15.0356 25.5079 15.8666 25.7264C15.3994 23.921 14.9302 22.1157 14.4631 20.3083C13.7235 17.4543 12.984 14.5983 12.2445 11.7443C12.0755 11.0928 11.9066 10.4394 11.7376 9.78795L9.9027 11.6211C13.9144 12.7989 17.9837 13.7681 21.9915 14.9578C23.0411 15.2696 24.0848 15.6013 25.1225 15.9528L24.4645 13.4622C23.4685 14.4791 22.4725 15.498 21.4766 16.5149C21.3315 16.6638 21.1863 16.8108 21.0412 16.9598C20.4945 17.5178 20.4428 18.5188 21.0412 19.067C21.6396 19.6152 22.568 19.6628 23.1504 19.067L23.1484 19.063Z" fill="url(#paint0_linear_5_34)"/>
</g>
<defs>
<linearGradient id="paint0_linear_5_34" x1="17.0005" y1="0.000915527" x2="17.0005" y2="34.002" gradientUnits="userSpaceOnUse">
<stop offset="0.223958" stop-color="#C67BFF"/>
<stop offset="1" stop-color="#8000E1"/>
</linearGradient>
<clipPath id="clip0_5_34">
<rect width="34" height="34" fill="white"/>
</clipPath>
</defs>
</svg>
