<svg width="125" height="96" viewBox="0 0 125 96" fill="none" xmlns="http://www.w3.org/2000/svg">
<path d="M71.0524 40.2602C67.6704 40.2602 73.4371 -1.3636 59.0175 3.33635C45.3077 7.80492 64.4778 40.2602 61.2565 40.2602C58.0352 40.2602 35.5207 38.3914 34.0218 48.5681C32.3478 59.9336 61.8418 53.5719 62.7205 55.0298C63.5993 56.4877 51.1402 73.7494 59.0175 79.0303C67.1783 84.5013 77.5988 64.2608 79.3843 64.2608C81.1699 64.2608 90.3986 97.4191 97.8997 88.2613C103.996 80.8187 89.4639 64.2608 92.3451 64.2608C95.2263 64.2608 116.722 65.9429 120.118 55.0298C124.269 41.6927 87.1732 51.2165 84.9389 48.5681C82.7047 45.9198 102.82 24.6612 92.3451 19.029C82.0028 13.4679 74.4345 40.2602 71.0524 40.2602Z" stroke="#DACBFB" stroke-opacity="0.4" stroke-linecap="round"/>
<rect x="13.3018" y="40.7812" width="31.6329" height="31.6329" rx="8.15076" transform="rotate(-16.275 13.3018 40.7812)" fill="#E7DDFE"/>
<path d="M43.0387 48.5766C42.6809 47.3513 41.3962 46.6472 40.1709 47.005C39.5672 47.1812 39.1019 47.5676 38.8253 48.0723C36.9996 47.4298 34.6969 47.3312 32.3625 47.9164L31.9905 42.8796L35.4778 42.6131C35.757 43.4373 36.6465 43.9099 37.4989 43.6611C38.369 43.407 38.8719 42.4894 38.6179 41.6193C38.3639 40.7491 37.4462 40.2462 36.5761 40.5002C35.9546 40.6817 35.5255 41.1924 35.4324 41.7977L31.5285 42.0895C31.4168 42.1028 31.3154 42.1517 31.2422 42.2309C31.169 42.3101 31.1416 42.4144 31.1372 42.5313L31.5634 48.1497C29.2224 48.9102 27.3114 50.2197 26.1109 51.7842C25.6114 51.5254 24.9883 51.4375 24.4023 51.6086C23.177 51.9663 22.4729 53.251 22.8306 54.4763C23.095 55.3819 23.8507 55.99 24.7357 56.117C24.7624 56.3405 24.812 56.5765 24.8794 56.8073C25.8748 60.2168 30.6383 61.8131 35.5393 60.3822C40.4404 58.9514 43.5968 55.0429 42.6014 51.6335C42.534 51.4026 42.454 51.1947 42.3563 50.992C42.9807 50.4243 43.3031 49.4822 43.0387 48.5766ZM28.3174 54.5896C28.0634 53.7194 28.5663 52.8018 29.4364 52.5477C30.3065 52.2937 31.2242 52.7966 31.4782 53.6668C31.7323 54.5369 31.2293 55.4545 30.3592 55.7086C29.4891 55.9626 28.5714 55.4597 28.3174 54.5896ZM38.3612 56.186C37.5942 57.5854 35.5551 58.2578 34.9513 58.4341C34.3476 58.6104 32.244 59.1281 30.8675 58.3737C30.661 58.2606 30.5833 57.9942 30.6964 57.7877C30.8096 57.5813 31.076 57.5035 31.2824 57.6167C32.1542 58.0945 33.6829 57.9179 34.7306 57.6121C35.7783 57.3062 37.1441 56.6377 37.6396 55.7607C37.7528 55.5542 38.0191 55.4765 38.2256 55.5896C38.4018 55.7309 38.4743 55.9795 38.3612 56.186ZM37.3202 53.6764C36.45 53.9304 35.5324 53.4274 35.2783 52.5573C35.0243 51.6872 35.5272 50.7695 36.3974 50.5155C37.2675 50.2615 38.1851 50.7644 38.4392 51.6345C38.6932 52.5047 38.1903 53.4223 37.3202 53.6764Z" fill="white"/>
<rect x="82.3262" y="34.3604" width="22.2444" height="22.2444" rx="5.82197" transform="rotate(15 82.3262 34.3604)" fill="#E7DDFE"/>
<path d="M93.5411 52.2084L94.8495 49.2306L91.8699 48.4322L92.4097 46.4179C92.6374 45.5681 93.2749 44.8506 94.6094 45.2082L95.9649 45.5714L96.6733 42.9275C96.6733 42.9275 95.4999 42.3882 94.3249 42.0734C91.8699 41.4156 89.8682 42.4737 89.1469 45.1658L88.5127 47.5327L85.7849 46.8018L84.9528 49.9072L87.6806 50.6381L85.6689 58.1458C86.1935 58.3785 86.7419 58.5727 87.3127 58.7257C87.8834 58.8786 88.4554 58.9846 89.0261 59.0453L91.0378 51.5377L93.5411 52.2084Z" fill="white"/>
<rect x="40.417" y="45.9697" width="42.6576" height="42.6576" rx="11.6439" fill="#DACBFB"/>
<path d="M56.7272 66.969C56.7272 64.3792 58.826 62.2793 61.4158 62.2793C64.0056 62.2793 66.1055 64.3792 66.1055 66.969C66.1055 69.5588 64.0056 71.6588 61.4158 71.6588C58.826 71.6588 56.7272 69.5588 56.7272 66.969ZM54.192 66.969C54.192 70.9587 57.4261 74.1928 61.4158 74.1928C65.4055 74.1928 68.6396 70.9587 68.6396 66.969C68.6396 62.9793 65.4055 59.7452 61.4158 59.7452C57.4261 59.7452 54.1921 62.9791 54.1921 66.969M67.2375 59.4588C67.2374 59.7927 67.3363 60.1191 67.5216 60.3968C67.707 60.6745 67.9706 60.891 68.279 61.0189C68.5875 61.1467 68.9269 61.1803 69.2544 61.1153C69.5819 61.0503 69.8827 60.8896 70.1189 60.6536C70.3551 60.4176 70.516 60.1169 70.5813 59.7894C70.6466 59.462 70.6133 59.1226 70.4856 58.814C70.358 58.5055 70.1417 58.2418 69.8641 58.0561C69.5866 57.8705 69.2603 57.7714 68.9264 57.7713H68.9257C68.4781 57.7715 68.049 57.9493 67.7324 58.2657C67.4159 58.5821 67.2379 59.0112 67.2375 59.4588ZM55.7323 78.4202C54.3607 78.3578 53.6152 78.1293 53.1198 77.9363C52.4629 77.6806 51.9943 77.376 51.5016 76.884C51.0089 76.392 50.7039 75.9238 50.4493 75.267C50.2562 74.7718 50.0277 74.026 49.9653 72.6544C49.8971 71.1716 49.8835 70.7261 49.8835 66.9692C49.8835 63.2124 49.8983 62.7682 49.9653 61.284C50.0278 59.9124 50.258 59.1682 50.4493 58.6715C50.705 58.0147 51.0095 57.5461 51.5016 57.0533C51.9936 56.5606 52.4618 56.2556 53.1198 56.001C53.615 55.8079 54.3607 55.5795 55.7323 55.5171C57.2152 55.4489 57.6606 55.4353 61.4158 55.4353C65.171 55.4353 65.6169 55.4498 67.101 55.5173C68.4726 55.5798 69.2168 55.8099 69.7135 56.0013C70.3703 56.2558 70.839 56.5615 71.3317 57.0536C71.8244 57.5456 72.1283 58.0149 72.384 58.6717C72.5771 59.1669 72.8056 59.9127 72.8679 61.2842C72.9361 62.7684 72.9497 63.2126 72.9497 66.9695C72.9497 70.7263 72.9361 71.1705 72.8679 72.6547C72.8055 74.0263 72.5759 74.7718 72.384 75.2672C72.1283 75.924 71.8237 76.3926 71.3317 76.8842C70.8396 77.3758 70.3703 77.6808 69.7135 77.9365C69.2183 78.1296 68.4726 78.3581 67.101 78.4205C65.6181 78.4887 65.1726 78.5023 61.4158 78.5023C57.6589 78.5023 57.2147 78.4887 55.7323 78.4205M55.6158 52.9861C54.1181 53.0543 53.0948 53.2917 52.201 53.6395C51.276 53.9986 50.4919 54.4804 49.709 55.2622C48.926 56.0439 48.4454 56.8281 48.0863 57.7543C47.7385 58.6486 47.5011 59.6714 47.4329 61.169C47.3635 62.669 47.3477 63.1486 47.3477 66.969C47.3477 70.7895 47.3635 71.269 47.4329 72.769C47.5011 74.2668 47.7385 75.2895 48.0863 76.1837C48.4454 77.1088 48.9261 77.8944 49.709 78.6758C50.4918 79.4572 51.2749 79.9384 52.201 80.2985C53.0965 80.6463 54.1181 80.8837 55.6158 80.9519C57.1166 81.0201 57.5953 81.0371 61.4158 81.0371C65.2362 81.0371 65.7158 81.0213 67.2158 80.9519C68.7135 80.8837 69.7362 80.6463 70.6305 80.2985C71.5555 79.9384 72.3396 79.4576 73.1226 78.6758C73.9056 77.8941 74.3851 77.1088 74.7453 76.1837C75.093 75.2895 75.3316 74.2667 75.3987 72.769C75.4669 71.2679 75.4828 70.7895 75.4828 66.969C75.4828 63.1486 75.4669 62.669 75.3987 61.169C75.3305 59.6713 75.093 58.648 74.7453 57.7543C74.3851 56.8293 73.9043 56.0452 73.1226 55.2622C72.3409 54.4792 71.5555 53.9986 70.6316 53.6395C69.7362 53.2917 68.7134 53.0532 67.2169 52.9861C65.7167 52.9175 65.2374 52.9009 61.4175 52.9009C57.5976 52.9009 57.1171 52.9167 55.6163 52.9861" fill="white"/>
</svg>
