<svg width="125" height="96" viewBox="0 0 125 96" fill="none" xmlns="http://www.w3.org/2000/svg">
<path d="M71.0524 40.2604C67.6704 40.2604 73.4371 -1.36348 59.0175 3.33647C45.3077 7.80504 64.4778 40.2604 61.2565 40.2604C58.0352 40.2604 35.5207 38.3915 34.0218 48.5682C32.3478 59.9338 61.8418 53.572 62.7205 55.0299C63.5993 56.4878 51.1402 73.7495 59.0175 79.0304C67.1783 84.5015 77.5988 64.2609 79.3843 64.2609C81.1699 64.2609 90.3986 97.4193 97.8997 88.2614C103.996 80.8188 89.4639 64.2609 92.3451 64.2609C95.2263 64.2609 116.722 65.943 120.118 55.0299C124.269 41.6928 87.1732 51.2166 84.9389 48.5682C82.7047 45.9199 102.82 24.6614 92.3451 19.0291C82.0028 13.468 74.4345 40.2604 71.0524 40.2604Z" stroke="white" stroke-opacity="0.08" stroke-linecap="round"/>
<rect x="13.3018" y="40.7812" width="31.6329" height="31.6329" rx="8.15076" transform="rotate(-16.275 13.3018 40.7812)" fill="#232222"/>
<path d="M43.0387 48.5765C42.6809 47.3512 41.3962 46.6471 40.1709 47.0048C39.5672 47.1811 39.1019 47.5675 38.8253 48.0722C36.9996 47.4296 34.6969 47.3311 32.3625 47.9163L31.9905 42.8795L35.4778 42.613C35.757 43.4372 36.6465 43.9098 37.4989 43.6609C38.369 43.4069 38.8719 42.4893 38.6179 41.6191C38.3639 40.749 37.4462 40.2461 36.5761 40.5001C35.9546 40.6816 35.5255 41.1922 35.4324 41.7975L31.5285 42.0894C31.4168 42.1027 31.3154 42.1516 31.2422 42.2308C31.169 42.3099 31.1416 42.4143 31.1372 42.5312L31.5634 48.1495C29.2224 48.9101 27.3114 50.2195 26.1109 51.7841C25.6114 51.5253 24.9883 51.4374 24.4023 51.6084C23.177 51.9661 22.4729 53.2509 22.8306 54.4762C23.095 55.3818 23.8507 55.9898 24.7357 56.1169C24.7624 56.3403 24.812 56.5764 24.8794 56.8072C25.8748 60.2166 30.6383 61.813 35.5393 60.3821C40.4404 58.9513 43.5968 55.0428 42.6014 51.6333C42.534 51.4025 42.454 51.1946 42.3563 50.9919C42.9807 50.4242 43.3031 49.4821 43.0387 48.5765ZM28.3174 54.5894C28.0634 53.7193 28.5663 52.8016 29.4364 52.5476C30.3065 52.2936 31.2242 52.7965 31.4782 53.6666C31.7323 54.5368 31.2293 55.4544 30.3592 55.7084C29.4891 55.9625 28.5714 55.4595 28.3174 54.5894ZM38.3612 56.1859C37.5942 57.5853 35.5551 58.2577 34.9513 58.434C34.3476 58.6103 32.244 59.128 30.8675 58.3736C30.661 58.2605 30.5833 57.9941 30.6964 57.7876C30.8096 57.5811 31.076 57.5034 31.2824 57.6165C32.1542 58.0943 33.6829 57.9178 34.7306 57.612C35.7783 57.3061 37.1441 56.6376 37.6396 55.7606C37.7528 55.5541 38.0191 55.4763 38.2256 55.5895C38.4018 55.7308 38.4743 55.9794 38.3612 56.1859ZM37.3202 53.6762C36.45 53.9303 35.5324 53.4273 35.2783 52.5572C35.0243 51.6871 35.5272 50.7694 36.3974 50.5154C37.2675 50.2614 38.1851 50.7643 38.4392 51.6344C38.6932 52.5045 38.1903 53.4222 37.3202 53.6762Z" fill="white" fill-opacity="0.4"/>
<rect x="82.3262" y="34.3605" width="22.2444" height="22.2444" rx="5.82197" transform="rotate(15 82.3262 34.3605)" fill="#232222"/>
<path d="M93.5411 52.2084L94.8495 49.2306L91.8699 48.4322L92.4097 46.4179C92.6374 45.5681 93.2749 44.8506 94.6094 45.2082L95.9649 45.5714L96.6733 42.9275C96.6733 42.9275 95.4999 42.3882 94.3249 42.0734C91.8699 41.4156 89.8682 42.4737 89.1469 45.1658L88.5127 47.5327L85.7849 46.8018L84.9528 49.9072L87.6806 50.6381L85.6689 58.1458C86.1935 58.3785 86.7419 58.5727 87.3127 58.7257C87.8834 58.8786 88.4554 58.9846 89.0261 59.0453L91.0378 51.5377L93.5411 52.2084Z" fill="white" fill-opacity="0.4"/>
<rect x="40.417" y="45.9698" width="42.6576" height="42.6576" rx="11.6439" fill="#2C2B2B"/>
<path d="M56.7272 66.9691C56.7272 64.3794 58.826 62.2794 61.4158 62.2794C64.0056 62.2794 66.1055 64.3794 66.1055 66.9691C66.1055 69.5589 64.0056 71.6589 61.4158 71.6589C58.826 71.6589 56.7272 69.5589 56.7272 66.9691ZM54.192 66.9691C54.192 70.9589 57.4261 74.1929 61.4158 74.1929C65.4055 74.1929 68.6396 70.9589 68.6396 66.9691C68.6396 62.9794 65.4055 59.7453 61.4158 59.7453C57.4261 59.7453 54.1921 62.9792 54.1921 66.9691M67.2375 59.4589C67.2374 59.7928 67.3363 60.1192 67.5216 60.3969C67.707 60.6746 67.9706 60.8911 68.279 61.019C68.5875 61.1469 68.9269 61.1804 69.2544 61.1154C69.5819 61.0504 69.8827 60.8898 70.1189 60.6538C70.3551 60.4178 70.516 60.117 70.5813 59.7896C70.6466 59.4621 70.6133 59.1227 70.4856 58.8141C70.358 58.5056 70.1417 58.2419 69.8641 58.0563C69.5866 57.8707 69.2603 57.7715 68.9264 57.7714H68.9257C68.4781 57.7716 68.049 57.9494 67.7324 58.2658C67.4159 58.5822 67.2379 59.0113 67.2375 59.4589ZM55.7323 78.4204C54.3607 78.3579 53.6152 78.1294 53.1198 77.9364C52.4629 77.6807 51.9943 77.3762 51.5016 76.8841C51.0089 76.3921 50.7039 75.9239 50.4493 75.2671C50.2562 74.7719 50.0277 74.0262 49.9653 72.6546C49.8971 71.1717 49.8835 70.7262 49.8835 66.9694C49.8835 63.2125 49.8983 62.7683 49.9653 61.2841C50.0278 59.9126 50.258 59.1683 50.4493 58.6716C50.705 58.0148 51.0095 57.5462 51.5016 57.0535C51.9936 56.5607 52.4618 56.2557 53.1198 56.0012C53.615 55.808 54.3607 55.5796 55.7323 55.5172C57.2152 55.449 57.6606 55.4354 61.4158 55.4354C65.171 55.4354 65.6169 55.4499 67.101 55.5174C68.4726 55.5799 69.2168 55.8101 69.7135 56.0014C70.3703 56.256 70.839 56.5616 71.3317 57.0537C71.8244 57.5457 72.1283 58.015 72.384 58.6719C72.5771 59.1671 72.8056 59.9128 72.8679 61.2844C72.9361 62.7685 72.9497 63.2127 72.9497 66.9696C72.9497 70.7264 72.9361 71.1707 72.8679 72.6548C72.8055 74.0264 72.5759 74.7719 72.384 75.2673C72.1283 75.9241 71.8237 76.3927 71.3317 76.8843C70.8396 77.3759 70.3703 77.6809 69.7135 77.9366C69.2183 78.1298 68.4726 78.3582 67.101 78.4206C65.6181 78.4888 65.1726 78.5024 61.4158 78.5024C57.6589 78.5024 57.2147 78.4888 55.7323 78.4206M55.6158 52.9862C54.1181 53.0544 53.0948 53.2919 52.201 53.6396C51.276 53.9988 50.4919 54.4806 49.709 55.2623C48.926 56.044 48.4454 56.8283 48.0863 57.7544C47.7385 58.6487 47.5011 59.6715 47.4329 61.1691C47.3635 62.6691 47.3477 63.1487 47.3477 66.9691C47.3477 70.7896 47.3635 71.2691 47.4329 72.7691C47.5011 74.2669 47.7385 75.2896 48.0863 76.1839C48.4454 77.1089 48.9261 77.8945 49.709 78.6759C50.4918 79.4573 51.2749 79.9385 52.201 80.2986C53.0965 80.6464 54.1181 80.8839 55.6158 80.9521C57.1166 81.0203 57.5953 81.0373 61.4158 81.0373C65.2362 81.0373 65.7158 81.0214 67.2158 80.9521C68.7135 80.8839 69.7362 80.6464 70.6305 80.2986C71.5555 79.9385 72.3396 79.4577 73.1226 78.6759C73.9056 77.8942 74.3851 77.1089 74.7453 76.1839C75.093 75.2896 75.3316 74.2668 75.3987 72.7691C75.4669 71.268 75.4828 70.7896 75.4828 66.9691C75.4828 63.1487 75.4669 62.6691 75.3987 61.1691C75.3305 59.6714 75.093 58.6481 74.7453 57.7544C74.3851 56.8294 73.9043 56.0453 73.1226 55.2623C72.3409 54.4793 71.5555 53.9988 70.6316 53.6396C69.7362 53.2919 68.7134 53.0533 67.2169 52.9862C65.7167 52.9177 65.2374 52.901 61.4175 52.901C57.5976 52.901 57.1171 52.9169 55.6163 52.9862" fill="white" fill-opacity="0.4"/>
</svg>
