<?xml version="1.0" encoding="UTF-8"?>
<svg version="1.1" xmlns="http://www.w3.org/2000/svg" width="666" height="375">
<path d="M0 0 C11.0230114 -0.04649214 22.04599918 -0.08195461 33.06908894 -0.10362434 C38.1884287 -0.11402859 43.307701 -0.128126 48.42700195 -0.15087891 C53.37424056 -0.17272762 58.32141458 -0.18459385 63.26869774 -0.18975449 C65.14918216 -0.19342875 67.02966334 -0.20060325 68.91012001 -0.21146011 C87.81812991 -0.316211 87.81812991 -0.316211 97 2 C97 2.66 97 3.32 97 4 C98.10408203 4.17982422 98.10408203 4.17982422 99.23046875 4.36328125 C112.94278606 7.51576041 123.19264202 19.56947383 130.53515625 30.76171875 C133.20706459 35.11792313 135.02344946 39.64109615 136.75 44.4375 C137.05292969 45.23220703 137.35585938 46.02691406 137.66796875 46.84570312 C144.55347717 65.65079167 141.85192555 88.03000902 133.94335938 106.046875 C129.46290157 115.32318517 122.67621351 123.21005323 115 130 C114.19369141 130.71736328 114.19369141 130.71736328 113.37109375 131.44921875 C98.62755684 143.16275559 80.5070643 143.30244968 62.671875 143.1953125 C60.82814692 143.19157461 58.98441683 143.18873131 57.14068604 143.18673706 C52.32719273 143.17916167 47.51382333 143.15956673 42.70037842 143.1373291 C37.77292557 143.11673816 32.84545238 143.10770723 27.91796875 143.09765625 C18.27859189 143.07631411 8.63930632 143.04225329 -1 143 C-1.11039334 134.59784035 -0.95458649 126.35263176 0 118 C0.86062546 117.99413376 1.72125092 117.98826752 2.60795593 117.98222351 C10.77154299 117.92399891 18.93486507 117.85175537 27.09819317 117.76428509 C31.29371356 117.71981045 35.48914194 117.68050593 39.68481445 117.65356445 C43.74396179 117.62730026 47.80275059 117.58674054 51.86167336 117.53681374 C53.39993598 117.52029954 54.93826039 117.50869017 56.47659874 117.50238609 C73.63815777 117.4250348 90.34123161 114.65876839 103 102 C105.15570987 99.42952063 107.11503283 96.7742031 109 94 C109.39445312 93.42121094 109.78890625 92.84242188 110.1953125 92.24609375 C116.05887087 82.88611724 116.24180915 71.00438273 114.375 60.375 C111.05842874 47.82269905 103.12706172 39.15083855 92.1875 32.6875 C80.87773922 26.15090907 69.50276473 25.53803777 56.73828125 25.48828125 C55.09489122 25.47140278 53.45151386 25.45324837 51.80815125 25.43388367 C47.51917479 25.38672097 43.23024968 25.35669482 38.94110107 25.33044434 C34.54982365 25.30046696 30.15872262 25.25399643 25.76757812 25.20898438 C17.17847279 25.12333589 8.58935077 25.05582136 0 25 C-1.43611992 22.12776016 -1.13190831 19.63950038 -1.125 16.4375 C-1.12757812 15.26058594 -1.13015625 14.08367187 -1.1328125 12.87109375 C-1.03255903 9.949 -0.82616671 7.15450523 -0.49169922 4.25805664 C-0.40008514 3.45767471 -0.30847107 2.65729279 -0.21408081 1.83265686 C-0.14343414 1.2278801 -0.07278748 0.62310333 0 0 Z " fill="#000000" transform="translate(126,100)"/>
<path d="M0 0 C7.79796992 -0.02326744 15.59593156 -0.04098804 23.39392757 -0.05181217 C27.01564201 -0.05700968 30.63733253 -0.06404981 34.2590332 -0.07543945 C37.76035863 -0.08638044 41.26166118 -0.09230037 44.7630024 -0.09487724 C46.73531474 -0.09759827 48.707618 -0.10539217 50.67991638 -0.11329651 C65.92915877 -0.11424015 77.70043562 2.02894482 89.625 12.25 C93.40509784 16.62695539 95.67771928 20.74403497 96.5 26.5 C95.53069799 33.28511405 92.29127643 38.66212462 87.30078125 43.33203125 C74.84783944 52.3598855 59.98735622 53.32231248 45.140625 53.1953125 C43.87023376 53.1924826 42.59984253 53.18965271 41.29095459 53.18673706 C37.95699009 53.17751984 34.62331411 53.15963673 31.28942871 53.1373291 C27.87006079 53.11665776 24.45066275 53.10769043 21.03125 53.09765625 C14.35408889 53.07573568 7.67706105 53.04236446 1 53 C0.10886807 49.94372895 -0.12171795 47.22656537 -0.11352539 44.04785156 C-0.11344986 43.06713684 -0.11337433 42.08642212 -0.11329651 41.07598877 C-0.10813522 40.02481873 -0.10297394 38.97364868 -0.09765625 37.890625 C-0.0962413 36.80867859 -0.09482635 35.72673218 -0.09336853 34.61199951 C-0.08777318 31.1579715 -0.0752215 27.70400841 -0.0625 24.25 C-0.0574844 21.90755302 -0.0529216 19.56510502 -0.04882812 17.22265625 C-0.03780528 11.4817487 -0.02107174 5.74087899 0 0 Z " fill="#000000" transform="translate(125,145)"/>
<path d="M0 0 C5.94 0 11.88 0 18 0 C18 10.56 18 21.12 18 32 C19.65 30.68 21.3 29.36 23 28 C29.79040129 23.86671226 37.25268009 24.26055949 45 25 C51.2229427 26.60839135 55.69226756 30.57567866 59 36 C62.89049927 45.70902434 62.3963175 56.10395014 62.28125 66.36743164 C62.24964324 69.21969466 62.24022462 72.07140603 62.234375 74.92382812 C62.22522095 76.73438182 62.21485034 78.54492988 62.203125 80.35546875 C62.19675018 81.63649727 62.19675018 81.63649727 62.19024658 82.94340515 C62.117281 88.882719 62.117281 88.882719 61 90 C58.13732433 90.07325168 55.299281 90.09238205 52.4375 90.0625 C51.63119141 90.05798828 50.82488281 90.05347656 49.99414062 90.04882812 C47.99606244 90.03700518 45.99802217 90.01906914 44 90 C43.98541748 88.85523193 43.97083496 87.71046387 43.95581055 86.53100586 C43.89759239 82.26100303 43.82036172 77.99151462 43.73754883 73.72192383 C43.70440974 71.87825912 43.67634387 70.03449564 43.65356445 68.19067383 C43.61981488 65.53163792 43.56749034 62.87349813 43.51171875 60.21484375 C43.50532883 59.39789536 43.4989389 58.58094696 43.49235535 57.73924255 C43.35852412 52.46365018 42.55667244 48.65388166 40 44 C36.39504033 41.82342058 34.08744765 40.95650209 29.875 41.125 C25.52410072 42.44918674 22.87032151 43.62725065 20.38745117 47.54345703 C18.65081534 51.86992019 18.52416005 55.50112083 18.48828125 60.1171875 C18.47033005 60.97434357 18.45237885 61.83149963 18.43388367 62.71463013 C18.37998595 65.43470436 18.34595142 68.1546052 18.3125 70.875 C18.27930874 72.72658652 18.24481741 74.57815022 18.20898438 76.4296875 C18.12183887 80.95314711 18.06159664 85.47583268 18 90 C12.06 90 6.12 90 0 90 C0 60.3 0 30.6 0 0 Z " fill="#000000" transform="translate(470,153)"/>
<path d="M0 0 C7.00041254 4.7917953 10.16324227 9.51722383 11.71243286 17.72238159 C12.32715578 21.86377772 12.38441576 25.92554919 12.34765625 30.10546875 C12.34719803 30.97441772 12.34673981 31.8433667 12.3462677 32.73864746 C12.34327404 34.55364366 12.33547587 36.36863797 12.32299805 38.18359375 C12.30454896 40.97014359 12.30249011 43.75636372 12.30273438 46.54296875 C12.29782516 48.31380497 12.29199947 50.08463895 12.28515625 51.85546875 C12.28404343 52.68872681 12.2829306 53.52198486 12.28178406 54.38049316 C12.23332546 60.21694283 12.23332546 60.21694283 11.1171875 62.44921875 C8.86884254 62.58448014 6.61816236 62.68132679 4.3671875 62.76171875 C3.11421875 62.81972656 1.86125 62.87773437 0.5703125 62.9375 C-2.8828125 62.44921875 -2.8828125 62.44921875 -5.3359375 59.9296875 C-5.84640625 59.11113281 -6.356875 58.29257813 -6.8828125 57.44921875 C-7.8728125 57.77921875 -8.8628125 58.10921875 -9.8828125 58.44921875 C-9.8828125 59.10921875 -9.8828125 59.76921875 -9.8828125 60.44921875 C-17.7430588 64.2991353 -26.63648905 64.81032639 -35.1953125 62.9453125 C-40.22174213 60.98186342 -44.79350626 57.57831732 -47.2578125 52.76171875 C-48.6339538 45.46816985 -48.74495785 39.01486584 -44.8828125 32.44921875 C-39.15907401 26.59237006 -32.98967657 24.29698859 -24.8515625 24.15625 C-22.69511612 24.17597359 -20.53876266 24.21143044 -18.3828125 24.26171875 C-16.71992188 24.28202148 -16.71992188 24.28202148 -15.0234375 24.30273438 C-12.30938018 24.33782994 -9.59636057 24.38699605 -6.8828125 24.44921875 C-7.32947266 22.53109375 -7.32947266 22.53109375 -7.78515625 20.57421875 C-8.03640259 19.49527344 -8.03640259 19.49527344 -8.29272461 18.39453125 C-8.79701501 16.31142134 -8.79701501 16.31142134 -10.4453125 14.44921875 C-15.13716465 12.52435633 -19.95980147 12.99915234 -24.8203125 14.13671875 C-27.48869867 15.55277128 -27.48869867 15.55277128 -28.8828125 20.44921875 C-34.4928125 20.44921875 -40.1028125 20.44921875 -45.8828125 20.44921875 C-45.68661963 14.17104683 -44.86433181 10.1407932 -40.8359375 5.2421875 C-30.80940806 -3.96216652 -12.18728882 -6.00930331 0 0 Z M-27.8828125 39.44921875 C-29.05258744 41.79794406 -29.05258744 41.79794406 -28.8828125 44.44921875 C-26.98895337 47.42713516 -26.98895337 47.42713516 -23.8828125 49.44921875 C-20.0436691 49.99766781 -17.74068742 49.82827976 -14.1953125 48.26171875 C-11.54846361 46.18716151 -9.7046612 44.28320561 -7.8828125 41.44921875 C-7.74188447 38.83964775 -7.74188447 38.83964775 -7.8828125 36.44921875 C-10.65422967 36.36832333 -13.42329069 36.30877813 -16.1953125 36.26171875 C-16.98099609 36.23658203 -17.76667969 36.21144531 -18.57617188 36.18554688 C-19.33349609 36.17587891 -20.09082031 36.16621094 -20.87109375 36.15625 C-21.56759033 36.14053955 -22.26408691 36.1248291 -22.98168945 36.10864258 C-25.47355924 36.55504791 -26.31623455 37.50244023 -27.8828125 39.44921875 Z " fill="#010101" transform="translate(320.8828125,180.55078125)"/>
<path d="M0 0 C0.80074951 0.00161133 1.60149902 0.00322266 2.42651367 0.00488281 C10.87477748 0.17951508 18.17773755 2.24023755 24.3125 8.375 C24.3125 9.035 24.3125 9.695 24.3125 10.375 C24.9725 10.375 25.6325 10.375 26.3125 10.375 C27.15834998 11.93075978 27.98868399 13.4949612 28.8125 15.0625 C29.2765625 15.93261719 29.740625 16.80273438 30.21875 17.69921875 C31.36068792 20.49288829 31.52754208 22.39129113 31.3125 25.375 C28.22988544 25.5496397 25.14854167 25.65594067 22.0625 25.75 C21.18980469 25.80027344 20.31710937 25.85054687 19.41796875 25.90234375 C16.91755613 25.95960511 14.75077719 25.94082098 12.3125 25.375 C9.90234375 22.48046875 9.90234375 22.48046875 8.3125 19.375 C5.08594147 17.28722683 2.8834595 16.18393736 -1 16.65625 C-5.26562837 17.83491047 -7.30594983 18.91713979 -10.1875 22.375 C-13.15740853 28.31481707 -13.80315856 34.20371607 -12.07421875 40.66796875 C-10.0500221 45.42081816 -7.47234851 47.83415543 -2.703125 49.8125 C0.41907285 50.68381103 2.27265623 50.49842052 5.3125 49.375 C8.66852847 47.18218514 11.00889725 45.28580826 12.3125 41.375 C18.5825 41.375 24.8525 41.375 31.3125 41.375 C30.22239585 50.09583323 28.10617182 55.42022075 21.28125 61.05078125 C12.197425 66.97273639 2.26979195 68.39244279 -8.3125 66.375 C-17.08504417 64.07519898 -23.34080062 58.938288 -28.46875 51.53125 C-33.06604807 43.39756879 -34.02717755 34.34678298 -31.99609375 25.29296875 C-28.75529272 14.51289837 -23.58974067 7.78248447 -13.6875 2.375 C-9.16125981 0.06440186 -4.98059614 -0.01032997 0 0 Z " fill="#010101" transform="translate(425.6875,177.625)"/>
<path d="M0 0 C0 6.27 0 12.54 0 19 C-1.85625 19.12375 -3.7125 19.2475 -5.625 19.375 C-12.00974215 19.88105664 -12.00974215 19.88105664 -18 22 C-19.39238047 23.86747263 -19.39238047 23.86747263 -20 26 C-20.33 26.99 -20.66 27.98 -21 29 C-21.15370348 31.72883073 -21.25728265 34.43697142 -21.31640625 37.16796875 C-21.33718735 37.96278152 -21.35796844 38.7575943 -21.37937927 39.57649231 C-21.44472087 42.11340763 -21.50368808 44.65042573 -21.5625 47.1875 C-21.60569986 48.90821372 -21.64931463 50.62891708 -21.69335938 52.34960938 C-21.80116677 56.56630247 -21.9003542 60.78307451 -22 65 C-27.94 65 -33.88 65 -40 65 C-40.89427806 61.42288776 -41.12659761 58.78863219 -41.12939453 55.14575195 C-41.13254669 53.9680574 -41.13569885 52.79036285 -41.13894653 51.57698059 C-41.1369223 50.31020981 -41.13489807 49.04343903 -41.1328125 47.73828125 C-41.13376923 46.43674606 -41.13472595 45.13521088 -41.13571167 43.79423523 C-41.13718362 41.04469614 -41.1350492 38.2951896 -41.13037109 35.5456543 C-41.12465722 32.01468236 -41.12796641 28.48378616 -41.13394356 24.95281696 C-41.13841451 21.58963222 -41.13529016 18.22646815 -41.1328125 14.86328125 C-41.13483673 13.59043777 -41.13686096 12.3175943 -41.13894653 11.00617981 C-41.13579437 9.83794174 -41.13264221 8.66970367 -41.12939453 7.46606445 C-41.12859894 6.43222122 -41.12780334 5.39837799 -41.12698364 4.33320618 C-41 2 -41 2 -40 1 C-37.30345146 0.92680379 -34.63308542 0.90757463 -31.9375 0.9375 C-31.17888672 0.94201172 -30.42027344 0.94652344 -29.63867188 0.95117188 C-27.75908129 0.9629932 -25.87953101 0.98092922 -24 1 C-23.67 3.64 -23.34 6.28 -23 9 C-22.50371094 8.60167969 -22.00742187 8.20335937 -21.49609375 7.79296875 C-14.18121418 2.0881955 -9.63299008 0 0 0 Z " fill="#010101" transform="translate(387,178)"/>
<path d="M0 0 C4.14318847 2.536646 6.86184105 5.47368211 9.0625 9.875 C9.18395993 11.70537287 9.23793185 13.54064133 9.25 15.375 C9.26417969 16.3546875 9.27835938 17.334375 9.29296875 18.34375 C9.0625 20.875 9.0625 20.875 7.0625 22.875 C5 22.625 5 22.625 3.0625 21.875 C1.5841774 18.91835481 2.00217217 16.13270263 2.0625 12.875 C1.629375 13.514375 1.19625 14.15375 0.75 14.8125 C-0.9375 16.875 -0.9375 16.875 -3.9375 17.875 C-9.39179115 18.29456086 -13.14337448 17.54864692 -17.9375 14.875 C-21.52489928 10.80928082 -21.60865009 6.07990034 -21.9375 0.875 C-15.36306097 -2.0469729 -6.8123677 -2.52475908 0 0 Z M-13.9375 5.875 C-14.2148501 8.79699528 -14.2148501 8.79699528 -12.8125 10.5625 C-10.17290902 12.41021368 -8.07945927 12.08446395 -4.9375 11.875 C-5.21367533 9.93425139 -5.21367533 9.93425139 -5.9375 7.875 C-9.16541555 5.7230563 -10.22150809 5.67413557 -13.9375 5.875 Z " fill="#121212" transform="translate(584.9375,238.125)"/>
<path d="M0 0 C6.33580601 0.62115745 9.92303478 1.8683778 14.375 6.4375 C16 9 16 9 15.6875 11.25 C15.460625 11.8275 15.23375 12.405 15 13 C15.33 13.33 15.66 13.66 16 14 C16.04092937 16.33297433 16.04241723 18.66705225 16 21 C15.01 21.33 14.02 21.66 13 22 C11.09576534 20.09576534 11.5740251 16.71526887 11.37890625 14.12890625 C11.17223364 11.79072597 11.17223364 11.79072597 9 10 C4.85930989 7.96871806 1.64536882 6.57769374 -3 7 C-3 5.68 -3 4.36 -3 3 C-2.34 3 -1.68 3 -1 3 C-0.67 2.01 -0.34 1.02 0 0 Z " fill="#1A1A1A" transform="translate(577,237)"/>
<path d="M0 0 C3.74525799 3.74525799 3.68909949 7.98270909 4 13 C4.99 13 5.98 13 7 13 C7 10.69 7 8.38 7 6 C6.34 5.67 5.68 5.34 5 5 C5.33 4.01 5.66 3.02 6 2 C6.66 2.33 7.32 2.66 8 3 C8.05391993 4.79133978 8.09275571 6.58313899 8.125 8.375 C8.14820313 9.37273437 8.17140625 10.37046875 8.1953125 11.3984375 C8 14 8 14 6 16 C3.9375 15.75 3.9375 15.75 2 15 C0.5216774 12.04335481 0.93967217 9.25770263 1 6 C0.3503125 6.9590625 0.3503125 6.9590625 -0.3125 7.9375 C-2 10 -2 10 -5 11 C-10.43780972 11.41829306 -14.23519475 10.70939906 -19 8 C-20.19921875 5.38671875 -20.19921875 5.38671875 -21 3 C-20.35933594 3.3609375 -19.71867188 3.721875 -19.05859375 4.09375 C-13.79800274 6.91612372 -10.00028882 8.87504212 -4 8 C-1.71271266 6.16116119 -1.71271266 6.16116119 -1.875 3.375 C-1.91625 2.59125 -1.9575 1.8075 -2 1 C-1.34 0.67 -0.68 0.34 0 0 Z " fill="#0B0B0B" transform="translate(586,245)"/>
<path d="M0 0 C1.32 0.66 2.64 1.32 4 2 C4.02692484 4.29160319 4.04636124 6.58329546 4.0625 8.875 C4.07410156 10.15117187 4.08570313 11.42734375 4.09765625 12.7421875 C4 16 4 16 3 18 C1.35 17.67 -0.3 17.34 -2 17 C-2.24875561 14.73122896 -2.47339246 12.45980265 -2.6875 10.1875 C-2.81511719 8.92292969 -2.94273437 7.65835938 -3.07421875 6.35546875 C-3 3 -3 3 -1.51953125 1.05078125 C-1.01808594 0.70402344 -0.51664063 0.35726562 0 0 Z " fill="#151515" transform="translate(603,243)"/>
<path d="M0 0 C0 2.97 0 5.94 0 9 C0.66 9 1.32 9 2 9 C2 9.66 2 10.32 2 11 C4.31 11.33 6.62 11.66 9 12 C8.34 12.66 7.68 13.32 7 14 C2.1606831 13.85766715 -2.48702183 11.23091423 -6 8 C-6.5 4.6875 -6.5 4.6875 -6 2 C-2.25 0 -2.25 0 0 0 Z " fill="#161616" transform="translate(570,240)"/>
<path d="M0 0 C0.66 0.33 1.32 0.66 2 1 C2.9590625 1.185625 2.9590625 1.185625 3.9375 1.375 C6.38141876 2.11558144 7.3309832 3.10339 9 5 C9.66 5.66 10.32 6.32 11 7 C10.01 7.99 9.02 8.98 8 10 C7.113125 9.505 6.22625 9.01 5.3125 8.5 C2.12413762 7.05621326 0.41812454 6.69840078 -3 7 C-3 5.68 -3 4.36 -3 3 C-2.34 3 -1.68 3 -1 3 C-0.67 2.01 -0.34 1.02 0 0 Z " fill="#1C1C1C" transform="translate(577,237)"/>
<path d="M0 0 C6.6008036 1.63941527 10.10886541 3.35157882 14 9 C13.67 9.66 13.34 10.32 13 11 C9.52673415 9.84224472 9.08150438 8.86206852 7 6 C4.38058783 4.25372522 2.96175123 3.61277612 0 3 C0 2.01 0 1.02 0 0 Z " fill="#121212" transform="translate(579,237)"/>
<path d="M0 0 C1.65 0 3.3 0 5 0 C5.625 1.8125 5.625 1.8125 6 4 C5.01 5.485 5.01 5.485 4 7 C1.525 6.01 1.525 6.01 -1 5 C-0.67 3.35 -0.34 1.7 0 0 Z " fill="#0B0B0B" transform="translate(601,223)"/>
<path d="M0 0 C0.99 0.33 1.98 0.66 3 1 C3.8125 2.9375 3.8125 2.9375 4 5 C3.34 5.66 2.68 6.32 2 7 C-0.125 6.625 -0.125 6.625 -2 6 C-2 4.35 -2 2.7 -2 1 C-1.34 0.67 -0.68 0.34 0 0 Z " fill="#0A0A0A" transform="translate(547,256)"/>
<path d="M0 0 C0.33 0.99 0.66 1.98 1 3 C1.99 3.33 2.98 3.66 4 4 C4 4.66 4 5.32 4 6 C5.98 6 7.96 6 10 6 C9.34 6.66 8.68 7.32 8 8 C4.875 7.625 4.875 7.625 2 7 C2 6.34 2 5.68 2 5 C1.34 5 0.68 5 0 5 C0 3.35 0 1.7 0 0 Z " fill="#090909" transform="translate(570,244)"/>
<path d="M0 0 C0.66 0 1.32 0 2 0 C3.32229189 2.64458379 3.09677194 4.67761301 3.0625 7.625 C3.05347656 8.62789062 3.04445313 9.63078125 3.03515625 10.6640625 C3.02355469 11.43492187 3.01195312 12.20578125 3 13 C1 11 1 11 0.9375 7.625 C0.958125 6.42875 0.97875 5.2325 1 4 C0.57145005 1.68963085 0.57145005 1.68963085 0 0 Z " fill="#040404" transform="translate(586,247)"/>
<path d="M0 0 C0.33 0 0.66 0 1 0 C1.02696365 1.79158489 1.04637917 3.58328473 1.0625 5.375 C1.07410156 6.37273437 1.08570313 7.37046875 1.09765625 8.3984375 C1 11 1 11 0 13 C-1.65 12.67 -3.3 12.34 -5 12 C-4.67 11.34 -4.34 10.68 -4 10 C-2.68 10 -1.36 10 0 10 C0 6.7 0 3.4 0 0 Z " fill="#070708" transform="translate(606,248)"/>
<path d="M0 0 C0.33 0.66 0.66 1.32 1 2 C1.66 2 2.32 2 3 2 C3 2.66 3 3.32 3 4 C5.31 4.33 7.62 4.66 10 5 C9.34 5.66 8.68 6.32 8 7 C4.15822926 6.69670231 1.90572328 5.47524576 -1 3 C-0.67 2.01 -0.34 1.02 0 0 Z " fill="#1E1E1E" transform="translate(569,247)"/>
<path d="M0 0 C2.375 -0.1875 2.375 -0.1875 5 0 C7 3 7 3 7 7 C6.34 7 5.68 7 5 7 C4.34 6.01 3.68 5.02 3 4 C2.00612666 2.66209359 1.0073108 1.32781878 0 0 Z " fill="#080808" transform="translate(575,243)"/>
<path d="M0 0 C2.125 0.9375 2.125 0.9375 4 2 C3.67 2.66 3.34 3.32 3 4 C2.01 4 1.02 4 0 4 C-0.33 4.99 -0.66 5.98 -1 7 C-1.66 6.67 -2.32 6.34 -3 6 C-2.625 3.5625 -2.625 3.5625 -2 1 C-1.34 0.67 -0.68 0.34 0 0 Z " fill="#070707" transform="translate(603,243)"/>
</svg>
