<svg xmlns="http://www.w3.org/2000/svg" viewBox="0 0 32 32" fill="none">
  <defs>
    <linearGradient id="g" x1="0" y1="0" x2="32" y2="32" gradientUnits="userSpaceOnUse">
      <stop offset="0%" stop-color="#E89A7B"/>
      <stop offset="38%" stop-color="#CF6295"/>
      <stop offset="72%" stop-color="#7360AA"/>
      <stop offset="100%" stop-color="#2897BF"/>
    </linearGradient>
  </defs>
  <rect width="32" height="32" rx="8" fill="url(#g)"/>
  <svg x="4" y="3" width="21" height="24" viewBox="0 0 128.25 143.249998" preserveAspectRatio="xMidYMid meet">
    <path d="M 69.476562 67.890625 C 66.210938 60.445312 63.078125 53.078125 60.070312 45.773438 C 57.097656 38.441406 54.625 31.992188 52.671875 26.402344 C 50.714844 20.78125 49.730469 17.050781 49.730469 15.222656 C 49.730469 11.847656 50.894531 9.050781 53.222656 6.855469 C 55.578125 4.625 58.066406 2.976562 60.667969 1.910156 L 0 1.910156 C 4.441406 3.738281 8.351562 6.546875 11.730469 10.34375 C 15.15625 14.125 17.757812 18.261719 19.550781 22.6875 L 71.609375 140.058594 L 84.128906 102.109375 C 84.128906 102.109375 80.867188 94.355469 78.265625 88.230469 C 75.648438 82.09375 72.722656 75.308594 69.457031 67.890625 Z" fill="white"/>
    <path d="M 108.105469 1.332031 C 102.742188 1.332031 98.1875 2.996094 94.421875 6.289062 C 90.6875 9.554688 88.832031 14.011719 88.832031 19.632812 C 88.832031 25.257812 90.6875 29.457031 94.421875 32.898438 C 98.1875 36.308594 102.757812 38.003906 108.105469 38.003906 C 113.453125 38.003906 117.847656 36.308594 121.304688 32.898438 C 124.746094 29.457031 126.476562 25.046875 126.476562 19.632812 C 126.476562 14.222656 124.746094 9.910156 121.304688 6.5 C 117.847656 3.058594 113.453125 1.332031 108.105469 1.332031 Z" fill="white"/>
  </svg>
</svg>
