<svg width="101" height="33" viewBox="0 0 101 33" fill="none" xmlns="http://www.w3.org/2000/svg">
<path d="M41.7953 5.76801V8.00208C42.1329 7.64463 42.5598 7.34675 43.0761 7.10845C43.5925 6.85029 44.218 6.72121 44.9528 6.72121C45.6279 6.72121 46.2634 6.85029 46.8592 7.10845C47.4748 7.36661 48.0109 7.78364 48.4677 8.35953C48.9443 8.91556 49.3216 9.66025 49.5996 10.5936C49.8776 11.5269 50.0166 12.6589 50.0166 13.9894C50.0166 14.9426 49.9273 15.8958 49.7486 16.849C49.5897 17.8022 49.3017 18.6561 48.8847 19.4107C48.4677 20.1653 47.9017 20.781 47.1868 21.2576C46.4918 21.7143 45.618 21.9427 44.5655 21.9427C43.8109 21.9427 43.2151 21.8434 42.7783 21.6448C42.3414 21.4264 42.0137 21.1781 41.7953 20.9001V28.1385L37.5059 29.2108V5.76801H41.7953ZM43.1357 19.3512C43.652 19.3512 44.0889 19.1824 44.4464 18.8448C44.8038 18.4873 45.0818 18.0306 45.2804 17.4745C45.4989 16.9185 45.6478 16.3029 45.7272 15.6277C45.8265 14.9327 45.8762 14.2475 45.8762 13.5724C45.8762 12.4801 45.7769 11.6163 45.5783 10.9808C45.3996 10.3454 45.1811 9.8787 44.923 9.58082C44.6648 9.26309 44.4067 9.0645 44.1485 8.98507C43.9102 8.90563 43.7215 8.86592 43.5825 8.86592C43.2251 8.86592 42.8776 8.995 42.54 9.25316C42.2024 9.49146 41.9541 9.85884 41.7953 10.3553V18.666C41.8946 18.8249 42.0534 18.9838 42.2719 19.1426C42.4903 19.2816 42.7783 19.3512 43.1357 19.3512Z" fill="currentColor"/>
<path d="M69.9378 5.94673C70.4343 7.85314 70.8711 9.41202 71.2484 10.6234C71.6258 11.8149 71.9435 12.8177 72.2016 13.6319C72.4797 14.4461 72.6882 15.161 72.8272 15.7766C72.9861 16.3923 73.0655 17.0774 73.0655 17.832C73.4031 17.6135 73.7307 17.3852 74.0485 17.1469C74.3662 16.8887 74.6343 16.6504 74.8527 16.432H76.1038C75.5676 17.2462 75.0017 17.9213 74.4059 18.4575C73.8102 18.9738 73.2343 19.4306 72.6783 19.8278C72.3208 20.6022 71.7747 21.1483 71.0399 21.4661C70.3052 21.7838 69.5406 21.9427 68.7463 21.9427C67.8527 21.9427 67.0881 21.8235 66.4526 21.5852C65.8172 21.3271 65.2909 20.9895 64.8739 20.5724C64.4767 20.1356 64.1789 19.6391 63.9803 19.0831C63.7817 18.527 63.6824 17.9412 63.6824 17.3256C63.6824 16.6504 63.8413 16.1242 64.159 15.7469C64.4966 15.3497 64.8838 15.1511 65.3207 15.1511C66.5321 15.1511 67.1378 15.6376 67.1378 16.6107C67.1378 16.9284 67.0285 17.1965 66.8101 17.415C66.5917 17.6334 66.3136 17.7426 65.976 17.7426C65.8172 17.7426 65.6484 17.7228 65.4697 17.683C65.3108 17.6235 65.1817 17.5142 65.0824 17.3554C65.2413 18.0504 65.4994 18.5965 65.8569 18.9937C66.2342 19.3909 66.7108 19.5895 67.2867 19.5895C67.7832 19.5895 68.1505 19.4703 68.3888 19.232C68.6271 18.9738 68.7463 18.537 68.7463 17.9213C68.7463 17.266 68.6867 16.6802 68.5676 16.1639C68.4683 15.6277 68.3094 15.0419 68.091 14.4064C67.8725 13.7709 67.6044 13.0163 67.2867 12.1426C66.969 11.2489 66.6115 10.0971 66.2143 8.68719C65.2214 10.812 63.9108 12.1723 62.2824 12.7681C62.2824 12.927 62.2824 13.0858 62.2824 13.2447C62.3022 13.3837 62.3122 13.5326 62.3122 13.6915C62.3122 14.8433 62.2129 15.9256 62.0143 16.9384C61.8157 17.9313 61.4781 18.805 61.0015 19.5597C60.5448 20.2944 59.949 20.8802 59.2143 21.3171C58.4795 21.7342 57.5759 21.9427 56.5036 21.9427C55.7688 21.9427 55.0639 21.8335 54.3887 21.615C53.7333 21.3767 53.1475 20.9994 52.6312 20.4831C52.1149 19.9469 51.6979 19.2519 51.3801 18.3979C51.0823 17.5242 50.9333 16.4618 50.9333 15.2107C50.9333 14.3568 51.0227 13.4433 51.2014 12.4702C51.3801 11.4773 51.7078 10.5539 52.1844 9.69997C52.661 8.84606 53.3064 8.14109 54.1206 7.58505C54.9546 7.00916 56.0171 6.72121 57.3079 6.72121C58.6384 6.72121 59.7008 7.07866 60.4951 7.79356C61.3093 8.50847 61.8554 9.66025 62.1334 11.2489C62.8285 11.0901 63.454 10.6135 64.0101 9.81912C64.586 9.00493 65.1321 7.91271 65.6484 6.54249L69.9378 5.94673ZM57.3376 19.1426C57.7547 19.1426 58.1121 19.0036 58.41 18.7256C58.7277 18.4277 58.9859 18.0306 59.1845 17.5341C59.3831 17.0178 59.5221 16.4121 59.6015 15.7171C59.7008 15.022 59.7504 14.2674 59.7504 13.4532V13.066C58.9561 12.8872 58.5589 12.3014 58.5589 11.3085C58.5589 10.673 58.8171 10.256 59.3334 10.0574C59.115 9.42195 58.8469 9.00493 58.5291 8.80634C58.2313 8.60776 57.9731 8.50847 57.7547 8.50847C57.3178 8.50847 56.9405 8.71698 56.6227 9.13401C56.3249 9.53117 56.0766 10.0475 55.8781 10.683C55.6795 11.2986 55.5305 11.9837 55.4312 12.7383C55.3518 13.4929 55.3121 14.2178 55.3121 14.9128C55.3121 15.8064 55.3717 16.5313 55.4908 17.0873C55.6298 17.6433 55.7986 18.0703 55.9972 18.3682C56.1958 18.666 56.4142 18.8745 56.6525 18.9937C56.8908 19.093 57.1192 19.1426 57.3376 19.1426Z" fill="currentColor"/>
<path d="M78.797 2.16371V6.87015H80.6141V8.06165H78.797V16.9979C78.797 17.832 78.9063 18.388 79.1247 18.666C79.363 18.9242 79.7701 19.0533 80.346 19.0533C80.9219 19.0533 81.3985 18.805 81.7758 18.3086C82.173 17.8121 82.4013 17.1866 82.4609 16.432H83.712C83.5531 17.6433 83.2751 18.6164 82.8779 19.3512C82.4808 20.0661 82.034 20.6221 81.5375 21.0193C81.041 21.3966 80.5347 21.6448 80.0183 21.7639C79.502 21.8831 79.0453 21.9427 78.6481 21.9427C77.119 21.9427 76.0467 21.5256 75.431 20.6916C74.8154 19.8377 74.5076 18.7157 74.5076 17.3256V8.06165H73.5544V6.87015H74.5076V2.75946L78.797 2.16371Z" fill="currentColor"/>
<path d="M82.1214 2.9084C82.1214 2.25307 82.3498 1.69704 82.8065 1.24029C83.2632 0.763692 83.8193 0.525391 84.4746 0.525391C85.1299 0.525391 85.686 0.763692 86.1427 1.24029C86.6193 1.69704 86.8576 2.25307 86.8576 2.9084C86.8576 3.56373 86.6193 4.11976 86.1427 4.5765C85.686 5.03325 85.1299 5.26162 84.4746 5.26162C83.8193 5.26162 83.2632 5.03325 82.8065 4.5765C82.3498 4.11976 82.1214 3.56373 82.1214 2.9084ZM86.7385 6.87015V16.9979C86.7385 17.832 86.8477 18.388 87.0661 18.666C87.3044 18.9242 87.7115 19.0533 88.2874 19.0533C88.5456 19.0533 88.7342 19.0334 88.8534 18.9937C88.9924 18.954 89.1115 18.9143 89.2108 18.8745C89.2307 18.9738 89.2406 19.0731 89.2406 19.1724C89.2406 19.2717 89.2406 19.371 89.2406 19.4703C89.2406 19.9668 89.1513 20.3739 88.9725 20.6916C88.8137 21.0093 88.5952 21.2675 88.3172 21.4661C88.059 21.6448 87.7711 21.7639 87.4534 21.8235C87.1555 21.903 86.8675 21.9427 86.5895 21.9427C85.0604 21.9427 83.9881 21.5256 83.3725 20.6916C82.7569 19.8377 82.449 18.7157 82.449 17.3256V6.87015H86.7385ZM98.1471 19.0533C97.9088 19.0334 97.7301 18.954 97.6109 18.815C97.4918 18.6561 97.4322 18.4774 97.4322 18.2788C97.4322 18.0206 97.5414 17.7724 97.7599 17.5341C97.9783 17.2759 98.3358 17.1469 98.8322 17.1469C99.3883 17.1469 99.8053 17.3355 100.083 17.7128C100.361 18.0703 100.5 18.4972 100.5 18.9937C100.5 19.3114 100.441 19.6391 100.322 19.9767C100.202 20.2944 100.014 20.5923 99.7556 20.8703C99.4975 21.1285 99.1797 21.3469 98.8024 21.5256C98.4251 21.6845 97.9882 21.7639 97.4918 21.7639H89.2704L95.1088 8.47868H92.9045C92.4676 8.47868 92.1002 8.50847 91.8023 8.56804C91.5243 8.60776 91.3853 8.71698 91.3853 8.89571C91.3853 8.97514 91.4052 9.01486 91.4449 9.01486C91.5045 9.01486 91.564 9.03471 91.6236 9.07443C91.7031 9.11415 91.7626 9.19358 91.8023 9.31273C91.8619 9.43188 91.8917 9.6404 91.8917 9.93827C91.8917 10.3752 91.7527 10.6929 91.4747 10.8915C91.2165 11.0901 90.9187 11.1894 90.5811 11.1894C90.1839 11.1894 89.7966 11.0603 89.4193 10.8021C89.0619 10.5241 88.8832 10.1071 88.8832 9.55103C88.8832 9.25316 88.9427 8.95528 89.0619 8.6574C89.181 8.33967 89.3598 8.05172 89.5981 7.79356C89.8364 7.51555 90.1342 7.2971 90.4917 7.13824C90.8491 6.95951 91.2662 6.87015 91.7428 6.87015H99.9344L94.2449 19.4703C94.3641 19.4703 94.5329 19.4802 94.7513 19.5001C94.9698 19.5199 95.1981 19.5398 95.4364 19.5597C95.6946 19.5795 95.9428 19.5994 96.1811 19.6192C96.4393 19.6391 96.6677 19.649 96.8662 19.649C97.2237 19.649 97.5216 19.6093 97.7599 19.5299C98.018 19.4504 98.1471 19.2916 98.1471 19.0533Z" fill="currentColor"/>
<path d="M5.02707 4.73535C5.04984 5.1031 5.08195 5.51796 5.11859 5.9915L6.44189 23.0906C6.5898 25.0018 6.66375 25.9574 7.09218 26.6586C7.46903 27.2753 8.03148 27.757 8.69889 28.0345C9.45764 28.3499 10.4132 28.2759 12.3244 28.128L25.4208 27.1145C26.6598 27.0186 27.4972 26.9538 28.124 26.8034C27.9138 27.2969 27.5895 27.7366 27.1746 28.0846C26.545 28.6126 25.6111 28.828 23.7433 29.2589L10.9438 32.2113C9.07597 32.6422 8.14206 32.8576 7.34479 32.6586C6.6435 32.4837 6.01561 32.0911 5.55111 31.5373C5.02305 30.9078 4.80762 29.9739 4.37678 28.106L0.521985 11.3946C0.0911391 9.52677 -0.124284 8.59286 0.0746573 7.79559C0.249651 7.0943 0.642167 6.46641 1.19595 6.00191C1.82552 5.47385 2.75943 5.25842 4.62725 4.82758L5.02707 4.73535Z" fill="#612BD3"/>
<path d="M18.5599 14.4471C18.3196 14.7119 18.0123 14.8588 17.6378 14.8878C17.3786 14.9078 17.1659 14.8735 16.9998 14.785C16.8324 14.682 16.7083 14.5757 16.6274 14.4661L16.1615 8.43966C16.2489 8.07075 16.4083 7.79043 16.6397 7.5987C16.87 7.39257 17.1148 7.27949 17.374 7.25945C17.4748 7.25165 17.6138 7.26988 17.7911 7.31412C17.9827 7.35725 18.1811 7.48677 18.3861 7.7027C18.59 7.90423 18.7746 8.23039 18.9398 8.68117C19.1194 9.13084 19.2399 9.75168 19.3011 10.5437C19.3389 11.0333 19.3413 11.5329 19.3083 12.0424C19.2886 12.5365 19.2151 12.9913 19.0879 13.4067C18.975 13.821 18.799 14.1678 18.5599 14.4471Z" fill="white"/>
<path fill-rule="evenodd" clip-rule="evenodd" d="M6.10722 5.22211C6.00627 3.91762 5.95579 3.26537 6.1711 2.74748C6.36049 2.29192 6.68924 1.90802 7.11024 1.65079C7.58884 1.35836 8.24108 1.30788 9.54557 1.20693L24.0205 0.0867131C25.325 -0.0142411 25.9772 -0.0647182 26.4951 0.150593C26.9507 0.339986 27.3346 0.668737 27.5918 1.08973C27.8843 1.56833 27.9347 2.22058 28.0357 3.52507L29.4655 22.0008C29.5665 23.3052 29.617 23.9575 29.4016 24.4754C29.2123 24.9309 28.8835 25.3148 28.4625 25.5721C27.9839 25.8645 27.3317 25.915 26.0272 26.0159L11.5522 27.1362C10.2477 27.2371 9.59548 27.2876 9.0776 27.0723C8.62205 26.8829 8.23814 26.5541 7.98091 26.1331C7.68848 25.6545 7.63801 25.0023 7.53705 23.6978L6.10722 5.22211ZM16.0296 6.73324L15.9043 5.11323L12.7939 5.35371L14.1082 22.3531L17.1585 21.335L16.7527 16.0861C16.9267 16.2755 17.1782 16.4371 17.5072 16.571C17.8352 16.6905 18.2727 16.7291 18.8199 16.6868C19.5832 16.6278 20.204 16.4132 20.6824 16.0431C21.174 15.6574 21.5499 15.1792 21.81 14.6087C22.0701 14.0381 22.231 13.4027 22.2928 12.7026C22.369 12.0014 22.3803 11.3052 22.3269 10.614C22.2523 9.64915 22.088 8.83614 21.8341 8.17492C21.5802 7.5137 21.2648 6.99485 20.8881 6.61837C20.5246 6.22637 20.1124 5.95403 19.6515 5.80134C19.205 5.64754 18.737 5.58956 18.2474 5.62742C17.7146 5.66861 17.2682 5.79728 16.9083 6.01343C16.5472 6.21518 16.2543 6.45511 16.0296 6.73324Z" fill="white"/>
</svg>
