<?xml version="1.0" encoding="UTF-8" standalone="no"?>
<!DOCTYPE svg PUBLIC "-//W3C//DTD SVG 1.1//EN" "http://www.w3.org/Graphics/SVG/1.1/DTD/svg11.dtd">
<svg width="100%" height="100%" viewBox="0 0 125 96" version="1.1" xmlns="http://www.w3.org/2000/svg" xmlns:xlink="http://www.w3.org/1999/xlink" xml:space="preserve" xmlns:serif="http://www.serif.com/" style="fill-rule:evenodd;clip-rule:evenodd;stroke-linecap:round;">
    <path d="M71.052,40.26C67.67,40.26 73.437,-1.364 59.017,3.336C45.308,7.805 64.478,40.26 61.257,40.26C58.035,40.26 35.521,38.391 34.022,48.568C32.348,59.934 61.842,53.572 62.721,55.03C63.599,56.488 51.14,73.749 59.017,79.03C67.178,84.501 77.599,64.261 79.384,64.261C81.17,64.261 90.399,97.419 97.9,88.261C103.996,80.819 89.464,64.261 92.345,64.261C95.226,64.261 116.722,65.943 120.118,55.03C124.269,41.693 87.173,51.217 84.939,48.568C82.705,45.92 102.82,24.661 92.345,19.029C82.003,13.468 74.434,40.26 71.052,40.26Z" style="fill:none;fill-rule:nonzero;stroke:rgb(193,95,60);stroke-opacity:0.4;stroke-width:1px;"/>
    <g transform="matrix(0.108289,-0.029016,0.029016,0.108289,45.774911,20.203018)">
        <path d="M0,18.338C0,8.216 8.474,0 18.92,0L237.08,0C247.53,0 256,8.216 256,18.338L256,237.665C256,247.79 247.53,256 237.08,256L18.92,256C8.475,256 0,247.791 0,237.668L0,18.335L0,18.338Z" style="fill:rgb(0,102,153);fill-rule:nonzero;"/>
        <path d="M77.796,214.238L77.796,98.986L39.488,98.986L39.488,214.238L77.8,214.238L77.796,214.238ZM58.65,83.253C72.006,83.253 80.321,74.403 80.321,63.343C80.071,52.031 72.006,43.428 58.904,43.428C45.793,43.428 37.23,52.031 37.23,63.342C37.23,74.402 45.542,83.252 58.399,83.252L58.647,83.252L58.65,83.253ZM99,214.238L137.305,214.238L137.305,149.883C137.305,146.443 137.555,142.994 138.567,140.537C141.335,133.652 147.638,126.525 158.223,126.525C172.081,126.525 177.628,137.093 177.628,152.588L177.628,214.238L215.932,214.238L215.932,148.156C215.932,112.757 197.036,96.284 171.833,96.284C151.17,96.284 142.095,107.833 137.053,115.699L137.308,115.699L137.308,98.99L99.002,98.99C99.502,109.802 98.999,214.242 98.999,214.242L99,214.238Z" style="fill:white;fill-rule:nonzero;"/>
    </g>
    <g transform="matrix(0.959928,-0.280248,0.280248,0.959928,-10.895811,5.361999)">
        <path d="M44.935,48.932L44.935,64.263C44.935,68.762 41.282,72.414 36.784,72.414L21.453,72.414C16.954,72.414 13.302,68.762 13.302,64.263L13.302,48.932C13.302,44.433 16.954,40.781 21.453,40.781L36.784,40.781C41.282,40.781 44.935,44.433 44.935,48.932Z" style="fill:rgb(255,87,0);"/>
    </g>
    <path d="M43.039,48.577C42.681,47.351 41.396,46.647 40.171,47.005C39.567,47.181 39.102,47.568 38.825,48.072C37,47.43 34.697,47.331 32.362,47.916L31.991,42.88L35.478,42.613C35.757,43.437 36.647,43.91 37.499,43.661C38.369,43.407 38.872,42.489 38.618,41.619C38.364,40.749 37.446,40.246 36.576,40.5C35.955,40.682 35.526,41.192 35.432,41.798L31.529,42.09C31.417,42.103 31.315,42.152 31.242,42.231C31.169,42.31 31.142,42.414 31.137,42.531L31.563,48.15C29.222,48.91 27.311,50.22 26.111,51.784C25.611,51.525 24.988,51.438 24.402,51.609C23.177,51.966 22.473,53.251 22.831,54.476C23.095,55.382 23.851,55.99 24.736,56.117C24.762,56.34 24.812,56.577 24.879,56.807C25.875,60.217 30.638,61.813 35.539,60.382C40.44,58.951 43.597,55.043 42.601,51.633C42.534,51.403 42.454,51.195 42.356,50.992C42.981,50.424 43.303,49.482 43.039,48.577ZM28.317,54.59C28.063,53.719 28.566,52.802 29.436,52.548C30.306,52.294 31.224,52.797 31.478,53.667C31.732,54.537 31.229,55.455 30.359,55.709C29.489,55.963 28.571,55.46 28.317,54.59ZM38.361,56.186C37.594,57.585 35.555,58.258 34.951,58.434C34.348,58.61 32.244,59.128 30.867,58.374C30.661,58.261 30.583,57.994 30.696,57.788C30.81,57.581 31.076,57.504 31.282,57.617C32.154,58.094 33.683,57.918 34.731,57.612C35.778,57.306 37.144,56.638 37.64,55.761C37.753,55.554 38.019,55.477 38.226,55.59C38.402,55.731 38.474,55.98 38.361,56.186ZM37.32,53.676C36.45,53.93 35.532,53.427 35.278,52.557C35.024,51.687 35.527,50.77 36.397,50.516C37.267,50.261 38.185,50.764 38.439,51.635C38.693,52.505 38.19,53.422 37.32,53.676Z" style="fill:white;fill-rule:nonzero;"/>
    <g transform="matrix(0.965926,0.258819,-0.258819,0.965926,11.698323,-20.136786)">
        <path d="M104.571,40.182L104.571,50.783C104.571,53.996 101.962,56.605 98.749,56.605L88.148,56.605C84.935,56.605 82.326,53.996 82.326,50.783L82.326,40.182C82.326,36.969 84.935,34.36 88.148,34.36L98.749,34.36C101.962,34.36 104.571,36.969 104.571,40.182Z" style="fill:rgb(59,89,152);"/>
    </g>
    <path d="M93.541,52.208L94.85,49.231L91.87,48.432L92.41,46.418C92.637,45.568 93.275,44.851 94.609,45.208L95.965,45.571L96.673,42.928C96.673,42.928 95.5,42.388 94.325,42.073C91.87,41.416 89.868,42.474 89.147,45.166L88.513,47.533L85.785,46.802L84.953,49.907L87.681,50.638L85.669,58.146C86.194,58.379 86.742,58.573 87.313,58.726C87.883,58.879 88.455,58.985 89.026,59.045L91.038,51.538L93.541,52.208Z" style="fill:white;fill-rule:nonzero;"/>
    <path d="M83.075,57.614L83.075,76.983C83.075,83.41 77.857,88.627 71.431,88.627L52.061,88.627C45.634,88.627 40.417,83.41 40.417,76.983L40.417,57.614C40.417,51.187 45.634,45.97 52.061,45.97L71.431,45.97C77.857,45.97 83.075,51.187 83.075,57.614Z" style="fill:rgb(193,53,132);"/>
    <path d="M56.727,66.969C56.727,64.379 58.826,62.279 61.416,62.279C64.006,62.279 66.106,64.379 66.106,66.969C66.106,69.559 64.006,71.659 61.416,71.659C58.826,71.659 56.727,69.559 56.727,66.969ZM54.192,66.969C54.192,70.959 57.426,74.193 61.416,74.193C65.406,74.193 68.64,70.959 68.64,66.969C68.64,62.979 65.406,59.745 61.416,59.745C57.426,59.745 54.192,62.979 54.192,66.969M67.237,59.459C67.237,59.793 67.336,60.119 67.522,60.397C67.707,60.675 67.971,60.891 68.279,61.019C68.588,61.147 68.927,61.18 69.254,61.115C69.582,61.05 69.883,60.89 70.119,60.654C70.355,60.418 70.516,60.117 70.581,59.789C70.647,59.462 70.613,59.123 70.486,58.814C70.358,58.505 70.142,58.242 69.864,58.056C69.587,57.87 69.26,57.771 68.926,57.771L68.926,57.771C68.478,57.772 68.049,57.949 67.732,58.266C67.416,58.582 67.238,59.011 67.237,59.459ZM55.732,78.42C54.361,78.358 53.615,78.129 53.12,77.936C52.463,77.681 51.994,77.376 51.502,76.884C51.009,76.392 50.704,75.924 50.449,75.267C50.256,74.772 50.028,74.026 49.965,72.654C49.897,71.172 49.883,70.726 49.883,66.969C49.883,63.212 49.898,62.768 49.965,61.284C50.028,59.912 50.258,59.168 50.449,58.672C50.705,58.015 51.01,57.546 51.502,57.053C51.994,56.561 52.462,56.256 53.12,56.001C53.615,55.808 54.361,55.58 55.732,55.517C57.215,55.449 57.661,55.435 61.416,55.435C65.171,55.435 65.617,55.45 67.101,55.517C68.473,55.58 69.217,55.81 69.713,56.001C70.37,56.256 70.839,56.562 71.332,57.054C71.824,57.546 72.128,58.015 72.384,58.672C72.577,59.167 72.806,59.913 72.868,61.284C72.936,62.768 72.95,63.213 72.95,66.969C72.95,70.726 72.936,71.171 72.868,72.655C72.805,74.026 72.576,74.772 72.384,75.267C72.128,75.924 71.824,76.393 71.332,76.884C70.84,77.376 70.37,77.681 69.713,77.936C69.218,78.13 68.473,78.358 67.101,78.421C65.618,78.489 65.173,78.502 61.416,78.502C57.659,78.502 57.215,78.489 55.732,78.421M55.616,52.986C54.118,53.054 53.095,53.292 52.201,53.639C51.276,53.999 50.492,54.48 49.709,55.262C48.926,56.044 48.445,56.828 48.086,57.754C47.739,58.649 47.501,59.671 47.433,61.169C47.364,62.669 47.348,63.149 47.348,66.969C47.348,70.79 47.364,71.269 47.433,72.769C47.501,74.267 47.739,75.29 48.086,76.184C48.445,77.109 48.926,77.894 49.709,78.676C50.492,79.457 51.275,79.938 52.201,80.299C53.096,80.646 54.118,80.884 55.616,80.952C57.117,81.02 57.595,81.037 61.416,81.037C65.236,81.037 65.716,81.021 67.216,80.952C68.713,80.884 69.736,80.646 70.63,80.299C71.555,79.938 72.34,79.458 73.123,78.676C73.906,77.894 74.385,77.109 74.745,76.184C75.093,75.29 75.332,74.267 75.399,72.769C75.467,71.268 75.483,70.79 75.483,66.969C75.483,63.149 75.467,62.669 75.399,61.169C75.331,59.671 75.093,58.648 74.745,57.754C74.385,56.829 73.904,56.045 73.123,55.262C72.341,54.479 71.555,53.999 70.632,53.639C69.736,53.292 68.713,53.053 67.217,52.986C65.717,52.917 65.237,52.901 61.417,52.901C57.598,52.901 57.117,52.917 55.616,52.986" style="fill:white;fill-rule:nonzero;"/>
</svg>
