<svg width="493" height="369" viewBox="0 0 493 369" fill="none" xmlns="http://www.w3.org/2000/svg">
<g clip-path="url(#clip0_895_7185)">
<path d="M359.988 350.101H350.178L345.51 312.266H359.988V350.101Z" fill="#9E616A"/>
<path d="M365.164 367.097H358.129L356.873 360.456L353.657 367.097H335C334.106 367.097 333.235 366.811 332.514 366.281C331.794 365.752 331.262 365.005 330.996 364.151C330.73 363.298 330.743 362.381 331.035 361.536C331.327 360.69 331.881 359.96 332.617 359.452L347.516 349.162V342.448L363.188 343.383L365.164 367.097Z" fill="#2F2E41"/>
<path d="M418.264 337.722L410.392 343.575L384.069 315.999L395.687 307.36L418.264 337.722Z" fill="#9E616A"/>
<path d="M432.56 348.271L426.915 352.468L421.944 347.888L423.327 355.137L408.355 366.27C407.637 366.804 406.768 367.094 405.874 367.098C404.979 367.103 404.107 366.822 403.384 366.295C402.661 365.769 402.125 365.025 401.855 364.173C401.584 363.32 401.593 362.404 401.881 361.557L407.696 344.409L403.69 339.021L416.824 330.42L432.56 348.271Z" fill="#2F2E41"/>
<path d="M371.407 154.889C371.407 154.889 390.019 170.968 381.431 216.807L370.948 261.722L405.138 318.443L394.236 331.705L349.788 270.311L333.682 232.53L329.162 165.287L371.407 154.889Z" fill="#2F2E41"/>
<path d="M342.56 243.297L341.44 260.634L344.866 334.512L360.987 331.705L364.067 279.104L342.56 243.297Z" fill="#2F2E41"/>
<path d="M135.691 358.997L144.463 358.997L148.636 325.161L135.689 325.162L135.691 358.997Z" fill="#FFB6B6"/>
<path d="M133.452 356.133L135.921 356.133L145.561 352.213L150.728 356.132H150.729C153.648 356.133 156.448 357.292 158.513 359.357C160.578 361.422 161.738 364.222 161.738 367.142V367.499L133.453 367.5L133.452 356.133Z" fill="#2F2E41"/>
<path d="M169.685 353.47L178.241 355.401L189.765 323.316L177.136 320.464L169.685 353.47Z" fill="#FFB6B6"/>
<path d="M168.132 350.183L170.541 350.726L180.808 349.026L184.984 353.987L184.985 353.988C187.833 354.631 190.308 356.379 191.868 358.848C193.427 361.317 193.941 364.303 193.298 367.152L193.22 367.501L165.629 361.271L168.132 350.183Z" fill="#2F2E41"/>
<path d="M124.579 152.143C120.467 164.547 120.901 178.012 125.568 192.463L127.563 273.826C127.563 273.826 124.591 327.183 134.181 345.959H148.091L154.977 268.954L155.842 217.267L185.662 260.873L166.669 344.7L183.788 346.23L214.609 255.259L176.582 167.001L124.579 152.143Z" fill="#2F2E41"/>
<path d="M284.985 116.811C295.625 107.224 311.449 102.403 324.723 107.779C311.107 115.339 300.603 127.471 295.071 142.029C292.958 147.652 291.193 154.125 285.995 157.135C282.761 159.008 278.738 159.099 275.112 158.195C271.485 157.291 268.161 155.478 264.883 153.684L263.95 153.663C268.138 139.967 274.346 126.398 284.985 116.811Z" fill="#8155DD"/>
<path d="M324.648 108.07C312.892 109.589 301.913 114.774 293.271 122.888C291.38 124.602 289.771 126.603 288.502 128.818C287.337 131.016 286.781 133.485 286.892 135.97C286.95 138.29 287.277 140.655 286.77 142.948C286.493 144.118 285.972 145.216 285.24 146.17C284.509 147.124 283.585 147.913 282.527 148.485C279.929 149.978 276.95 150.449 274.02 150.808C270.768 151.206 267.383 151.569 264.567 153.393C264.226 153.614 263.903 153.072 264.243 152.851C269.142 149.677 275.341 150.832 280.608 148.714C283.066 147.725 285.241 145.99 286.011 143.366C286.684 141.072 286.349 138.633 286.27 136.285C286.126 133.862 286.577 131.441 287.584 129.233C288.735 126.961 290.265 124.901 292.107 123.142C296.192 119.115 300.885 115.756 306.013 113.187C311.85 110.223 318.15 108.278 324.642 107.439C325.044 107.387 325.047 108.019 324.648 108.07Z" fill="white"/>
<path d="M295.902 120.112C294.737 118.477 294.192 116.482 294.363 114.482C294.534 112.482 295.41 110.608 296.835 109.195C297.124 108.91 297.581 109.346 297.291 109.631C295.962 110.945 295.146 112.691 294.99 114.553C294.835 116.416 295.351 118.272 296.444 119.788C296.681 120.118 296.138 120.44 295.902 120.112Z" fill="white"/>
<path d="M286.709 134.798C290.749 135.514 294.91 134.681 298.363 132.465C298.705 132.245 299.028 132.787 298.687 133.006C295.089 135.306 290.757 136.164 286.555 135.41C286.154 135.338 286.311 134.726 286.709 134.798Z" fill="white"/>
<path d="M311.902 111.058C312.221 111.784 312.715 112.42 313.34 112.908C313.966 113.397 314.702 113.722 315.484 113.855C315.886 113.922 315.729 114.534 315.33 114.467C314.467 114.316 313.653 113.956 312.961 113.418C312.269 112.88 311.72 112.181 311.36 111.382C311.32 111.309 311.309 111.224 311.329 111.144C311.35 111.063 311.4 110.994 311.469 110.949C311.541 110.906 311.627 110.894 311.708 110.914C311.789 110.935 311.859 110.986 311.902 111.058Z" fill="white"/>
<path d="M339.34 154.013C339.088 153.978 338.837 153.943 338.581 153.912C335.195 153.463 331.777 153.289 328.362 153.393C328.098 153.397 327.831 153.405 327.567 153.416C319.343 153.755 311.253 155.617 303.709 158.908C300.708 160.221 297.811 161.76 295.044 163.512C291.222 165.931 287.271 168.859 282.998 169.846C282.554 169.954 282.103 170.034 281.649 170.086L263.997 154.803C263.974 154.748 263.948 154.697 263.925 154.642L263.192 154.064C263.329 153.963 263.472 153.862 263.609 153.762C263.688 153.703 263.771 153.648 263.849 153.59C263.903 153.552 263.957 153.514 264.004 153.477C264.022 153.464 264.04 153.451 264.054 153.443C264.1 153.405 264.148 153.376 264.19 153.342C264.992 152.775 265.799 152.212 266.611 151.654C266.614 151.65 266.614 151.65 266.622 151.649C272.769 147.337 279.407 143.769 286.395 141.02C286.604 140.941 286.817 140.858 287.035 140.786C290.182 139.615 293.42 138.704 296.715 138.062C298.521 137.716 300.343 137.461 302.174 137.299C306.907 136.89 311.675 137.228 316.302 138.3C325.528 140.439 333.966 145.505 338.964 153.405C339.092 153.608 339.216 153.806 339.34 154.013Z" fill="#8155DD"/>
<path d="M339.107 154.202C328.805 148.337 316.918 145.867 305.132 147.143C302.59 147.373 300.101 148.001 297.754 149.006C295.501 150.059 293.57 151.696 292.163 153.748C290.812 155.634 289.649 157.72 287.864 159.245C286.938 160.012 285.861 160.575 284.703 160.897C283.545 161.218 282.331 161.291 281.143 161.111C278.17 160.74 275.507 159.322 272.952 157.845C270.115 156.204 267.194 154.456 263.847 154.218C263.442 154.189 263.51 153.561 263.915 153.59C269.738 154.005 273.992 158.659 279.473 160.139C282.031 160.83 284.812 160.754 287.006 159.122C288.925 157.696 290.126 155.546 291.477 153.624C292.82 151.603 294.638 149.941 296.771 148.785C299.059 147.663 301.52 146.94 304.05 146.644C309.736 145.889 315.505 146.032 321.147 147.068C327.592 148.215 333.793 150.457 339.482 153.695C339.834 153.896 339.456 154.402 339.107 154.202Z" fill="white"/>
<path d="M308.903 146.509C308.958 144.502 309.724 142.581 311.064 141.087C312.405 139.593 314.232 138.624 316.221 138.354C316.624 138.3 316.726 138.923 316.322 138.977C314.47 139.225 312.767 140.128 311.522 141.521C310.277 142.915 309.571 144.708 309.531 146.577C309.522 146.983 308.894 146.912 308.903 146.509Z" fill="white"/>
<path d="M292.722 152.701C295.516 155.705 299.341 157.545 303.432 157.854C303.837 157.885 303.769 158.512 303.364 158.482C299.107 158.152 295.131 156.229 292.23 153.096C291.954 152.798 292.447 152.404 292.722 152.701Z" fill="white"/>
<path d="M327.13 148.913C326.947 149.685 326.959 150.49 327.164 151.257C327.37 152.023 327.762 152.726 328.306 153.303C328.586 153.598 328.093 153.992 327.815 153.699C327.216 153.058 326.784 152.281 326.555 151.435C326.326 150.589 326.308 149.7 326.503 148.845C326.514 148.763 326.557 148.688 326.621 148.637C326.686 148.585 326.768 148.559 326.85 148.565C326.933 148.575 327.009 148.617 327.062 148.682C327.114 148.747 327.139 148.83 327.13 148.913Z" fill="white"/>
<path d="M29.3006 358.383C28.4719 361.491 26.2947 364.08 23.666 365.966C23.2374 366.275 22.7974 366.56 22.3516 366.829C22.2145 366.909 22.0773 366.995 21.9345 367.069C21.7802 367.16 21.6259 367.246 21.4716 367.326H9.1109C8.88803 366.875 8.67088 366.417 8.45372 365.966C3.15629 354.834 -0.563907 342.822 0.0704131 330.587C0.322071 325.841 1.31908 321.165 3.02486 316.729C6.41933 307.889 12.6139 300.237 21.1344 296.385C21.3459 296.288 21.5687 296.191 21.7859 296.099C21.7173 296.345 21.6487 296.585 21.5801 296.831C20.666 300.124 20.0201 303.486 19.6486 306.883C19.6143 307.146 19.5858 307.409 19.5629 307.677C18.751 315.87 19.4719 324.143 21.6887 332.073C21.6944 332.09 21.7001 332.113 21.7059 332.13C22.1916 333.884 22.7555 335.612 23.3974 337.313C23.9003 338.656 24.4432 339.982 25.0375 341.285C27.5176 346.754 30.8435 352.582 29.3006 358.383Z" fill="#8155DD"/>
<path d="M21.9401 296.357C21.8201 296.517 21.7001 296.671 21.5801 296.831C19.0701 300.157 16.9388 303.753 15.2255 307.552C15.134 307.74 15.0483 307.929 14.974 308.123C12.6264 313.427 11.1188 319.065 10.5052 324.833C10.4986 324.872 10.4947 324.912 10.4938 324.953C10.3509 326.301 10.2652 327.661 10.2309 329.021C10.1038 331.571 10.3796 334.124 11.0481 336.587C11.6576 338.599 12.7257 340.442 14.1683 341.971C14.3111 342.125 14.454 342.279 14.6083 342.428C14.7226 342.548 14.8483 342.668 14.9683 342.782C16.1226 343.885 17.3856 344.908 18.4713 346.091C18.969 346.621 19.4184 347.195 19.8143 347.805C20.446 348.828 20.8541 349.973 21.0117 351.165C21.1693 352.356 21.0728 353.568 20.7286 354.72C19.9514 357.611 18.1742 360.052 16.3569 362.377C15.4483 363.543 14.5111 364.72 13.6997 365.966C13.4025 366.412 13.1282 366.863 12.8768 367.326H12.1567C12.3968 366.863 12.6596 366.412 12.9454 365.966C15.0312 362.68 17.9971 359.857 19.5343 356.24C20.5743 353.8 20.8887 351.034 19.5743 348.64C19.1891 347.943 18.723 347.295 18.1856 346.708C17.1399 345.525 15.8884 344.514 14.7512 343.445C14.4654 343.176 14.1854 342.902 13.9168 342.616C12.4929 341.17 11.3941 339.436 10.6938 337.53C9.90079 335.11 9.52588 332.573 9.58518 330.027C9.58518 328.404 9.6709 326.77 9.83091 325.147C9.84806 324.941 9.87091 324.73 9.89377 324.518C11.0624 314.305 14.9436 304.592 21.1344 296.385C21.2487 296.225 21.3687 296.071 21.4887 295.917C21.7344 295.597 22.1858 296.042 21.9401 296.357Z" fill="white"/>
<path d="M10.1245 325.201C8.14509 324.868 6.34835 323.843 5.05511 322.308C3.76187 320.773 3.05635 318.828 3.06452 316.821C3.06562 316.74 3.09843 316.661 3.15606 316.603C3.21369 316.545 3.29164 316.512 3.37347 316.51C3.45529 316.508 3.53462 316.538 3.59474 316.594C3.65485 316.649 3.69106 316.726 3.69573 316.808C3.68467 318.677 4.34204 320.488 5.54922 321.915C6.75641 323.342 8.43387 324.29 10.2789 324.589C10.6797 324.654 10.523 325.266 10.1245 325.201Z" fill="white"/>
<path d="M14.009 342.085C17.3718 339.735 19.7251 336.203 20.5997 332.194C20.686 331.797 21.298 331.952 21.2118 332.349C20.2939 336.519 17.8374 340.189 14.3326 342.627C13.9984 342.859 13.6766 342.316 14.009 342.085Z" fill="white"/>
<path d="M15.0363 307.485C15.7753 307.773 16.5744 307.873 17.3617 307.776C18.149 307.679 18.9 307.388 19.547 306.929C19.8781 306.693 20.1996 307.237 19.8706 307.471C19.1533 307.975 18.3236 308.295 17.454 308.404C16.5843 308.513 15.7012 308.408 14.8818 308.097C14.8021 308.074 14.7341 308.021 14.6916 307.95C14.6491 307.879 14.6353 307.794 14.653 307.713C14.6739 307.632 14.7258 307.563 14.7976 307.52C14.8694 307.477 14.9551 307.465 15.0363 307.485Z" fill="white"/>
<path d="M64.8117 318.455C64.6117 318.609 64.406 318.764 64.2059 318.924C61.4928 321 58.9529 323.293 56.6112 325.781C56.4284 325.97 56.2455 326.164 56.0683 326.358L56.0626 326.364C50.5103 332.391 46.1201 339.393 43.1134 347.017L43.0962 347.068C43.0905 347.085 43.0848 347.097 43.0791 347.114C41.8873 350.165 40.9264 353.302 40.2046 356.497C39.5075 359.617 38.936 362.96 37.8445 365.966C37.6788 366.429 37.4959 366.886 37.3016 367.326H11.8945C11.9803 366.875 12.0717 366.418 12.1631 365.966C13.4556 359.345 15.4755 352.886 18.1863 346.708C18.2777 346.502 18.3692 346.297 18.472 346.091C19.8714 343.038 21.517 340.105 23.3923 337.319L23.3927 337.317L23.3939 337.315L23.3958 337.314L23.398 337.313C24.4278 335.793 25.534 334.326 26.7125 332.919C29.7687 329.282 33.3789 326.15 37.4102 323.638C37.4331 323.621 37.4616 323.61 37.4845 323.592C45.5078 318.615 55.0169 316.243 64.1088 318.295H64.1145C64.3488 318.346 64.5774 318.398 64.8117 318.455Z" fill="#8155DD"/>
<path d="M64.7822 318.758C64.5879 318.809 64.3936 318.866 64.205 318.923C60.2 320.068 56.3343 321.653 52.6787 323.649C52.4958 323.747 52.3129 323.849 52.1301 323.952C47.0782 326.772 42.4924 330.355 38.5351 334.576C38.532 334.579 38.53 334.583 38.5293 334.587C38.4836 334.633 38.4322 334.684 38.3922 334.73C37.4779 335.713 36.5978 336.736 35.7635 337.787C34.1315 339.748 32.8164 341.952 31.8661 344.319C31.14 346.292 30.8837 348.407 31.1175 350.497C31.1347 350.708 31.1632 350.914 31.1918 351.125C31.2147 351.291 31.2375 351.457 31.2661 351.628C31.6433 353.92 32.2947 356.217 32.1118 358.554C32.0006 359.752 31.637 360.912 31.0451 361.959C30.4531 363.006 29.6462 363.916 28.6774 364.629C28.0188 365.138 27.3149 365.586 26.5744 365.966C25.5157 366.512 24.4127 366.967 23.2771 367.326H21.0312C21.3341 367.24 21.6313 367.155 21.9342 367.069C23.0089 366.766 24.0643 366.397 25.0943 365.966C25.6828 365.72 26.2553 365.437 26.8087 365.12C29.106 363.8 31.0204 361.777 31.4204 359.074C31.769 356.708 31.0947 354.343 30.6946 352.028C30.6261 351.628 30.5632 351.234 30.5289 350.839C30.2561 348.835 30.4218 346.796 31.0146 344.862C31.8369 342.45 33.0662 340.196 34.6491 338.199C35.6284 336.898 36.6736 335.649 37.7807 334.456C37.9179 334.301 38.0608 334.147 38.2093 333.993C42.2499 329.742 46.9152 326.133 52.0444 323.289H52.0501C55.8639 321.166 59.9099 319.49 64.1079 318.295H64.1136C64.3022 318.238 64.4965 318.181 64.685 318.129C65.0794 318.026 65.1708 318.649 64.7822 318.758Z" fill="white"/>
<path d="M37.9835 334.673C36.6032 333.215 35.7859 331.315 35.6774 329.311C35.5689 327.307 36.1764 325.329 37.3913 323.732C37.6383 323.409 38.1509 323.778 37.9036 324.101C36.7696 325.586 36.2039 327.428 36.3087 329.294C36.4135 331.161 37.1819 332.928 38.4752 334.277C38.7559 334.57 38.2626 334.964 37.9835 334.673Z" fill="white"/>
<path d="M30.9204 350.493C35.0206 350.641 39.0259 349.238 42.1377 346.564C42.4458 346.299 42.8411 346.791 42.5334 347.056C39.29 349.832 35.1189 351.284 30.8525 351.121C30.4458 351.105 30.516 350.477 30.9204 350.493Z" fill="white"/>
<path d="M52.5721 323.485C52.9886 324.16 53.5664 324.721 54.2533 325.117C54.9403 325.514 55.7151 325.734 56.508 325.757C56.9146 325.768 56.844 326.395 56.4401 326.385C55.5641 326.355 54.7088 326.111 53.9488 325.674C53.1888 325.238 52.5473 324.622 52.0803 323.88C52.0304 323.814 52.0076 323.731 52.0165 323.649C52.0255 323.566 52.0654 323.491 52.1283 323.437C52.1937 323.384 52.277 323.36 52.3601 323.369C52.4432 323.378 52.5193 323.42 52.5721 323.485Z" fill="white"/>
<path d="M260.804 98.9366C260.218 99.708 259.469 100.342 258.611 100.792C257.754 101.243 256.807 101.501 255.839 101.546C254.871 101.592 253.905 101.425 253.009 101.057C252.112 100.688 251.308 100.128 250.651 99.4152L229.05 108.81L231.154 96.7514L251.344 89.6786C252.615 88.6552 254.217 88.1334 255.847 88.2121C257.476 88.2909 259.02 88.9647 260.186 90.1058C261.352 91.247 262.059 92.7763 262.173 94.4038C262.287 96.0314 261.8 97.6442 260.804 98.9366Z" fill="#FFB8B8"/>
<path d="M246.389 102.702L196.216 125.051L196.109 125.012L138.925 104.634C134.665 102.408 131.418 98.6382 129.847 94.0959C128.277 89.5536 128.502 84.5828 130.477 80.2013C131.572 77.7805 133.167 75.619 135.158 73.859C137.148 72.0991 139.488 70.7807 142.025 69.9905C144.562 69.2004 147.237 68.9564 149.875 69.2747C152.512 69.5929 155.053 70.4662 157.329 71.8371L199.884 97.4723L241.15 92.1241L246.389 102.702Z" fill="#8155DD"/>
<path d="M493 367.789C493 367.878 492.982 367.967 492.948 368.049C492.914 368.132 492.864 368.207 492.801 368.27C492.738 368.334 492.663 368.384 492.58 368.418C492.497 368.452 492.409 368.469 492.319 368.469H0.698584C0.518227 368.469 0.345264 368.397 0.217732 368.27C0.0902003 368.142 0.0185547 367.969 0.0185547 367.789C0.0185547 367.609 0.0902003 367.436 0.217732 367.308C0.345264 367.181 0.518227 367.109 0.698584 367.109H492.319C492.409 367.109 492.497 367.126 492.58 367.16C492.663 367.194 492.738 367.244 492.801 367.307C492.864 367.371 492.914 367.446 492.948 367.528C492.982 367.611 493 367.7 493 367.789Z" fill="#172034"/>
<path d="M179.063 169.607L128.486 161.517C127.159 161.092 125.94 160.385 124.913 159.445C123.885 158.505 123.073 157.353 122.533 156.069C121.992 154.786 121.736 153.4 121.782 152.008C121.827 150.616 122.173 149.25 122.796 148.004L125.09 143.416L124.199 95.2157C124.092 88.946 125.637 82.7585 128.681 77.2758C131.724 71.7931 136.157 67.2085 141.535 63.9833L146.467 61.0342L148.96 54.7043L171.944 55.2649L172.011 63.5667L180.242 76.6922L180.242 76.7466L179.726 148.187L177.457 155.559L180.887 164.135L179.063 169.607Z" fill="#8155DD"/>
<path d="M162.557 46.8334C174.091 46.8334 183.441 37.4835 183.441 25.9499C183.441 14.4163 174.091 5.06641 162.557 5.06641C151.024 5.06641 141.674 14.4163 141.674 25.9499C141.674 37.4835 151.024 46.8334 162.557 46.8334Z" fill="#FFB8B8"/>
<path d="M140.811 30.5026C140.188 27.8786 140.474 24.186 140.826 21.5439C141.749 14.617 145.595 8.03185 151.44 4.13122C152.548 3.28956 153.865 2.76626 155.248 2.61774C156.631 2.56002 158.13 3.30016 158.554 4.61727C158.902 3.74797 159.425 2.95928 160.09 2.29987C160.755 1.64047 161.548 1.12434 162.42 0.783346C164.172 0.112085 166.057 -0.14177 167.924 0.0419035C171.543 0.340228 175.014 1.61282 177.968 3.72463C180.922 5.83644 183.25 8.70868 184.704 12.0365C185.261 13.3616 186.819 8.46708 187.526 9.71911C188.176 11.0205 189.309 12.016 190.683 12.4926C192.068 12.8791 192.63 18.5846 193.175 17.2542C193.598 18.2374 193.765 19.3116 193.661 20.3768C193.557 21.442 193.185 22.4636 192.579 23.3463C191.974 24.229 191.155 24.9442 190.199 25.4253C189.243 25.9064 188.181 26.1377 187.112 26.0976C185.702 26.0449 184.354 25.5265 182.962 25.3033C177.981 24.5053 172.698 28.1167 171.633 33.0469C171.252 31.6212 170.643 30.2663 169.83 29.0347C169.417 28.4222 168.864 27.917 168.217 27.5613C167.569 27.2056 166.846 27.0096 166.108 26.9897C164.691 27.0427 163.446 27.9691 162.526 29.0486C161.607 30.1281 160.916 31.3876 159.99 32.4613C157.273 35.6117 153.597 42.9588 149.724 42.423C146.668 42.0001 141.661 34.0854 140.811 30.5026Z" fill="#2F2E41"/>
<path d="M288.795 122.601C288.942 121.649 288.746 120.676 288.243 119.855C287.74 119.033 286.963 118.416 286.048 118.113L229.809 99.3824C229.27 99.202 228.699 99.1365 228.133 99.1899L214.037 100.523L205.949 101.29L191.023 102.701C190.122 102.787 189.275 103.17 188.614 103.789C187.954 104.409 187.518 105.23 187.375 106.124L179.797 153.462C179.653 154.385 179.829 155.33 180.295 156.14C180.761 156.95 181.489 157.577 182.359 157.917L239.186 179.852C239.452 179.956 239.729 180.03 240.012 180.074C240.424 180.141 240.843 180.144 241.255 180.083L277.975 174.641C278.841 174.516 279.643 174.115 280.263 173.497C280.883 172.879 281.288 172.078 281.417 171.213L288.795 122.601Z" fill="black"/>
<path d="M183.648 154.582L240.473 176.516C240.556 176.548 240.646 176.559 240.735 176.546L277.449 171.105C277.558 171.09 277.659 171.04 277.737 170.962C277.815 170.885 277.865 170.784 277.881 170.675L285.264 122.063C285.281 121.944 285.256 121.823 285.193 121.721C285.131 121.619 285.034 121.541 284.921 121.502L284.543 121.374L228.679 102.775C228.653 102.766 228.627 102.76 228.6 102.756C228.557 102.748 228.513 102.746 228.469 102.75L194.087 106.003L191.359 106.259C191.247 106.271 191.142 106.319 191.06 106.396C190.978 106.473 190.923 106.575 190.905 106.686L183.328 154.023C183.309 154.138 183.331 154.257 183.389 154.359C183.447 154.46 183.538 154.539 183.648 154.582Z" fill="#6C63FF"/>
<path d="M194.087 106.003L228.468 102.75C228.512 102.746 228.556 102.748 228.6 102.756C228.627 102.76 228.653 102.766 228.678 102.775L284.543 121.374L269.807 122.934L264.292 123.515L248.599 125.173C248.554 125.175 248.508 125.175 248.462 125.171C248.434 125.163 248.406 125.154 248.372 125.145L194.087 106.003Z" fill="#2F2E41"/>
<path d="M182.359 157.92L239.185 179.854C239.452 179.957 239.73 180.03 240.013 180.071C240.425 180.139 240.845 180.144 241.258 180.087L277.972 174.645C278.839 174.519 279.642 174.117 280.262 173.499C280.882 172.881 281.287 172.08 281.417 171.214L288.795 122.601C288.904 121.885 288.821 121.152 288.556 120.477C288.518 120.388 288.481 120.298 288.437 120.213C288.145 119.598 287.699 119.067 287.144 118.672C286.809 118.432 286.44 118.243 286.049 118.114L285.982 118.09L229.812 99.382C229.583 99.3088 229.349 99.2518 229.111 99.2116C228.787 99.1657 228.457 99.1593 228.131 99.1926L214.037 100.521L205.95 101.293L191.022 102.702C190.411 102.759 189.821 102.954 189.297 103.272C189.256 103.292 189.217 103.315 189.181 103.341C189.155 103.358 189.13 103.377 189.107 103.397C188.649 103.71 188.259 104.113 187.962 104.581C187.664 105.049 187.465 105.572 187.377 106.12L179.794 153.461C179.65 154.385 179.826 155.331 180.293 156.141C180.759 156.952 181.488 157.579 182.359 157.92ZM188.383 106.285C188.475 105.717 188.727 105.188 189.109 104.758C189.224 104.62 189.354 104.494 189.495 104.382C189.88 104.07 190.336 103.857 190.823 103.762C190.919 103.742 191.016 103.729 191.114 103.721L216.249 101.347L228.23 100.207C228.311 100.197 228.385 100.199 228.46 100.194C228.642 100.19 228.823 100.204 229.002 100.234C229.166 100.256 229.328 100.294 229.485 100.349L285.721 119.081C285.765 119.097 285.804 119.112 285.849 119.128C286.36 119.318 286.809 119.645 287.148 120.073C287.415 120.4 287.61 120.781 287.721 121.189C287.831 121.597 287.854 122.024 287.788 122.442L280.404 171.06C280.308 171.708 280.005 172.308 279.541 172.771C279.077 173.235 278.476 173.536 277.828 173.632L241.108 179.073C240.582 179.149 240.046 179.088 239.552 178.896L182.725 156.968C182.074 156.711 181.529 156.241 181.18 155.634C180.831 155.026 180.699 154.319 180.805 153.627L188.383 106.285Z" fill="#3F3D56"/>
<path d="M188.984 103.656C189.014 103.569 189.067 103.493 189.138 103.435C189.161 103.416 189.185 103.399 189.211 103.385C189.235 103.375 189.259 103.36 189.283 103.351C189.397 103.305 189.524 103.303 189.64 103.345L190.823 103.762L248.606 124.146L262.13 122.717L269.698 121.919L285.715 120.223L287.148 120.073L287.426 120.042C287.546 120.031 287.666 120.063 287.766 120.131C287.865 120.199 287.937 120.3 287.97 120.416C287.978 120.442 287.983 120.47 287.985 120.497C287.997 120.608 287.973 120.718 287.916 120.813C287.859 120.908 287.773 120.982 287.671 121.024C287.626 121.043 287.578 121.056 287.53 121.062L285.581 121.267L269.807 122.934L264.293 123.515L248.6 125.173C248.554 125.175 248.508 125.175 248.462 125.171C248.434 125.163 248.407 125.154 248.373 125.146L189.495 104.382L189.295 104.311C189.249 104.296 189.207 104.272 189.17 104.242C189.08 104.176 189.014 104.084 188.981 103.979C188.948 103.874 188.949 103.76 188.984 103.656Z" fill="#3F3D56"/>
<path d="M240.167 180.22C240.034 180.199 239.915 180.126 239.836 180.017C239.756 179.908 239.723 179.773 239.743 179.639L248.039 124.588C248.059 124.454 248.132 124.334 248.241 124.254C248.35 124.173 248.486 124.139 248.62 124.159L248.625 124.16C248.758 124.182 248.877 124.254 248.956 124.363C249.036 124.472 249.069 124.608 249.049 124.741L240.753 179.792C240.733 179.926 240.66 180.046 240.551 180.127C240.442 180.207 240.306 180.241 240.172 180.221L240.167 180.22Z" fill="#3F3D56"/>
<path d="M261.196 176.728L255.679 177.31L262.132 122.716C262.132 122.716 269.501 121.381 269.698 121.916C269.82 122.236 261.249 176.377 261.196 176.728Z" fill="#3F3D56"/>
<path d="M189.296 104.31L189.147 129.207L233.222 146.001L249.05 124.74L189.296 104.31Z" fill="#3F3D56"/>
<path d="M287.149 120.074C286.78 119.611 286.284 119.266 285.722 119.081L229.487 100.35C229.329 100.297 229.167 100.258 229.002 100.232C228.823 100.201 228.641 100.188 228.459 100.192L228.55 99.6216L229.113 99.2141L242.467 89.5457L287.064 103.213L287.142 118.672L287.149 120.074Z" fill="#3F3D56"/>
<path d="M191.542 144.278C191.605 144.284 191.667 144.297 191.728 144.317L208.982 149.984C209.198 150.055 209.377 150.209 209.48 150.412C209.583 150.614 209.6 150.85 209.53 151.066C209.459 151.282 209.305 151.461 209.102 151.563C208.899 151.666 208.664 151.684 208.448 151.613L191.193 145.946C190.993 145.88 190.824 145.743 190.718 145.56C190.613 145.378 190.579 145.162 190.622 144.956C190.665 144.75 190.782 144.566 190.952 144.441C191.122 144.316 191.332 144.258 191.542 144.278Z" fill="white"/>
<path d="M261.159 248.72C264.947 248.72 268.017 245.649 268.017 241.862C268.017 238.075 264.947 235.005 261.159 235.005C257.372 235.005 254.302 238.075 254.302 241.862C254.302 245.649 257.372 248.72 261.159 248.72Z" fill="#172034"/>
<path d="M86.2921 273.864C90.0794 273.864 93.1496 270.793 93.1496 267.006C93.1496 263.219 90.0794 260.149 86.2921 260.149C82.5048 260.149 79.4346 263.219 79.4346 267.006C79.4346 270.793 82.5048 273.864 86.2921 273.864Z" fill="#172034"/>
<path d="M229.157 46.9946C232.945 46.9946 236.015 43.9244 236.015 40.1371C236.015 36.3498 232.945 33.2795 229.157 33.2795C225.37 33.2795 222.3 36.3498 222.3 40.1371C222.3 43.9244 225.37 46.9946 229.157 46.9946Z" fill="#172034"/>
<path d="M240.408 154.363C239.519 154.749 238.556 154.936 237.588 154.91C236.619 154.884 235.668 154.645 234.801 154.212C233.934 153.778 233.173 153.16 232.572 152.401C231.97 151.641 231.542 150.759 231.318 149.816L207.881 147.448L215.613 137.958L236.683 141.662C238.292 141.391 239.945 141.719 241.328 142.584C242.711 143.45 243.728 144.793 244.187 146.358C244.646 147.924 244.515 149.604 243.819 151.079C243.122 152.554 241.908 153.723 240.408 154.363Z" fill="#FFB8B8"/>
<path d="M225.993 150.599L171.3 145.559L171.225 145.473L131.308 99.7355C128.681 95.7108 127.692 90.8342 128.543 86.1041C129.394 81.374 132.022 77.1483 135.887 74.2921C138.026 72.7158 140.474 71.6103 143.071 71.0484C145.667 70.4865 148.354 70.4809 150.953 71.0321C153.552 71.5832 156.005 72.6786 158.15 74.246C160.295 75.8135 162.084 77.8175 163.399 80.1261L187.985 123.297L226.596 138.81L225.993 150.599Z" fill="#8155DD"/>
<path d="M363.271 62.6414C361.913 52.6787 360.209 41.9822 353.183 34.7903C350.953 32.5083 348.284 30.7014 345.338 29.4787C342.391 28.2559 339.227 27.6426 336.037 27.6756C332.846 27.7086 329.696 28.3873 326.775 29.6708C323.854 30.9543 321.223 32.816 319.041 35.1436C313.926 40.6004 311.668 48.2625 311.461 55.739C311.254 63.2154 312.919 70.6088 314.766 77.8564C324.542 78.0517 334.245 76.1418 343.217 72.2565C345.461 71.2827 347.668 70.1818 350.038 69.5784C352.409 68.9751 354.098 70.4933 356.303 71.5519L357.514 69.2344C358.504 71.0782 361.572 70.5317 362.685 68.7588C363.798 66.9859 363.554 64.7154 363.271 62.6414Z" fill="#2F2E41"/>
<path d="M324.522 118.249L284.591 119.103C283.978 118.043 283.07 117.184 281.977 116.631C280.885 116.078 279.655 115.854 278.438 115.987C277.221 116.119 276.068 116.603 275.121 117.379C274.173 118.155 273.472 119.189 273.101 120.357C272.731 121.524 272.708 122.774 273.035 123.954C273.362 125.134 274.025 126.193 274.944 127.004C275.862 127.814 276.996 128.34 278.207 128.517C279.419 128.695 280.656 128.516 281.768 128.003C287.064 128.304 328.498 134.185 330.969 130.395C333.478 126.549 346.87 112.973 346.87 112.973L336.576 98.3191L324.522 118.249Z" fill="#9E616A"/>
<path d="M334.253 72.4985C344.615 72.4985 353.014 64.0989 353.014 53.7374C353.014 43.3759 344.615 34.9763 334.253 34.9763C323.892 34.9763 315.492 43.3759 315.492 53.7374C315.492 64.0989 323.892 72.4985 334.253 72.4985Z" fill="#9E616A"/>
<path d="M364.302 89.8354C362.091 85.4353 361.017 79.9995 356.304 78.573C353.121 77.6097 340.247 79.0533 337.346 80.6793C332.521 83.3841 336.894 88.4525 334.047 93.1955C330.953 98.3516 322.543 108.699 319.448 113.855C317.321 117.4 324.487 127.804 323.336 131.775C322.186 135.746 322.131 140.202 324.09 143.843C325.844 147.101 323.307 149.983 325.07 153.236C326.905 156.618 329.156 169.267 327.448 172.716L326.306 176.144C337.647 176.811 347.184 163.261 358.455 161.834C361.254 161.479 364.161 161.016 366.468 159.391C369.866 156.998 371.21 152.654 372.049 148.583C376.09 128.685 373.363 108.006 364.302 89.8354Z" fill="#3F3D56"/>
<path d="M381.306 136.296C379.727 131.984 376.867 113.131 376.867 113.131L358.966 112.606L367.718 134.191L343.836 167.623C343.836 167.623 343.881 167.697 343.961 167.828C342.705 167.626 341.418 167.809 340.268 168.351C339.118 168.893 338.158 169.77 337.514 170.866C336.87 171.963 336.572 173.228 336.659 174.497C336.747 175.766 337.215 176.978 338.003 177.977C338.79 178.975 339.861 179.712 341.075 180.092C342.289 180.471 343.589 180.476 344.805 180.104C346.021 179.733 347.097 179.003 347.891 178.01C348.686 177.017 349.162 175.808 349.258 174.54C349.346 174.59 349.449 174.608 349.549 174.591C349.649 174.574 349.74 174.522 349.806 174.446C352.463 171.111 382.886 140.608 381.306 136.296Z" fill="#9E616A"/>
<path d="M383.126 124.39C381.483 117.455 379.828 110.483 377.058 103.917C374.288 97.3508 370.322 91.1489 364.745 86.7129C362.962 85.2947 360.968 84.0429 358.733 83.602C356.497 83.161 353.978 83.6545 352.408 85.3057C349.896 87.9479 350.652 92.189 351.573 95.7165C354.29 106.117 357.007 116.518 359.724 126.919C367.57 126.087 375.416 125.256 383.261 124.424L383.126 124.39Z" fill="#3F3D56"/>
<path d="M357.242 56.3396C356.551 51.801 355.83 47.2245 354.206 42.9511C352.583 38.6776 349.967 34.6749 346.214 32.254C340.271 28.4212 332.577 29.1604 325.915 31.3652C320.763 33.0702 315.733 35.6618 312.1 39.8281C308.466 43.9944 306.425 49.9394 307.777 55.387C314.884 53.7079 321.991 52.0288 329.097 50.3497L328.319 50.8994C330.653 52.063 332.691 53.7429 334.278 55.8117C335.865 57.8804 336.96 60.2836 337.48 62.8388C337.989 65.425 337.916 68.0919 337.267 70.6465C336.618 73.2011 335.409 75.5795 333.728 77.6097C338.575 75.8903 343.422 74.1709 348.269 72.4515C351.261 71.3903 354.463 70.1674 356.237 67.4453C358.294 64.2892 357.816 60.106 357.242 56.3396Z" fill="#2F2E41"/>
</g>
<defs>
<clipPath id="clip0_895_7185">
<rect width="493" height="368.469" fill="white"/>
</clipPath>
</defs>
</svg>
