<?xml version="1.0" encoding="UTF-8" standalone="no"?>
<!DOCTYPE svg PUBLIC "-//W3C//DTD SVG 1.1//EN" "http://www.w3.org/Graphics/SVG/1.1/DTD/svg11.dtd">
<svg width="100%" height="100%" viewBox="0 0 493 369" version="1.1" xmlns="http://www.w3.org/2000/svg" xmlns:xlink="http://www.w3.org/1999/xlink" xml:space="preserve" xmlns:serif="http://www.serif.com/" style="fill-rule:evenodd;clip-rule:evenodd;stroke-linejoin:round;stroke-miterlimit:2;">
    <g>
        <clipPath id="_clip1">
            <rect x="0" y="0" width="493" height="368.469"/>
        </clipPath>
        <g clip-path="url(#_clip1)">
            <path d="M359.988,350.101L350.178,350.101L345.51,312.266L359.988,312.266L359.988,350.101Z" style="fill:rgb(158,97,106);fill-rule:nonzero;"/>
            <path d="M365.164,367.097L358.129,367.097L356.873,360.456L353.657,367.097L335,367.097C334.106,367.097 333.235,366.811 332.514,366.281C331.794,365.752 331.262,365.005 330.996,364.151C330.73,363.298 330.743,362.381 331.035,361.536C331.327,360.69 331.881,359.96 332.617,359.452L347.516,349.162L347.516,342.448L363.188,343.383L365.164,367.097Z" style="fill:rgb(47,46,65);fill-rule:nonzero;"/>
            <path d="M418.264,337.722L410.392,343.575L384.069,315.999L395.687,307.36L418.264,337.722Z" style="fill:rgb(158,97,106);fill-rule:nonzero;"/>
            <path d="M432.56,348.271L426.915,352.468L421.944,347.888L423.327,355.137L408.355,366.27C407.637,366.804 406.768,367.094 405.874,367.098C404.979,367.103 404.107,366.822 403.384,366.295C402.661,365.769 402.125,365.025 401.855,364.173C401.584,363.32 401.593,362.404 401.881,361.557L407.696,344.409L403.69,339.021L416.824,330.42L432.56,348.271Z" style="fill:rgb(47,46,65);fill-rule:nonzero;"/>
            <path d="M371.407,154.889C371.407,154.889 390.019,170.968 381.431,216.807L370.948,261.722L405.138,318.443L394.236,331.705L349.788,270.311L333.682,232.53L329.162,165.287L371.407,154.889Z" style="fill:rgb(47,46,65);fill-rule:nonzero;"/>
            <path d="M342.56,243.297L341.44,260.634L344.866,334.512L360.987,331.705L364.067,279.104L342.56,243.297Z" style="fill:rgb(47,46,65);fill-rule:nonzero;"/>
            <path d="M135.691,358.997L144.463,358.997L148.636,325.161L135.689,325.162L135.691,358.997Z" style="fill:rgb(255,182,182);fill-rule:nonzero;"/>
            <path d="M133.452,356.133L135.921,356.133L145.561,352.213L150.728,356.132L150.729,356.132C153.648,356.133 156.448,357.292 158.513,359.357C160.578,361.422 161.738,364.222 161.738,367.142L161.738,367.499L133.453,367.5L133.452,356.133Z" style="fill:rgb(47,46,65);fill-rule:nonzero;"/>
            <path d="M169.685,353.47L178.241,355.401L189.765,323.316L177.136,320.464L169.685,353.47Z" style="fill:rgb(255,182,182);fill-rule:nonzero;"/>
            <path d="M168.132,350.183L170.541,350.726L180.808,349.026L184.984,353.987L184.985,353.988C187.833,354.631 190.308,356.379 191.868,358.848C193.427,361.317 193.941,364.303 193.298,367.152L193.22,367.501L165.629,361.271L168.132,350.183Z" style="fill:rgb(47,46,65);fill-rule:nonzero;"/>
            <path d="M124.579,152.143C120.467,164.547 120.901,178.012 125.568,192.463L127.563,273.826C127.563,273.826 124.591,327.183 134.181,345.959L148.091,345.959L154.977,268.954L155.842,217.267L185.662,260.873L166.669,344.7L183.788,346.23L214.609,255.259L176.582,167.001L124.579,152.143Z" style="fill:rgb(47,46,65);fill-rule:nonzero;"/>
            <path d="M284.985,116.811C295.625,107.224 311.449,102.403 324.723,107.779C311.107,115.339 300.603,127.471 295.071,142.029C292.958,147.652 291.193,154.125 285.995,157.135C282.761,159.008 278.738,159.099 275.112,158.195C271.485,157.291 268.161,155.478 264.883,153.684L263.95,153.663C268.138,139.967 274.346,126.398 284.985,116.811Z" style="fill:rgb(193,95,60);fill-rule:nonzero;"/>
            <path d="M324.648,108.07C312.892,109.589 301.913,114.774 293.271,122.888C291.38,124.602 289.771,126.603 288.502,128.818C287.337,131.016 286.781,133.485 286.892,135.97C286.95,138.29 287.277,140.655 286.77,142.948C286.493,144.118 285.972,145.216 285.24,146.17C284.509,147.124 283.585,147.913 282.527,148.485C279.929,149.978 276.95,150.449 274.02,150.808C270.768,151.206 267.383,151.569 264.567,153.393C264.226,153.614 263.903,153.072 264.243,152.851C269.142,149.677 275.341,150.832 280.608,148.714C283.066,147.725 285.241,145.99 286.011,143.366C286.684,141.072 286.349,138.633 286.27,136.285C286.126,133.862 286.577,131.441 287.584,129.233C288.735,126.961 290.265,124.901 292.107,123.142C296.192,119.115 300.885,115.756 306.013,113.187C311.85,110.223 318.15,108.278 324.642,107.439C325.044,107.387 325.047,108.019 324.648,108.07Z" style="fill:white;fill-rule:nonzero;"/>
            <path d="M295.902,120.112C294.737,118.477 294.192,116.482 294.363,114.482C294.534,112.482 295.41,110.608 296.835,109.195C297.124,108.91 297.581,109.346 297.291,109.631C295.962,110.945 295.146,112.691 294.99,114.553C294.835,116.416 295.351,118.272 296.444,119.788C296.681,120.118 296.138,120.44 295.902,120.112Z" style="fill:white;fill-rule:nonzero;"/>
            <path d="M286.709,134.798C290.749,135.514 294.91,134.681 298.363,132.465C298.705,132.245 299.028,132.787 298.687,133.006C295.089,135.306 290.757,136.164 286.555,135.41C286.154,135.338 286.311,134.726 286.709,134.798Z" style="fill:white;fill-rule:nonzero;"/>
            <path d="M311.902,111.058C312.221,111.784 312.715,112.42 313.34,112.908C313.966,113.397 314.702,113.722 315.484,113.855C315.886,113.922 315.729,114.534 315.33,114.467C314.467,114.316 313.653,113.956 312.961,113.418C312.269,112.88 311.72,112.181 311.36,111.382C311.32,111.309 311.309,111.224 311.329,111.144C311.35,111.063 311.4,110.994 311.469,110.949C311.541,110.906 311.627,110.894 311.708,110.914C311.789,110.935 311.859,110.986 311.902,111.058Z" style="fill:white;fill-rule:nonzero;"/>
            <path d="M339.34,154.013C339.088,153.978 338.837,153.943 338.581,153.912C335.195,153.463 331.777,153.289 328.362,153.393C328.098,153.397 327.831,153.405 327.567,153.416C319.343,153.755 311.253,155.617 303.709,158.908C300.708,160.221 297.811,161.76 295.044,163.512C291.222,165.931 287.271,168.859 282.998,169.846C282.554,169.954 282.103,170.034 281.649,170.086L263.997,154.803C263.974,154.748 263.948,154.697 263.925,154.642L263.192,154.064C263.329,153.963 263.472,153.862 263.609,153.762C263.688,153.703 263.771,153.648 263.849,153.59C263.903,153.552 263.957,153.514 264.004,153.477C264.022,153.464 264.04,153.451 264.054,153.443C264.1,153.405 264.148,153.376 264.19,153.342C264.992,152.775 265.799,152.212 266.611,151.654C266.614,151.65 266.614,151.65 266.622,151.649C272.769,147.337 279.407,143.769 286.395,141.02C286.604,140.941 286.817,140.858 287.035,140.786C290.182,139.615 293.42,138.704 296.715,138.062C298.521,137.716 300.343,137.461 302.174,137.299C306.907,136.89 311.675,137.228 316.302,138.3C325.528,140.439 333.966,145.505 338.964,153.405C339.092,153.608 339.216,153.806 339.34,154.013Z" style="fill:rgb(193,95,60);fill-rule:nonzero;"/>
            <path d="M339.107,154.202C328.805,148.337 316.918,145.867 305.132,147.143C302.59,147.373 300.101,148.001 297.754,149.006C295.501,150.059 293.57,151.696 292.163,153.748C290.812,155.634 289.649,157.72 287.864,159.245C286.938,160.012 285.861,160.575 284.703,160.897C283.545,161.218 282.331,161.291 281.143,161.111C278.17,160.74 275.507,159.322 272.952,157.845C270.115,156.204 267.194,154.456 263.847,154.218C263.442,154.189 263.51,153.561 263.915,153.59C269.738,154.005 273.992,158.659 279.473,160.139C282.031,160.83 284.812,160.754 287.006,159.122C288.925,157.696 290.126,155.546 291.477,153.624C292.82,151.603 294.638,149.941 296.771,148.785C299.059,147.663 301.52,146.94 304.05,146.644C309.736,145.889 315.505,146.032 321.147,147.068C327.592,148.215 333.793,150.457 339.482,153.695C339.834,153.896 339.456,154.402 339.107,154.202Z" style="fill:white;fill-rule:nonzero;"/>
            <path d="M308.903,146.509C308.958,144.502 309.724,142.581 311.064,141.087C312.405,139.593 314.232,138.624 316.221,138.354C316.624,138.3 316.726,138.923 316.322,138.977C314.47,139.225 312.767,140.128 311.522,141.521C310.277,142.915 309.571,144.708 309.531,146.577C309.522,146.983 308.894,146.912 308.903,146.509Z" style="fill:white;fill-rule:nonzero;"/>
            <path d="M292.722,152.701C295.516,155.705 299.341,157.545 303.432,157.854C303.837,157.885 303.769,158.512 303.364,158.482C299.107,158.152 295.131,156.229 292.23,153.096C291.954,152.798 292.447,152.404 292.722,152.701Z" style="fill:white;fill-rule:nonzero;"/>
            <path d="M327.13,148.913C326.947,149.685 326.959,150.49 327.164,151.257C327.37,152.023 327.762,152.726 328.306,153.303C328.586,153.598 328.093,153.992 327.815,153.699C327.216,153.058 326.784,152.281 326.555,151.435C326.326,150.589 326.308,149.7 326.503,148.845C326.514,148.763 326.557,148.688 326.621,148.637C326.686,148.585 326.768,148.559 326.85,148.565C326.933,148.575 327.009,148.617 327.062,148.682C327.114,148.747 327.139,148.83 327.13,148.913Z" style="fill:white;fill-rule:nonzero;"/>
            <path d="M29.301,358.383C28.472,361.491 26.295,364.08 23.666,365.966C23.237,366.275 22.797,366.56 22.352,366.829C22.215,366.909 22.077,366.995 21.934,367.069C21.78,367.16 21.626,367.246 21.472,367.326L9.111,367.326C8.888,366.875 8.671,366.417 8.454,365.966C3.156,354.834 -0.564,342.822 0.07,330.587C0.322,325.841 1.319,321.165 3.025,316.729C6.419,307.889 12.614,300.237 21.134,296.385C21.346,296.288 21.569,296.191 21.786,296.099C21.717,296.345 21.649,296.585 21.58,296.831C20.666,300.124 20.02,303.486 19.649,306.883C19.614,307.146 19.586,307.409 19.563,307.677C18.751,315.87 19.472,324.143 21.689,332.073C21.694,332.09 21.7,332.113 21.706,332.13C22.192,333.884 22.756,335.612 23.397,337.313C23.9,338.656 24.443,339.982 25.038,341.285C27.518,346.754 30.843,352.582 29.301,358.383Z" style="fill:rgb(193,95,60);fill-rule:nonzero;"/>
            <path d="M21.94,296.357C21.82,296.517 21.7,296.671 21.58,296.831C19.07,300.157 16.939,303.753 15.226,307.552C15.134,307.74 15.048,307.929 14.974,308.123C12.626,313.427 11.119,319.065 10.505,324.833C10.499,324.872 10.495,324.912 10.494,324.953C10.351,326.301 10.265,327.661 10.231,329.021C10.104,331.571 10.38,334.124 11.048,336.587C11.658,338.599 12.726,340.442 14.168,341.971C14.311,342.125 14.454,342.279 14.608,342.428C14.723,342.548 14.848,342.668 14.968,342.782C16.123,343.885 17.386,344.908 18.471,346.091C18.969,346.621 19.418,347.195 19.814,347.805C20.446,348.828 20.854,349.973 21.012,351.165C21.169,352.356 21.073,353.568 20.729,354.72C19.951,357.611 18.174,360.052 16.357,362.377C15.448,363.543 14.511,364.72 13.7,365.966C13.402,366.412 13.128,366.863 12.877,367.326L12.157,367.326C12.397,366.863 12.66,366.412 12.945,365.966C15.031,362.68 17.997,359.857 19.534,356.24C20.574,353.8 20.889,351.034 19.574,348.64C19.189,347.943 18.723,347.295 18.186,346.708C17.14,345.525 15.888,344.514 14.751,343.445C14.465,343.176 14.185,342.902 13.917,342.616C12.493,341.17 11.394,339.436 10.694,337.53C9.901,335.11 9.526,332.573 9.585,330.027C9.585,328.404 9.671,326.77 9.831,325.147C9.848,324.941 9.871,324.73 9.894,324.518C11.062,314.305 14.944,304.592 21.134,296.385C21.249,296.225 21.369,296.071 21.489,295.917C21.734,295.597 22.186,296.042 21.94,296.357Z" style="fill:white;fill-rule:nonzero;"/>
            <path d="M10.124,325.201C8.145,324.868 6.348,323.843 5.055,322.308C3.762,320.773 3.056,318.828 3.065,316.821C3.066,316.74 3.098,316.661 3.156,316.603C3.214,316.545 3.292,316.512 3.373,316.51C3.455,316.508 3.535,316.538 3.595,316.594C3.655,316.649 3.691,316.726 3.696,316.808C3.685,318.677 4.342,320.488 5.549,321.915C6.756,323.342 8.434,324.29 10.279,324.589C10.68,324.654 10.523,325.266 10.124,325.201Z" style="fill:white;fill-rule:nonzero;"/>
            <path d="M14.009,342.085C17.372,339.735 19.725,336.203 20.6,332.194C20.686,331.797 21.298,331.952 21.212,332.349C20.294,336.519 17.837,340.189 14.333,342.627C13.998,342.859 13.677,342.316 14.009,342.085Z" style="fill:white;fill-rule:nonzero;"/>
            <path d="M15.036,307.485C15.775,307.773 16.574,307.873 17.362,307.776C18.149,307.679 18.9,307.388 19.547,306.929C19.878,306.693 20.2,307.237 19.871,307.471C19.153,307.975 18.324,308.295 17.454,308.404C16.584,308.513 15.701,308.408 14.882,308.097C14.802,308.074 14.734,308.021 14.692,307.95C14.649,307.879 14.635,307.794 14.653,307.713C14.674,307.632 14.726,307.563 14.798,307.52C14.869,307.477 14.955,307.465 15.036,307.485Z" style="fill:white;fill-rule:nonzero;"/>
            <path d="M64.812,318.455C64.612,318.609 64.406,318.764 64.206,318.924C61.493,321 58.953,323.293 56.611,325.781C56.428,325.97 56.245,326.164 56.068,326.358L56.063,326.364C50.51,332.391 46.12,339.393 43.113,347.017L43.096,347.068C43.09,347.085 43.085,347.097 43.079,347.114C41.887,350.165 40.926,353.302 40.205,356.497C39.508,359.617 38.936,362.96 37.844,365.966C37.679,366.429 37.496,366.886 37.302,367.326L11.895,367.326C11.98,366.875 12.072,366.418 12.163,365.966C13.456,359.345 15.476,352.886 18.186,346.708C18.278,346.502 18.369,346.297 18.472,346.091C19.871,343.038 21.517,340.105 23.392,337.319L23.393,337.317L23.394,337.315L23.398,337.313C24.428,335.793 25.534,334.326 26.712,332.919C29.769,329.282 33.379,326.15 37.41,323.638C37.433,323.621 37.462,323.61 37.484,323.592C45.508,318.615 55.017,316.243 64.109,318.295L64.115,318.295C64.349,318.346 64.577,318.398 64.812,318.455Z" style="fill:rgb(193,95,60);fill-rule:nonzero;"/>
            <path d="M64.782,318.758C64.588,318.809 64.394,318.866 64.205,318.923C60.2,320.068 56.334,321.653 52.679,323.649C52.496,323.747 52.313,323.849 52.13,323.952C47.078,326.772 42.492,330.355 38.535,334.576C38.532,334.579 38.53,334.583 38.529,334.587C38.484,334.633 38.432,334.684 38.392,334.73C37.478,335.713 36.598,336.736 35.764,337.787C34.132,339.748 32.816,341.952 31.866,344.319C31.14,346.292 30.884,348.407 31.117,350.497C31.135,350.708 31.163,350.914 31.192,351.125C31.215,351.291 31.238,351.457 31.266,351.628C31.643,353.92 32.295,356.217 32.112,358.554C32.001,359.752 31.637,360.912 31.045,361.959C30.453,363.006 29.646,363.916 28.677,364.629C28.019,365.138 27.315,365.586 26.574,365.966C25.516,366.512 24.413,366.967 23.277,367.326L21.031,367.326C21.334,367.24 21.631,367.155 21.934,367.069C23.009,366.766 24.064,366.397 25.094,365.966C25.683,365.72 26.255,365.437 26.809,365.12C29.106,363.8 31.02,361.777 31.42,359.074C31.769,356.708 31.095,354.343 30.695,352.028C30.626,351.628 30.563,351.234 30.529,350.839C30.256,348.835 30.422,346.796 31.015,344.862C31.837,342.45 33.066,340.196 34.649,338.199C35.628,336.898 36.674,335.649 37.781,334.456C37.918,334.301 38.061,334.147 38.209,333.993C42.25,329.742 46.915,326.133 52.044,323.289L52.05,323.289C55.864,321.166 59.91,319.49 64.108,318.295L64.114,318.295C64.302,318.238 64.496,318.181 64.685,318.129C65.079,318.026 65.171,318.649 64.782,318.758Z" style="fill:white;fill-rule:nonzero;"/>
            <path d="M37.983,334.673C36.603,333.215 35.786,331.315 35.677,329.311C35.569,327.307 36.176,325.329 37.391,323.732C37.638,323.409 38.151,323.778 37.904,324.101C36.77,325.586 36.204,327.428 36.309,329.294C36.413,331.161 37.182,332.928 38.475,334.277C38.756,334.57 38.263,334.964 37.983,334.673Z" style="fill:white;fill-rule:nonzero;"/>
            <path d="M30.92,350.493C35.021,350.641 39.026,349.238 42.138,346.564C42.446,346.299 42.841,346.791 42.533,347.056C39.29,349.832 35.119,351.284 30.852,351.121C30.446,351.105 30.516,350.477 30.92,350.493Z" style="fill:white;fill-rule:nonzero;"/>
            <path d="M52.572,323.485C52.989,324.16 53.566,324.721 54.253,325.117C54.94,325.514 55.715,325.734 56.508,325.757C56.915,325.768 56.844,326.395 56.44,326.385C55.564,326.355 54.709,326.111 53.949,325.674C53.189,325.238 52.547,324.622 52.08,323.88C52.03,323.814 52.008,323.731 52.017,323.649C52.026,323.566 52.065,323.491 52.128,323.437C52.194,323.384 52.277,323.36 52.36,323.369C52.443,323.378 52.519,323.42 52.572,323.485Z" style="fill:white;fill-rule:nonzero;"/>
            <path d="M260.804,98.937C260.218,99.708 259.469,100.342 258.611,100.792C257.754,101.243 256.807,101.501 255.839,101.546C254.871,101.592 253.905,101.425 253.009,101.057C252.112,100.688 251.308,100.128 250.651,99.415L229.05,108.81L231.154,96.751L251.344,89.679C252.615,88.655 254.217,88.133 255.847,88.212C257.476,88.291 259.02,88.965 260.186,90.106C261.352,91.247 262.059,92.776 262.173,94.404C262.287,96.031 261.8,97.644 260.804,98.937Z" style="fill:rgb(255,184,184);fill-rule:nonzero;"/>
            <path d="M246.389,102.702L196.216,125.051L196.109,125.012L138.925,104.634C134.665,102.408 131.418,98.638 129.847,94.096C128.277,89.554 128.502,84.583 130.477,80.201C131.572,77.781 133.167,75.619 135.158,73.859C137.148,72.099 139.488,70.781 142.025,69.99C144.562,69.2 147.237,68.956 149.875,69.275C152.512,69.593 155.053,70.466 157.329,71.837L199.884,97.472L241.15,92.124L246.389,102.702Z" style="fill:rgb(193,95,60);fill-rule:nonzero;"/>
            <path d="M493,367.789C493,367.878 492.982,367.967 492.948,368.049C492.914,368.132 492.864,368.207 492.801,368.27C492.738,368.334 492.663,368.384 492.58,368.418C492.497,368.452 492.409,368.469 492.319,368.469L0.699,368.469C0.518,368.469 0.345,368.397 0.218,368.27C0.09,368.142 0.019,367.969 0.019,367.789C0.019,367.609 0.09,367.436 0.218,367.308C0.345,367.181 0.518,367.109 0.699,367.109L492.319,367.109C492.409,367.109 492.497,367.126 492.58,367.16C492.663,367.194 492.738,367.244 492.801,367.307C492.864,367.371 492.914,367.446 492.948,367.528C492.982,367.611 493,367.7 493,367.789Z" style="fill:rgb(23,32,52);fill-rule:nonzero;"/>
            <path d="M179.063,169.607L128.486,161.517C127.159,161.092 125.94,160.385 124.913,159.445C123.885,158.505 123.073,157.353 122.533,156.069C121.992,154.786 121.736,153.4 121.782,152.008C121.827,150.616 122.173,149.25 122.796,148.004L125.09,143.416L124.199,95.216C124.092,88.946 125.637,82.758 128.681,77.276C131.724,71.793 136.157,67.209 141.535,63.983L146.467,61.034L148.96,54.704L171.944,55.265L172.011,63.567L180.242,76.692L180.242,76.747L179.726,148.187L177.457,155.559L180.887,164.135L179.063,169.607Z" style="fill:rgb(193,95,60);fill-rule:nonzero;"/>
            <path d="M162.557,46.833C174.091,46.833 183.441,37.483 183.441,25.95C183.441,14.416 174.091,5.066 162.557,5.066C151.024,5.066 141.674,14.416 141.674,25.95C141.674,37.483 151.024,46.833 162.557,46.833Z" style="fill:rgb(255,184,184);fill-rule:nonzero;"/>
            <path d="M140.811,30.503C140.188,27.879 140.474,24.186 140.826,21.544C141.749,14.617 145.595,8.032 151.44,4.131C152.548,3.29 153.865,2.766 155.248,2.618C156.631,2.56 158.13,3.3 158.554,4.617C158.902,3.748 159.425,2.959 160.09,2.3C160.755,1.64 161.548,1.124 162.42,0.783C164.172,0.112 166.057,-0.142 167.924,0.042C171.543,0.34 175.014,1.613 177.968,3.725C180.922,5.836 183.25,8.709 184.704,12.037C185.261,13.362 186.819,8.467 187.526,9.719C188.176,11.021 189.309,12.016 190.683,12.493C192.068,12.879 192.63,18.585 193.175,17.254C193.598,18.237 193.765,19.312 193.661,20.377C193.557,21.442 193.185,22.464 192.579,23.346C191.974,24.229 191.155,24.944 190.199,25.425C189.243,25.906 188.181,26.138 187.112,26.098C185.702,26.045 184.354,25.526 182.962,25.303C177.981,24.505 172.698,28.117 171.633,33.047C171.252,31.621 170.643,30.266 169.83,29.035C169.417,28.422 168.864,27.917 168.217,27.561C167.569,27.206 166.846,27.01 166.108,26.99C164.691,27.043 163.446,27.969 162.526,29.049C161.607,30.128 160.916,31.388 159.99,32.461C157.273,35.612 153.597,42.959 149.724,42.423C146.668,42 141.661,34.085 140.811,30.503Z" style="fill:rgb(47,46,65);fill-rule:nonzero;"/>
            <path d="M288.795,122.601C288.942,121.649 288.746,120.676 288.243,119.855C287.74,119.033 286.963,118.416 286.048,118.113L229.809,99.382C229.27,99.202 228.699,99.136 228.133,99.19L214.037,100.523L205.949,101.29L191.023,102.701C190.122,102.787 189.275,103.17 188.614,103.789C187.954,104.409 187.518,105.23 187.375,106.124L179.797,153.462C179.653,154.385 179.829,155.33 180.295,156.14C180.761,156.95 181.489,157.577 182.359,157.917L239.186,179.852C239.452,179.956 239.729,180.03 240.012,180.074C240.424,180.141 240.843,180.144 241.255,180.083L277.975,174.641C278.841,174.516 279.643,174.115 280.263,173.497C280.883,172.879 281.288,172.078 281.417,171.213L288.795,122.601Z" style="fill-rule:nonzero;"/>
            <path d="M183.648,154.582L240.473,176.516C240.556,176.548 240.646,176.559 240.735,176.546L277.449,171.105C277.558,171.09 277.659,171.04 277.737,170.962C277.815,170.885 277.865,170.784 277.881,170.675L285.264,122.063C285.281,121.944 285.256,121.823 285.193,121.721C285.131,121.619 285.034,121.541 284.921,121.502L284.543,121.374L228.679,102.775C228.653,102.766 228.627,102.76 228.6,102.756C228.557,102.748 228.513,102.746 228.469,102.75L194.087,106.003L191.359,106.259C191.247,106.271 191.142,106.319 191.06,106.396C190.978,106.473 190.923,106.575 190.905,106.686L183.328,154.023C183.309,154.138 183.331,154.257 183.389,154.359C183.447,154.46 183.538,154.539 183.648,154.582Z" style="fill:rgb(232,166,142);fill-rule:nonzero;"/>
            <path d="M194.087,106.003L228.468,102.75C228.512,102.746 228.556,102.748 228.6,102.756C228.627,102.76 228.653,102.766 228.678,102.775L284.543,121.374L269.807,122.934L264.292,123.515L248.599,125.173C248.554,125.175 248.508,125.175 248.462,125.171C248.434,125.163 248.406,125.154 248.372,125.145L194.087,106.003Z" style="fill:rgb(47,46,65);fill-rule:nonzero;"/>
            <path d="M182.359,157.92L239.185,179.854C239.452,179.957 239.73,180.03 240.013,180.071C240.425,180.139 240.845,180.144 241.258,180.087L277.972,174.645C278.839,174.519 279.642,174.117 280.262,173.499C280.882,172.881 281.287,172.08 281.417,171.214L288.795,122.601C288.904,121.885 288.821,121.152 288.556,120.477C288.518,120.388 288.481,120.298 288.437,120.213C288.145,119.598 287.699,119.067 287.144,118.672C286.809,118.432 286.44,118.243 286.049,118.114L285.982,118.09L229.812,99.382C229.583,99.309 229.349,99.252 229.111,99.212C228.787,99.166 228.457,99.159 228.131,99.193L214.037,100.521L205.95,101.293L191.022,102.702C190.411,102.759 189.821,102.954 189.297,103.272C189.256,103.292 189.217,103.315 189.181,103.341C189.155,103.358 189.13,103.377 189.107,103.397C188.649,103.71 188.259,104.113 187.962,104.581C187.664,105.049 187.465,105.572 187.377,106.12L179.794,153.461C179.65,154.385 179.826,155.331 180.293,156.141C180.759,156.952 181.488,157.579 182.359,157.92ZM188.383,106.285C188.475,105.717 188.727,105.188 189.109,104.758C189.224,104.62 189.354,104.494 189.495,104.382C189.88,104.07 190.336,103.857 190.823,103.762C190.919,103.742 191.016,103.729 191.114,103.721L216.249,101.347L228.23,100.207C228.311,100.197 228.385,100.199 228.46,100.194C228.642,100.19 228.823,100.204 229.002,100.234C229.166,100.256 229.328,100.294 229.485,100.349L285.721,119.081C285.765,119.097 285.804,119.112 285.849,119.128C286.36,119.318 286.809,119.645 287.148,120.073C287.415,120.4 287.61,120.781 287.721,121.189C287.831,121.597 287.854,122.024 287.788,122.442L280.404,171.06C280.308,171.708 280.005,172.308 279.541,172.771C279.077,173.235 278.476,173.536 277.828,173.632L241.108,179.073C240.582,179.149 240.046,179.088 239.552,178.896L182.725,156.968C182.074,156.711 181.529,156.241 181.18,155.634C180.831,155.026 180.699,154.319 180.805,153.627L188.383,106.285Z" style="fill:rgb(63,61,86);fill-rule:nonzero;"/>
            <path d="M188.984,103.656C189.014,103.569 189.067,103.493 189.138,103.435C189.161,103.416 189.185,103.399 189.211,103.385C189.235,103.375 189.259,103.36 189.283,103.351C189.397,103.305 189.524,103.303 189.64,103.345L190.823,103.762L248.606,124.146L262.13,122.717L269.698,121.919L285.715,120.223L287.148,120.073L287.426,120.042C287.546,120.031 287.666,120.063 287.766,120.131C287.865,120.199 287.937,120.3 287.97,120.416C287.978,120.442 287.983,120.47 287.985,120.497C287.997,120.608 287.973,120.718 287.916,120.813C287.859,120.908 287.773,120.982 287.671,121.024C287.626,121.043 287.578,121.056 287.53,121.062L285.581,121.267L269.807,122.934L264.293,123.515L248.6,125.173C248.554,125.175 248.508,125.175 248.462,125.171C248.434,125.163 248.407,125.154 248.373,125.146L189.495,104.382L189.295,104.311C189.249,104.296 189.207,104.272 189.17,104.242C189.08,104.176 189.014,104.084 188.981,103.979C188.948,103.874 188.949,103.76 188.984,103.656Z" style="fill:rgb(63,61,86);fill-rule:nonzero;"/>
            <path d="M240.167,180.22C240.034,180.199 239.915,180.126 239.836,180.017C239.756,179.908 239.723,179.773 239.743,179.639L248.039,124.588C248.059,124.454 248.132,124.334 248.241,124.254C248.35,124.173 248.486,124.139 248.62,124.159L248.625,124.16C248.758,124.182 248.877,124.254 248.956,124.363C249.036,124.472 249.069,124.608 249.049,124.741L240.753,179.792C240.733,179.926 240.66,180.046 240.551,180.127C240.442,180.207 240.306,180.241 240.172,180.221L240.167,180.22Z" style="fill:rgb(63,61,86);fill-rule:nonzero;"/>
            <path d="M261.196,176.728L255.679,177.31L262.132,122.716C262.132,122.716 269.501,121.381 269.698,121.916C269.82,122.236 261.249,176.377 261.196,176.728Z" style="fill:rgb(63,61,86);fill-rule:nonzero;"/>
            <path d="M189.296,104.31L189.147,129.207L233.222,146.001L249.05,124.74L189.296,104.31Z" style="fill:rgb(63,61,86);fill-rule:nonzero;"/>
            <path d="M287.149,120.074C286.78,119.611 286.284,119.266 285.722,119.081L229.487,100.35C229.329,100.297 229.167,100.258 229.002,100.232C228.823,100.201 228.641,100.188 228.459,100.192L228.55,99.622L229.113,99.214L242.467,89.546L287.064,103.213L287.142,118.672L287.149,120.074Z" style="fill:rgb(63,61,86);fill-rule:nonzero;"/>
            <path d="M191.542,144.278C191.605,144.284 191.667,144.297 191.728,144.317L208.982,149.984C209.198,150.055 209.377,150.209 209.48,150.412C209.583,150.614 209.6,150.85 209.53,151.066C209.459,151.282 209.305,151.461 209.102,151.563C208.899,151.666 208.664,151.684 208.448,151.613L191.193,145.946C190.993,145.88 190.824,145.743 190.718,145.56C190.613,145.378 190.579,145.162 190.622,144.956C190.665,144.75 190.782,144.566 190.952,144.441C191.122,144.316 191.332,144.258 191.542,144.278Z" style="fill:white;fill-rule:nonzero;"/>
            <path d="M261.159,248.72C264.947,248.72 268.017,245.649 268.017,241.862C268.017,238.075 264.947,235.005 261.159,235.005C257.372,235.005 254.302,238.075 254.302,241.862C254.302,245.649 257.372,248.72 261.159,248.72Z" style="fill:rgb(23,32,52);fill-rule:nonzero;"/>
            <path d="M86.292,273.864C90.079,273.864 93.15,270.793 93.15,267.006C93.15,263.219 90.079,260.149 86.292,260.149C82.505,260.149 79.435,263.219 79.435,267.006C79.435,270.793 82.505,273.864 86.292,273.864Z" style="fill:rgb(23,32,52);fill-rule:nonzero;"/>
            <path d="M229.157,46.995C232.945,46.995 236.015,43.924 236.015,40.137C236.015,36.35 232.945,33.279 229.157,33.279C225.37,33.279 222.3,36.35 222.3,40.137C222.3,43.924 225.37,46.995 229.157,46.995Z" style="fill:rgb(23,32,52);fill-rule:nonzero;"/>
            <path d="M240.408,154.363C239.519,154.749 238.556,154.936 237.588,154.91C236.619,154.884 235.668,154.645 234.801,154.212C233.934,153.778 233.173,153.16 232.572,152.401C231.97,151.641 231.542,150.759 231.318,149.816L207.881,147.448L215.613,137.958L236.683,141.662C238.292,141.391 239.945,141.719 241.328,142.584C242.711,143.45 243.728,144.793 244.187,146.358C244.646,147.924 244.515,149.604 243.819,151.079C243.122,152.554 241.908,153.723 240.408,154.363Z" style="fill:rgb(255,184,184);fill-rule:nonzero;"/>
            <path d="M225.993,150.599L171.3,145.559L171.225,145.473L131.308,99.736C128.681,95.711 127.692,90.834 128.543,86.104C129.394,81.374 132.022,77.148 135.887,74.292C138.026,72.716 140.474,71.61 143.071,71.048C145.667,70.487 148.354,70.481 150.953,71.032C153.552,71.583 156.005,72.679 158.15,74.246C160.295,75.814 162.084,77.817 163.399,80.126L187.985,123.297L226.596,138.81L225.993,150.599Z" style="fill:rgb(193,95,60);fill-rule:nonzero;"/>
            <path d="M363.271,62.641C361.913,52.679 360.209,41.982 353.183,34.79C350.953,32.508 348.284,30.701 345.338,29.479C342.391,28.256 339.227,27.643 336.037,27.676C332.846,27.709 329.696,28.387 326.775,29.671C323.854,30.954 321.223,32.816 319.041,35.144C313.926,40.6 311.668,48.263 311.461,55.739C311.254,63.215 312.919,70.609 314.766,77.856C324.542,78.052 334.245,76.142 343.217,72.257C345.461,71.283 347.668,70.182 350.038,69.578C352.409,68.975 354.098,70.493 356.303,71.552L357.514,69.234C358.504,71.078 361.572,70.532 362.685,68.759C363.798,66.986 363.554,64.715 363.271,62.641Z" style="fill:rgb(47,46,65);fill-rule:nonzero;"/>
            <path d="M324.522,118.249L284.591,119.103C283.978,118.043 283.07,117.184 281.977,116.631C280.885,116.078 279.655,115.854 278.438,115.987C277.221,116.119 276.068,116.603 275.121,117.379C274.173,118.155 273.472,119.189 273.101,120.357C272.731,121.524 272.708,122.774 273.035,123.954C273.362,125.134 274.025,126.193 274.944,127.004C275.862,127.814 276.996,128.34 278.207,128.517C279.419,128.695 280.656,128.516 281.768,128.003C287.064,128.304 328.498,134.185 330.969,130.395C333.478,126.549 346.87,112.973 346.87,112.973L336.576,98.319L324.522,118.249Z" style="fill:rgb(158,97,106);fill-rule:nonzero;"/>
            <path d="M334.253,72.499C344.615,72.499 353.014,64.099 353.014,53.737C353.014,43.376 344.615,34.976 334.253,34.976C323.892,34.976 315.492,43.376 315.492,53.737C315.492,64.099 323.892,72.499 334.253,72.499Z" style="fill:rgb(158,97,106);fill-rule:nonzero;"/>
            <path d="M364.302,89.835C362.091,85.435 361.017,79.999 356.304,78.573C353.121,77.61 340.247,79.053 337.346,80.679C332.521,83.384 336.894,88.453 334.047,93.195C330.953,98.352 322.543,108.699 319.448,113.855C317.321,117.4 324.487,127.804 323.336,131.775C322.186,135.746 322.131,140.202 324.09,143.843C325.844,147.101 323.307,149.983 325.07,153.236C326.905,156.618 329.156,169.267 327.448,172.716L326.306,176.144C337.647,176.811 347.184,163.261 358.455,161.834C361.254,161.479 364.161,161.016 366.468,159.391C369.866,156.998 371.21,152.654 372.049,148.583C376.09,128.685 373.363,108.006 364.302,89.835Z" style="fill:rgb(63,61,86);fill-rule:nonzero;"/>
            <path d="M381.306,136.296C379.727,131.984 376.867,113.131 376.867,113.131L358.966,112.606L367.718,134.191L343.836,167.623C343.836,167.623 343.881,167.697 343.961,167.828C342.705,167.626 341.418,167.809 340.268,168.351C339.118,168.893 338.158,169.77 337.514,170.866C336.87,171.963 336.572,173.228 336.659,174.497C336.747,175.766 337.215,176.978 338.003,177.977C338.79,178.975 339.861,179.712 341.075,180.092C342.289,180.471 343.589,180.476 344.805,180.104C346.021,179.733 347.097,179.003 347.891,178.01C348.686,177.017 349.162,175.808 349.258,174.54C349.346,174.59 349.449,174.608 349.549,174.591C349.649,174.574 349.74,174.522 349.806,174.446C352.463,171.111 382.886,140.608 381.306,136.296Z" style="fill:rgb(158,97,106);fill-rule:nonzero;"/>
            <path d="M383.126,124.39C381.483,117.455 379.828,110.483 377.058,103.917C374.288,97.351 370.322,91.149 364.745,86.713C362.962,85.295 360.968,84.043 358.733,83.602C356.497,83.161 353.978,83.654 352.408,85.306C349.896,87.948 350.652,92.189 351.573,95.716C354.29,106.117 357.007,116.518 359.724,126.919C367.57,126.087 375.416,125.256 383.261,124.424L383.126,124.39Z" style="fill:rgb(63,61,86);fill-rule:nonzero;"/>
            <path d="M357.242,56.34C356.551,51.801 355.83,47.224 354.206,42.951C352.583,38.678 349.967,34.675 346.214,32.254C340.271,28.421 332.577,29.16 325.915,31.365C320.763,33.07 315.733,35.662 312.1,39.828C308.466,43.994 306.425,49.939 307.777,55.387C314.884,53.708 321.991,52.029 329.097,50.35L328.319,50.899C330.653,52.063 332.691,53.743 334.278,55.812C335.865,57.88 336.96,60.284 337.48,62.839C337.989,65.425 337.916,68.092 337.267,70.647C336.618,73.201 335.409,75.579 333.728,77.61C338.575,75.89 343.422,74.171 348.269,72.451C351.261,71.39 354.463,70.167 356.237,67.445C358.294,64.289 357.816,60.106 357.242,56.34Z" style="fill:rgb(47,46,65);fill-rule:nonzero;"/>
        </g>
    </g>
</svg>
