<?xml version="1.0" encoding="UTF-8"?>
<svg id="Layer_1" xmlns="http://www.w3.org/2000/svg" xmlns:xlink="http://www.w3.org/1999/xlink" viewBox="0 0 595.28 267.57">
  <defs>
    <style>
      .cls-1 {
        fill: #fff;
        font-family: Aller-Regular, Aller;
        font-size: 113.75px;
      }

      .cls-2 {
        fill: none;
      }

      .cls-3 {
        fill: url(#linear-gradient);
      }
    </style>
    <linearGradient id="linear-gradient" x1="111.91" y1="249.07" x2="111.91" y2="24.51" gradientUnits="userSpaceOnUse">
      <stop offset="0" stop-color="#ea686d"/>
      <stop offset="1" stop-color="#6f4d9f"/>
    </linearGradient>
  </defs>
  <rect class="cls-2" width="595.28" height="267.57"/>
  <path class="cls-3" d="M154.81,25.35c-21.47-3.54-38.39,3.77-42.42,26.56-.33,1.88-1.13,3.66-1.67,5.51-10.57,36.32-34.37,115.8-34.99,117.85-4.79,16.03-9.54,32.08-14.26,48.13-1.64,5.57-4.25,10.2-10.55,11.31-4.74.83-9.35.8-12.78-3.41-4.69-5.75-3.86-11.9-1.8-18.46,5.32-16.96,10.98-33.83,14.84-51.21,5.02-15.93,10.16-31.82,15.02-47.8,7.65-25.17,15.07-50.41,22.69-75.59,1.55-5.11,1.4-9.73-4.39-11.33-5.53-1.53-7.72,2.84-9.13,7.24-1.42,4.43-2.61,8.94-3.9,13.41-10.73,37.1-21.46,74.2-32.19,111.3-5.64,18.83-11.66,37.55-16.81,56.51-3.93,14.46,4.05,28.12,17.85,32.45,13.25,4.16,27.81-2.24,32.49-16.27,7.69-23.05,15.05-46.25,20.64-69.94,1.39-4.15,2.89-8.27,4.14-12.46,9.83-32.84,19.69-65.66,29.33-98.55,1.97-6.72,5.35-11.8,12.65-12.1,27.78-1.14,51.21,9.01,48.31,44.56-1.8,22.06-10.55,41.29-25.3,57.7-6.79,7.56-14.12,14.64-23.64,18.82-6.82,3-12.66,1.24-16.3-5.04-3.52-6.08-2.77-12.29,2.84-17.06,2.25-1.91,5.16-3.04,7.74-4.57,18.04-10.67,28.37-26.4,29.75-47.33.84-12.73-8.08-21.21-20.81-21.18-4.77,0-9.3.82-9.57,6.53-.25,5.34,3.79,6.74,8.4,6.63,6.54-.15,8.88,3.4,8.18,9.4-1.85,15.85-9.55,27.75-24.02,34.92-16.26,8.05-22.34,24.55-14.23,38.84,7.77,13.69,25.3,16.98,40.11,6.94,27.17-18.43,44.35-43.69,49.95-76.24,6.34-36.86-9.85-60.08-46.18-66.07Z"/>
  <text class="cls-1" transform="translate(204.93 232)"><tspan x="0" y="0">Publica</tspan></text>
</svg>