<?xml version="1.0" encoding="UTF-8" standalone="no"?>
<!DOCTYPE svg PUBLIC "-//W3C//DTD SVG 1.1//EN" "http://www.w3.org/Graphics/SVG/1.1/DTD/svg11.dtd">
<svg width="100%" height="100%" viewBox="0 0 266 300" version="1.1" xmlns="http://www.w3.org/2000/svg" xmlns:xlink="http://www.w3.org/1999/xlink" xml:space="preserve" xmlns:serif="http://www.serif.com/" style="fill-rule:evenodd;clip-rule:evenodd;stroke-linejoin:round;stroke-miterlimit:2;">
    <g>
        <clipPath id="_clip1">
            <rect x="0.833" y="0" width="264.335" height="300"/>
        </clipPath>
        <g clip-path="url(#_clip1)">
            <path d="M170.775,222.111C171.368,222.428 172.045,222.555 172.713,222.474C173.38,222.394 174.008,222.111 174.509,221.662C175.01,221.214 175.361,220.622 175.515,219.967C175.669,219.312 175.617,218.626 175.368,218.001C175.435,217.669 175.483,217.43 175.55,217.098C176.833,215.9 178.445,215.112 180.179,214.837C181.912,214.561 183.689,214.809 185.281,215.549C186.873,216.29 188.207,217.489 189.113,218.992C190.019,220.496 190.455,222.236 190.366,223.989C189.959,233.877 190.448,244.547 183.876,252.518C213.871,228.007 227.548,186.252 218.388,148.696C213.893,142.433 211.796,134.113 213.812,126.573C216.341,129.033 221.272,128.372 220.519,124.114C220.114,122.43 219.696,120.752 219.292,119.069C236.568,112.328 241.079,138.016 220.614,148.475C222.274,155.615 223.183,162.909 223.327,170.238C225.637,163.629 229.483,157.664 234.549,152.832C239.453,148.416 245.939,145.819 251.972,142.856C259.313,139.242 267.461,146.408 264.571,154.058C259.683,153.433 256.225,159.274 260.66,162.413C252.871,175.495 237.935,183.81 222.76,183.942C221.226,198.868 216.527,213.297 208.978,226.265C218.672,211.524 237.432,215.768 252.258,215.14C253.242,215.016 254.241,215.181 255.132,215.615C256.024,216.049 256.77,216.733 257.279,217.583C257.789,218.434 258.04,219.414 258.002,220.405C257.963,221.396 257.638,222.354 257.064,223.163C255.114,223.048 253.157,223.128 251.222,223.4C250.312,223.535 249.466,223.948 248.8,224.583C248.134,225.217 247.681,226.042 247.502,226.944C247.323,227.847 247.428,228.782 247.801,229.623C248.175,230.463 248.8,231.168 249.59,231.639C236.584,243.562 216.431,246.125 200.614,238.517C195.938,244.408 190.662,249.796 184.871,254.596L161.356,243.387C161.397,243.085 161.449,242.779 161.498,242.482C163.609,243.656 165.857,244.568 168.19,245.196C165.681,235.633 162.886,230.031 170.774,222.111L170.775,222.111Z" style="fill:rgb(23,32,52);fill-rule:nonzero;"/>
            <path d="M129.224,199.488C128.794,200.006 128.215,200.379 127.567,200.556C126.918,200.734 126.23,200.708 125.597,200.481C124.963,200.255 124.415,199.839 124.025,199.291C123.636,198.742 123.425,198.087 123.42,197.415C123.233,197.132 123.098,196.929 122.911,196.647C121.271,196.021 119.481,195.9 117.771,196.299C116.061,196.697 114.51,197.597 113.315,198.883C112.12,200.169 111.336,201.783 111.064,203.517C110.793,205.252 111.045,207.028 111.789,208.618C115.895,217.622 119.467,227.688 128.561,232.591C91.535,221.205 63.119,187.693 57.436,149.457C59.236,141.961 58.04,133.464 53.329,127.242C51.914,130.474 47.099,131.722 46.19,127.494C45.93,125.782 45.684,124.071 45.423,122.359C26.881,122.633 32.393,148.125 55.291,150.092C56.447,157.33 58.356,164.428 60.987,171.27C56.355,166.021 50.543,161.947 44.029,159.383C37.821,157.143 30.835,157.184 24.13,156.716C15.967,156.138 11.125,165.848 16.687,171.842C20.977,169.42 26.384,173.526 23.46,178.106C35.609,187.283 52.577,189.35 66.681,183.748C73.733,196.993 83.527,208.583 95.41,217.746C80.872,207.751 65.098,218.758 51.13,223.769C50.172,224.025 49.31,224.554 48.648,225.292C47.986,226.03 47.553,226.945 47.402,227.925C47.251,228.905 47.388,229.908 47.797,230.811C48.206,231.714 48.869,232.478 49.706,233.011C51.469,232.17 53.311,231.505 55.206,231.028C56.099,230.809 57.038,230.873 57.895,231.209C58.751,231.545 59.482,232.138 59.988,232.907C60.494,233.675 60.75,234.581 60.721,235.5C60.692,236.42 60.379,237.308 59.825,238.042C76.368,244.179 95.999,238.951 107.778,225.938C114.33,229.63 121.249,232.63 128.422,234.891L145.972,215.64C145.821,215.376 145.657,215.113 145.5,214.856C143.987,216.74 142.25,218.431 140.326,219.893C139.042,210.09 139.518,203.848 129.224,199.488Z" style="fill:rgb(23,32,52);fill-rule:nonzero;"/>
            <path d="M133.74,118.143C134.409,118.075 135.042,117.803 135.551,117.364C136.061,116.925 136.423,116.34 136.589,115.688C136.755,115.037 136.717,114.35 136.48,113.72C136.242,113.091 135.817,112.55 135.262,112.17C135.132,111.857 135.038,111.632 134.909,111.319C135.306,109.609 136.205,108.057 137.491,106.861C138.776,105.665 140.389,104.881 142.124,104.608C143.858,104.335 145.634,104.586 147.224,105.33C148.815,106.073 150.147,107.274 151.051,108.779C156.226,117.214 162.581,125.799 161.569,136.081C172.804,99.009 160.876,56.721 132.333,30.652C125.11,27.959 118.73,22.221 116.2,14.838C119.671,15.47 123.396,12.172 120.396,9.057C119.122,7.885 117.839,6.725 116.565,5.553C127.148,-9.676 145.215,9.134 134.058,29.227C139.417,34.228 144.239,39.776 148.444,45.781C146.677,39.006 146.544,31.91 148.055,25.074C149.664,18.674 153.6,12.902 156.957,7.079C161.036,-0.015 171.795,1.391 173.661,9.353C169.255,11.559 169.641,18.336 175.073,18.47C175.901,33.672 168.138,48.902 155.614,57.472C162.663,70.719 166.807,85.317 167.77,100.291C167.599,82.649 185.539,75.713 197.497,66.925C198.244,66.274 199.165,65.854 200.147,65.717C201.129,65.58 202.129,65.732 203.027,66.154C203.924,66.576 204.679,67.25 205.2,68.093C205.72,68.937 205.984,69.914 205.959,70.905C204.276,71.898 202.696,73.055 201.242,74.36C200.561,74.979 200.089,75.793 199.89,76.692C199.691,77.59 199.775,78.527 200.129,79.376C200.484,80.225 201.092,80.943 201.871,81.433C202.65,81.922 203.562,82.159 204.48,82.11C200.331,99.259 185.03,112.623 167.658,115.126C167.06,122.623 165.685,130.038 163.554,137.251L137.784,141.056C137.649,140.784 137.522,140.5 137.397,140.226C139.804,140.024 142.178,139.528 144.465,138.748C137.051,132.208 131.607,129.117 133.739,118.143L133.74,118.143Z" style="fill:rgb(23,32,52);fill-rule:nonzero;"/>
            <path d="M159.659,109.879C147.927,109.879 141.563,108.446 139.341,105.385C137.38,102.685 138.695,99.123 140.217,94.997C141.311,92.032 142.551,88.672 142.551,85.346C142.551,69.168 150.754,60.966 166.931,60.966C174.98,60.966 183.622,65.242 190.049,72.403C195.891,78.914 198.802,86.707 198.034,93.782C197.405,99.585 194.704,103.402 189.534,105.793L189.232,105.933L189.146,105.611C188.699,103.945 187.944,102.379 186.918,100.992C186.819,103.169 186.27,105.301 185.307,107.255L185.252,107.366L185.133,107.4C179.282,109.067 172.338,109.518 166.941,109.725C164.315,109.827 161.888,109.879 159.659,109.879Z" style="fill:rgb(47,46,65);fill-rule:nonzero;"/>
            <path d="M162.857,132.419C162.407,131.097 161.649,129.902 160.644,128.932C159.64,127.962 158.419,127.245 157.083,126.842C155.746,126.438 154.332,126.359 152.959,126.611C151.586,126.863 150.292,127.439 149.186,128.291L110.595,151.364L98.519,121.899C99.54,120.402 100.06,118.621 100.005,116.811C99.95,115.001 99.323,113.254 98.215,111.822C97.106,110.39 95.572,109.346 93.833,108.839C92.094,108.332 90.24,108.39 88.535,109.002C86.831,109.615 85.365,110.752 84.346,112.249C83.328,113.747 82.81,115.529 82.867,117.339C82.923,119.149 83.552,120.895 84.662,122.326C85.773,123.757 87.308,124.799 89.047,125.304C89.791,133.801 93.928,171.777 108.317,170.397C120.412,169.237 150.45,149.232 159.779,142.296C161.272,141.188 162.374,139.634 162.927,137.859C163.48,136.084 163.456,134.179 162.857,132.419Z" style="fill:rgb(255,182,182);fill-rule:nonzero;"/>
            <path d="M191.938,300L158.35,300L152.718,272.151L150.89,300L119.69,300C119.702,278.13 120.841,256.275 123.103,234.522L123.49,233.205L124.101,231.098L124.487,229.775L130.944,207.603L131.454,205.844L170.333,205.844C172.57,207.945 174.634,210.224 176.503,212.659C177.137,213.466 177.798,214.34 178.476,215.282C178.947,215.948 179.434,216.649 179.922,217.383C184.254,223.833 187.492,230.953 189.506,238.456L189.506,238.462C189.848,239.745 190.15,241.059 190.414,242.402L190.414,242.408C190.649,243.601 190.857,244.812 191.019,246.051C191.142,246.953 191.249,247.866 191.327,248.791C191.795,253.914 191.631,259.076 190.84,264.159L191.938,300Z" style="fill:rgb(47,46,65);fill-rule:nonzero;"/>
            <path d="M13.854,45.352C16.035,44.508 17.328,42.593 16.74,41.076C16.153,39.559 13.908,39.013 11.727,39.857C9.546,40.702 8.254,42.616 8.841,44.134C9.428,45.651 11.673,46.197 13.854,45.352Z" style="fill:rgb(230,230,230);fill-rule:nonzero;"/>
            <path d="M41.318,41.829C43.5,40.985 44.792,39.07 44.204,37.553C43.617,36.035 41.373,35.49 39.191,36.334C37.01,37.179 35.718,39.093 36.305,40.611C36.893,42.128 39.137,42.674 41.318,41.829Z" style="fill:rgb(63,61,86);fill-rule:nonzero;"/>
            <path d="M11.472,68.784C13.653,67.94 14.946,66.025 14.358,64.508C13.771,62.99 11.526,62.445 9.345,63.289C7.164,64.133 5.872,66.048 6.459,67.565C7.046,69.083 9.291,69.628 11.472,68.784Z" style="fill:rgb(255,101,132);fill-rule:nonzero;"/>
            <path d="M3.527,79.12C4.528,78.883 5.063,77.525 4.722,76.086C4.382,74.648 3.295,73.674 2.294,73.91C1.293,74.147 0.758,75.505 1.098,76.944C1.439,78.382 2.526,79.357 3.527,79.12Z" style="fill:rgb(230,230,230);fill-rule:nonzero;"/>
            <path d="M3.363,96.619C4.364,96.382 4.899,95.024 4.559,93.585C4.218,92.147 3.131,91.172 2.13,91.409C1.13,91.646 0.594,93.004 0.935,94.443C1.275,95.881 2.363,96.856 3.363,96.619Z" style="fill:rgb(63,61,86);fill-rule:nonzero;"/>
            <path d="M27.468,60.374C28.469,60.138 29.004,58.779 28.664,57.341C28.323,55.902 27.236,54.928 26.235,55.165C25.235,55.402 24.699,56.76 25.04,58.199C25.38,59.637 26.468,60.611 27.468,60.374Z" style="fill:rgb(230,230,230);fill-rule:nonzero;"/>
            <path d="M13.003,56.862C14.004,56.625 14.539,55.267 14.199,53.828C13.858,52.39 12.771,51.416 11.77,51.653C10.77,51.889 10.235,53.248 10.575,54.686C10.915,56.125 12.003,57.099 13.003,56.862Z" style="fill:rgb(255,101,132);fill-rule:nonzero;"/>
            <path d="M28.335,40.748C29.336,40.511 29.871,39.153 29.53,37.715C29.19,36.276 28.103,35.302 27.102,35.539C26.101,35.776 25.566,37.134 25.907,38.573C26.247,40.011 27.334,40.985 28.335,40.748Z" style="fill:rgb(63,61,86);fill-rule:nonzero;"/>
            <path d="M35.465,161.861C36.52,160.622 35.931,158.389 34.15,156.873C32.369,155.357 30.07,155.132 29.015,156.371C27.96,157.61 28.549,159.844 30.331,161.36C32.112,162.876 34.41,163.1 35.465,161.861Z" style="fill:rgb(230,230,230);fill-rule:nonzero;"/>
            <path d="M19.29,139.388C20.345,138.149 19.756,135.915 17.975,134.399C16.194,132.883 13.895,132.658 12.84,133.897C11.786,135.136 12.375,137.37 14.156,138.886C15.937,140.402 18.236,140.627 19.29,139.388Z" style="fill:rgb(63,61,86);fill-rule:nonzero;"/>
            <path d="M57.205,152.799C58.259,151.56 57.67,149.327 55.889,147.81C54.108,146.294 51.809,146.07 50.754,147.309C49.7,148.548 50.289,150.781 52.07,152.297C53.851,153.814 56.15,154.038 57.205,152.799Z" style="fill:rgb(255,101,132);fill-rule:nonzero;"/>
            <path d="M68.004,153.047C69.107,152.063 69.446,150.643 68.761,149.876C68.076,149.109 66.627,149.285 65.524,150.269C64.421,151.253 64.082,152.673 64.767,153.44C65.452,154.208 66.901,154.032 68.004,153.047Z" style="fill:rgb(230,230,230);fill-rule:nonzero;"/>
            <path d="M83.47,144.859C84.573,143.874 84.912,142.454 84.227,141.687C83.542,140.92 82.093,141.096 80.99,142.08C79.887,143.065 79.548,144.485 80.233,145.252C80.918,146.019 82.367,145.843 83.47,144.859Z" style="fill:rgb(63,61,86);fill-rule:nonzero;"/>
            <path d="M40.121,140.92C41.224,139.935 41.562,138.515 40.878,137.748C40.193,136.981 38.744,137.157 37.641,138.141C36.538,139.126 36.199,140.546 36.884,141.313C37.569,142.08 39.018,141.904 40.121,140.92Z" style="fill:rgb(230,230,230);fill-rule:nonzero;"/>
            <path d="M43.919,155.312C45.022,154.328 45.361,152.908 44.676,152.14C43.991,151.373 42.542,151.549 41.439,152.534C40.336,153.518 39.998,154.938 40.682,155.705C41.367,156.472 42.816,156.296 43.919,155.312Z" style="fill:rgb(255,101,132);fill-rule:nonzero;"/>
            <path d="M22.449,149.502C23.552,148.518 23.891,147.098 23.206,146.331C22.522,145.564 21.072,145.74 19.97,146.724C18.867,147.708 18.528,149.128 19.212,149.895C19.897,150.663 21.346,150.487 22.449,149.502Z" style="fill:rgb(63,61,86);fill-rule:nonzero;"/>
            <path d="M144.13,17.723C145.59,17.005 145.937,14.722 144.905,12.623C143.872,10.524 141.852,9.404 140.392,10.122C138.932,10.841 138.585,13.124 139.617,15.223C140.649,17.322 142.67,18.441 144.13,17.723Z" style="fill:rgb(230,230,230);fill-rule:nonzero;"/>
            <path d="M150.046,44.773C151.506,44.055 151.853,41.772 150.821,39.672C149.788,37.574 147.768,36.454 146.308,37.172C144.848,37.89 144.501,40.174 145.533,42.273C146.565,44.372 148.586,45.491 150.046,44.773Z" style="fill:rgb(63,61,86);fill-rule:nonzero;"/>
            <path d="M120.58,17.404C122.04,16.686 122.387,14.402 121.354,12.303C120.322,10.204 118.302,9.085 116.842,9.803C115.381,10.521 115.035,12.804 116.067,14.903C117.099,17.002 119.12,18.122 120.58,17.404Z" style="fill:rgb(255,101,132);fill-rule:nonzero;"/>
            <path d="M108.201,8.819C109.605,8.354 110.48,7.186 110.156,6.21C109.832,5.234 108.433,4.819 107.029,5.285C105.626,5.75 104.751,6.918 105.075,7.894C105.398,8.87 106.798,9.285 108.201,8.819Z" style="fill:rgb(230,230,230);fill-rule:nonzero;"/>
            <path d="M90.755,10.19C92.159,9.725 93.034,8.556 92.71,7.58C92.386,6.604 90.987,6.19 89.584,6.655C88.18,7.12 87.305,8.289 87.629,9.265C87.953,10.241 89.352,10.655 90.755,10.19Z" style="fill:rgb(63,61,86);fill-rule:nonzero;"/>
            <path d="M128.972,31.026C130.376,30.561 131.251,29.392 130.927,28.416C130.603,27.44 129.204,27.026 127.8,27.491C126.397,27.956 125.522,29.125 125.846,30.101C126.169,31.077 127.569,31.491 128.972,31.026Z" style="fill:rgb(230,230,230);fill-rule:nonzero;"/>
            <path d="M131.204,16.309C132.607,15.844 133.482,14.675 133.158,13.699C132.835,12.723 131.435,12.309 130.032,12.774C128.629,13.24 127.754,14.408 128.077,15.384C128.401,16.36 129.801,16.774 131.204,16.309Z" style="fill:rgb(255,101,132);fill-rule:nonzero;"/>
            <path d="M148.599,30.17C150.002,29.705 150.877,28.536 150.553,27.56C150.23,26.584 148.83,26.17 147.427,26.635C146.024,27.1 145.149,28.269 145.472,29.245C145.796,30.221 147.196,30.635 148.599,30.17Z" style="fill:rgb(63,61,86);fill-rule:nonzero;"/>
            <path d="M153.985,114.383L172.489,113.43L181.083,127.01C181.083,127.01 197.254,129.714 196.133,148.769C195.012,167.825 176.458,184.546 176.458,184.546L177.251,194.469L175.874,198.405L176.05,200.615L177.93,202.956L178.123,205.377L176.458,209.206L178.722,212.873L131.121,208.261L129.38,201.92L131.919,198.515L130.501,194.074L132.633,189.802L133.745,176.233C133.745,176.233 121.581,157.958 135.545,144.193L141.149,134.666L147.42,127.015L153.985,114.383Z" style="fill:rgb(193,95,61);fill-rule:nonzero;"/>
            <path d="M163.184,110.548C174.012,110.548 182.791,101.77 182.791,90.941C182.791,80.113 174.012,71.334 163.184,71.334C152.355,71.334 143.577,80.113 143.577,90.941C143.577,101.77 152.355,110.548 163.184,110.548Z" style="fill:rgb(255,182,182);fill-rule:nonzero;"/>
            <path d="M160.559,89.753C158.869,89.753 157.18,89.705 155.493,89.61L155.191,89.593L155.231,89.294C155.479,87.422 155.339,85.52 154.82,83.705C153.937,85.771 152.624,87.626 150.968,89.145L150.874,89.231L150.748,89.217C146.164,88.716 141.622,87.887 137.157,86.738L136.986,86.694L136.952,86.521C136.618,84.884 136.445,83.217 136.436,81.546C136.436,76.325 138.329,71.93 141.766,69.172C145.508,66.17 150.871,65.246 156.873,66.57L176.066,66.57C178.176,66.573 180.199,67.412 181.691,68.904C183.183,70.396 184.022,72.419 184.024,74.529L184.024,86.683L183.815,86.738C176.224,88.733 168.408,89.746 160.559,89.753Z" style="fill:rgb(47,46,65);fill-rule:nonzero;"/>
            <path d="M26.771,67.944C25.912,68.258 25.212,68.9 24.826,69.729C24.44,70.558 24.398,71.507 24.71,72.367L45.416,129.18C45.73,130.039 46.372,130.738 47.201,131.125C48.031,131.511 48.979,131.553 49.839,131.24L130.199,101.954C131.058,101.639 131.757,100.997 132.144,100.168C132.53,99.339 132.572,98.39 132.259,97.53L111.554,40.717C111.24,39.858 110.598,39.159 109.768,38.772C108.939,38.386 107.991,38.344 107.131,38.657L26.771,67.944Z" style="fill:rgb(204,204,204);fill-rule:nonzero;"/>
            <path d="M100.29,109.721L51.102,127.648C50.176,127.984 49.156,127.939 48.263,127.523C47.37,127.108 46.679,126.355 46.341,125.43L27.562,73.901C27.226,72.976 27.27,71.955 27.686,71.062C28.102,70.17 28.855,69.479 29.779,69.14L105.598,41.509C106.524,41.173 107.545,41.217 108.437,41.633C109.33,42.049 110.021,42.802 110.359,43.727L119.433,68.625C122.334,76.613 121.948,85.427 118.36,93.131C114.771,100.836 108.273,106.802 100.29,109.721Z" style="fill:white;fill-rule:nonzero;"/>
            <path d="M64.897,72.496L53.208,76.756C53.061,76.809 52.905,76.834 52.749,76.827C52.594,76.82 52.441,76.783 52.299,76.717C52.158,76.651 52.031,76.558 51.925,76.443C51.82,76.328 51.738,76.193 51.685,76.047C51.631,75.9 51.607,75.744 51.614,75.589C51.621,75.433 51.658,75.28 51.724,75.138C51.79,74.997 51.883,74.87 51.998,74.764C52.113,74.659 52.248,74.577 52.394,74.524L64.083,70.264C64.379,70.156 64.706,70.17 64.991,70.303C65.277,70.436 65.498,70.677 65.606,70.973C65.714,71.269 65.7,71.596 65.567,71.882C65.434,72.167 65.192,72.388 64.897,72.496Z" style="fill:rgb(193,95,61);fill-rule:nonzero;"/>
            <path d="M92.763,67.512L54.872,81.322C54.725,81.375 54.569,81.4 54.413,81.393C54.257,81.386 54.104,81.349 53.962,81.283C53.821,81.217 53.694,81.124 53.588,81.009C53.483,80.894 53.401,80.759 53.347,80.613C53.294,80.466 53.27,80.31 53.276,80.154C53.283,79.998 53.321,79.845 53.387,79.704C53.453,79.562 53.546,79.435 53.661,79.329C53.776,79.224 53.911,79.142 54.058,79.089L91.949,65.28C92.096,65.226 92.252,65.202 92.407,65.209C92.563,65.216 92.716,65.253 92.858,65.319C92.999,65.385 93.126,65.478 93.232,65.593C93.337,65.708 93.419,65.843 93.472,65.989C93.526,66.136 93.55,66.291 93.543,66.447C93.536,66.603 93.499,66.756 93.433,66.898C93.367,67.039 93.274,67.166 93.159,67.272C93.044,67.377 92.91,67.459 92.763,67.512Z" style="fill:rgb(193,95,61);fill-rule:nonzero;"/>
            <path d="M94.673,72.753L56.781,86.562C56.635,86.615 56.479,86.639 56.323,86.633C56.167,86.626 56.014,86.589 55.873,86.523C55.731,86.457 55.604,86.364 55.499,86.249C55.394,86.134 55.312,85.999 55.258,85.853C55.205,85.706 55.181,85.55 55.188,85.394C55.194,85.239 55.232,85.086 55.298,84.944C55.364,84.803 55.457,84.676 55.572,84.57C55.687,84.465 55.821,84.383 55.968,84.33L93.859,70.52C94.155,70.413 94.482,70.427 94.767,70.56C95.052,70.694 95.273,70.934 95.381,71.23C95.489,71.526 95.475,71.853 95.342,72.138C95.209,72.424 94.969,72.645 94.673,72.753Z" style="fill:rgb(193,95,61);fill-rule:nonzero;"/>
            <path d="M96.583,77.993L58.691,91.803C58.545,91.856 58.389,91.881 58.233,91.874C58.077,91.868 57.924,91.83 57.782,91.764C57.641,91.698 57.514,91.605 57.408,91.49C57.302,91.375 57.221,91.241 57.167,91.094C57.114,90.947 57.09,90.791 57.096,90.635C57.103,90.479 57.141,90.326 57.207,90.185C57.273,90.043 57.366,89.916 57.481,89.811C57.596,89.705 57.731,89.624 57.878,89.57L95.769,75.761C95.916,75.708 96.072,75.684 96.227,75.69C96.383,75.697 96.536,75.734 96.678,75.8C96.819,75.866 96.946,75.959 97.052,76.074C97.157,76.189 97.239,76.324 97.292,76.471C97.346,76.617 97.37,76.773 97.363,76.929C97.356,77.085 97.319,77.237 97.253,77.379C97.187,77.52 97.094,77.647 96.979,77.753C96.864,77.858 96.729,77.94 96.583,77.993Z" style="fill:rgb(193,95,61);fill-rule:nonzero;"/>
            <path d="M98.493,83.234L60.601,97.043C60.305,97.151 59.978,97.137 59.693,97.004C59.407,96.871 59.186,96.63 59.078,96.334C58.97,96.038 58.984,95.711 59.117,95.425C59.251,95.14 59.492,94.919 59.788,94.811L97.679,81.001C97.826,80.948 97.981,80.924 98.137,80.931C98.293,80.938 98.446,80.975 98.588,81.041C98.729,81.107 98.856,81.2 98.961,81.315C99.067,81.43 99.149,81.564 99.202,81.711C99.255,81.858 99.279,82.013 99.273,82.169C99.266,82.325 99.229,82.478 99.163,82.619C99.097,82.761 99.004,82.888 98.889,82.993C98.774,83.099 98.639,83.181 98.493,83.234Z" style="fill:rgb(193,95,61);fill-rule:nonzero;"/>
            <path d="M218.722,97.788L197.976,147.433C197.091,149.534 195.415,151.202 193.311,152.078C191.206,152.955 188.842,152.968 186.727,152.116C185.634,151.676 184.641,151.017 183.81,150.18C182.979,149.343 182.327,148.346 181.894,147.249C181.462,146.152 181.257,144.978 181.292,143.8C181.327,142.621 181.603,141.462 182.101,140.393L205.232,89.484L217.983,57.958C216.881,56.859 216.144,55.447 215.872,53.915C215.601,52.383 215.807,50.804 216.464,49.393C217.121,47.982 218.196,46.808 219.544,46.029C220.891,45.251 222.446,44.906 223.996,45.042C225.546,45.178 227.017,45.788 228.209,46.788C229.4,47.789 230.255,49.133 230.657,50.636C231.058,52.14 230.987,53.73 230.453,55.192C229.919,56.654 228.948,57.916 227.672,58.806L218.722,97.788Z" style="fill:rgb(255,182,182);fill-rule:nonzero;"/>
        </g>
    </g>
</svg>
