<?xml version="1.0" encoding="UTF-8" ?>
<!DOCTYPE svg PUBLIC "-//W3C//DTD SVG 1.1//EN" "http://www.w3.org/Graphics/SVG/1.1/DTD/svg11.dtd">
<svg width="220pt" height="220pt" viewBox="0 0 220 220" version="1.1" xmlns="http://www.w3.org/2000/svg">
<g id="#f7f4f8ff">
<path fill="#f7f4f8" opacity="1.00" d=" M 0.00 0.00 L 220.00 0.00 L 220.00 220.00 L 0.00 220.00 L 0.00 0.00 M 106.99 45.53 C 107.16 86.23 106.93 126.94 107.10 167.64 C 115.52 167.36 123.96 167.81 132.38 167.41 C 132.08 154.99 132.41 142.56 132.20 130.14 C 135.84 130.27 141.02 129.00 143.03 133.04 C 148.43 142.97 153.69 152.99 159.06 162.95 C 160.34 165.60 163.04 167.47 166.02 167.48 C 174.09 167.68 182.16 167.48 190.23 167.57 C 182.81 154.77 175.19 142.09 167.76 129.30 C 165.73 125.76 163.35 122.35 160.10 119.82 C 163.22 117.74 166.07 115.23 168.19 112.12 C 175.13 102.39 182.33 92.83 189.19 83.04 C 181.12 83.28 173.05 83.03 164.98 83.18 C 162.15 83.04 159.70 84.90 158.14 87.11 C 152.56 95.20 147.26 103.50 141.61 111.53 C 139.50 114.62 135.42 114.07 132.19 113.87 C 132.36 91.09 132.22 68.30 132.27 45.51 C 123.84 45.54 115.41 45.50 106.99 45.53 M 51.08 83.56 C 44.72 85.49 38.55 89.14 35.04 94.95 C 29.15 104.34 29.81 118.09 38.07 125.90 C 45.39 132.51 55.53 133.99 64.41 137.50 C 67.36 138.86 71.14 141.05 70.63 144.86 C 70.65 148.24 67.62 150.69 64.58 151.44 C 58.01 153.08 51.23 150.94 45.72 147.32 C 42.64 145.14 37.64 144.81 35.15 148.04 C 32.75 151.45 30.56 155.02 28.44 158.62 C 41.70 168.87 60.36 171.73 76.11 165.99 C 83.12 163.43 89.32 158.20 92.11 151.17 C 95.08 143.41 95.39 133.72 89.85 127.00 C 84.33 120.44 75.69 118.04 67.85 115.47 C 63.42 113.95 58.19 112.80 55.41 108.66 C 53.62 105.10 56.56 101.02 60.09 100.10 C 64.84 98.89 69.95 99.45 74.43 101.37 C 78.29 102.67 83.15 106.46 86.87 102.91 C 89.30 99.77 91.34 96.33 93.47 92.99 C 92.47 90.59 89.45 89.24 87.33 87.71 C 76.51 81.42 63.06 80.19 51.08 83.56 Z" />
</g>
<g id="#c35946ff">
<path fill="#c35946" opacity="1.00" d=" M 106.99 45.53 C 115.41 45.50 123.84 45.54 132.27 45.51 C 132.22 68.30 132.36 91.09 132.19 113.87 C 135.42 114.07 139.50 114.62 141.61 111.53 C 147.26 103.50 152.56 95.20 158.14 87.11 C 159.70 84.90 162.15 83.04 164.98 83.18 C 173.05 83.03 181.12 83.28 189.19 83.04 C 182.33 92.83 175.13 102.39 168.19 112.12 C 166.07 115.23 163.22 117.74 160.10 119.82 C 163.35 122.35 165.73 125.76 167.76 129.30 C 175.19 142.09 182.81 154.77 190.23 167.57 C 182.16 167.48 174.09 167.68 166.02 167.48 C 163.04 167.47 160.34 165.60 159.06 162.95 C 153.69 152.99 148.43 142.97 143.03 133.04 C 141.02 129.00 135.84 130.27 132.20 130.14 C 132.41 142.56 132.08 154.99 132.38 167.41 C 123.96 167.81 115.52 167.36 107.10 167.64 C 106.93 126.94 107.16 86.23 106.99 45.53 Z" />
</g>
<g id="#292f91ff">
<path fill="#292f91" opacity="1.00" d=" M 51.08 83.56 C 63.06 80.19 76.51 81.42 87.33 87.71 C 89.45 89.24 92.47 90.59 93.47 92.99 C 91.34 96.33 89.30 99.77 86.87 102.91 C 83.15 106.46 78.29 102.67 74.43 101.37 C 69.95 99.45 64.84 98.89 60.09 100.10 C 56.56 101.02 53.62 105.10 55.41 108.66 C 58.19 112.80 63.42 113.95 67.85 115.47 C 75.69 118.04 84.33 120.44 89.85 127.00 C 95.39 133.72 95.08 143.41 92.11 151.17 C 89.32 158.20 83.12 163.43 76.11 165.99 C 60.36 171.73 41.70 168.87 28.44 158.62 C 30.56 155.02 32.75 151.45 35.15 148.04 C 37.64 144.81 42.64 145.14 45.72 147.32 C 51.23 150.94 58.01 153.08 64.58 151.44 C 67.62 150.69 70.65 148.24 70.63 144.86 C 71.14 141.05 67.36 138.86 64.41 137.50 C 55.53 133.99 45.39 132.51 38.07 125.90 C 29.81 118.09 29.15 104.34 35.04 94.95 C 38.55 89.14 44.72 85.49 51.08 83.56 Z" />
</g>
</svg>
