<svg xmlns="http://www.w3.org/2000/svg" width="20" height="20" viewBox="0 0 20 20" fill="none">
    <path d="M14.4137 10.6633L8.16374 16.9133C7.98761 17.0894 7.74874 17.1884 7.49967 17.1884C7.2506 17.1884 7.01173 17.0894 6.83561 16.9133C6.65949 16.7372 6.56055 16.4983 6.56055 16.2492C6.56055 16.0002 6.65949 15.7613 6.83561 15.5852L12.4223 10L6.83717 4.41331C6.74997 4.3261 6.68079 4.22257 6.6336 4.10863C6.5864 3.99469 6.56211 3.87257 6.56211 3.74925C6.56211 3.62592 6.5864 3.5038 6.6336 3.38986C6.68079 3.27592 6.74997 3.17239 6.83717 3.08518C6.92438 2.99798 7.02791 2.9288 7.14185 2.88161C7.25579 2.83441 7.37791 2.81012 7.50124 2.81012C7.62456 2.81012 7.74668 2.83441 7.86062 2.88161C7.97456 2.9288 8.07809 2.99798 8.1653 3.08518L14.4153 9.33518C14.5026 9.42238 14.5718 9.52596 14.619 9.63997C14.6662 9.75398 14.6904 9.87618 14.6903 9.99957C14.6901 10.123 14.6656 10.2451 14.6182 10.359C14.5707 10.4729 14.5012 10.5763 14.4137 10.6633Z" fill="#E9E9F1" />
</svg>