<svg xmlns="http://www.w3.org/2000/svg" width="20" height="20" viewBox="0 0 20 20" fill="none">
    <path d="M13.1644 15.5866C13.3405 15.7628 13.4395 16.0016 13.4395 16.2507C13.4395 16.4998 13.3405 16.7387 13.1644 16.9148C12.9883 17.0909 12.7494 17.1898 12.5003 17.1898C12.2513 17.1898 12.0124 17.0909 11.8363 16.9148L5.58629 10.6648C5.49889 10.5777 5.42954 10.4742 5.38222 10.3602C5.3349 10.2463 5.31055 10.1241 5.31055 10.0007C5.31055 9.87732 5.3349 9.75515 5.38222 9.64119C5.42954 9.52724 5.49889 9.42375 5.58629 9.33665L11.8363 3.08665C12.0124 2.91053 12.2513 2.81158 12.5003 2.81158C12.7494 2.81158 12.9883 2.91053 13.1644 3.08665C13.3405 3.26277 13.4395 3.50164 13.4395 3.75071C13.4395 3.99978 13.3405 4.23865 13.1644 4.41477L7.57925 9.99993L13.1644 15.5866Z" fill="#E9E9F1" />
</svg>