<svg xmlns="http://www.w3.org/2000/svg" width="24" height="24" viewBox="0 0 24 24" fill="none">
    <path d="M9.02439 3.47341C8.99956 3.378 8.99379 3.27862 9.00741 3.18097C9.02102 3.08333 9.05376 2.98932 9.10374 2.90433C9.15372 2.81935 9.21996 2.74505 9.29869 2.6857C9.37741 2.62634 9.46706 2.58309 9.56252 2.55841C11.1614 2.14606 12.8387 2.14606 14.4375 2.55841C14.6146 2.60375 14.769 2.71221 14.8718 2.8634C14.9746 3.01459 15.0185 3.19811 14.9955 3.37945C14.9725 3.5608 14.884 3.72749 14.7467 3.84821C14.6095 3.96892 14.4328 4.03533 14.25 4.03497C14.1867 4.03464 14.1238 4.02646 14.0625 4.0106C12.7097 3.66167 11.2904 3.66167 9.93752 4.0106C9.7452 4.06021 9.54107 4.03151 9.36988 3.93081C9.1987 3.8301 9.07445 3.66561 9.02439 3.47341ZM5.04283 5.16935C3.88656 6.34678 3.0479 7.79831 2.60533 9.3881C2.55224 9.5798 2.57749 9.78474 2.6755 9.95783C2.77352 10.1309 2.93628 10.258 3.12799 10.3111C3.31969 10.3642 3.52463 10.3389 3.69772 10.2409C3.87081 10.1429 3.99787 9.98011 4.05095 9.78841C4.42508 8.4427 5.13475 7.214 6.11345 6.21747C6.24147 6.07348 6.30915 5.88574 6.30248 5.69318C6.2958 5.50062 6.21528 5.31802 6.0776 5.18323C5.93992 5.04845 5.75565 4.97182 5.56299 4.96923C5.37034 4.96665 5.18408 5.03831 5.04283 5.16935ZM4.05095 14.2078C4.02461 14.1129 3.97982 14.0241 3.91916 13.9464C3.85849 13.8688 3.78313 13.8039 3.69738 13.7554C3.61163 13.707 3.51718 13.6758 3.4194 13.6638C3.32162 13.6519 3.22244 13.6593 3.12752 13.6856C3.0326 13.7119 2.94379 13.7567 2.86618 13.8174C2.78857 13.8781 2.72366 13.9534 2.67517 14.0392C2.62668 14.1249 2.59556 14.2194 2.58357 14.3172C2.57159 14.4149 2.57898 14.5141 2.60533 14.609C3.04816 16.1987 3.88679 17.6502 5.04283 18.8278C5.18232 18.9696 5.37244 19.0503 5.57138 19.0519C5.77031 19.0536 5.96176 18.9762 6.10361 18.8367C6.24546 18.6972 6.32609 18.5071 6.32776 18.3081C6.32943 18.1092 6.252 17.9178 6.11252 17.7759C5.13502 16.7797 4.42578 15.5522 4.05095 14.2078ZM14.0625 19.9893C12.7097 20.3386 11.2903 20.3386 9.93752 19.9893C9.84161 19.963 9.74142 19.956 9.64279 19.9688C9.54415 19.9815 9.44903 20.0137 9.36297 20.0636C9.27691 20.1134 9.20163 20.1799 9.1415 20.2591C9.08137 20.3384 9.0376 20.4288 9.01273 20.5251C8.98786 20.6214 8.9824 20.7216 8.99665 20.8201C9.01091 20.9185 9.04459 21.0131 9.09576 21.0984C9.14692 21.1837 9.21454 21.2579 9.29467 21.3169C9.3748 21.3758 9.46585 21.4181 9.56252 21.4415C11.1614 21.8539 12.8387 21.8539 14.4375 21.4415C14.6274 21.3894 14.7892 21.2646 14.8879 21.0942C14.9866 20.9238 15.0143 20.7215 14.9651 20.5308C14.9159 20.3401 14.7936 20.1765 14.6247 20.0752C14.4559 19.9739 14.2539 19.943 14.0625 19.9893ZM20.8735 13.6875C20.7785 13.6611 20.6792 13.6538 20.5814 13.6658C20.4836 13.6778 20.3891 13.709 20.3033 13.7576C20.2175 13.8062 20.1422 13.8712 20.0816 13.9489C20.021 14.0267 19.9762 14.1156 19.95 14.2106C19.5761 15.5561 18.8664 16.7846 17.8875 17.7806C17.8185 17.8509 17.764 17.9341 17.7272 18.0255C17.6903 18.1168 17.6718 18.2145 17.6727 18.313C17.6737 18.4115 17.694 18.5089 17.7325 18.5995C17.771 18.6902 17.8271 18.7724 17.8974 18.8414C17.9677 18.9104 18.0509 18.9649 18.1422 19.0017C18.2336 19.0386 18.3313 19.0571 18.4298 19.0562C18.5283 19.0552 18.6257 19.0349 18.7163 18.9964C18.807 18.9579 18.8891 18.9018 18.9581 18.8315C20.1146 17.6542 20.9533 16.2027 21.3956 14.6128C21.4223 14.5177 21.4299 14.4184 21.4181 14.3204C21.4062 14.2224 21.3752 14.1277 21.3267 14.0417C21.2781 13.9558 21.2131 13.8802 21.1354 13.8194C21.0576 13.7586 20.9686 13.7138 20.8735 13.6875ZM19.9491 9.7931C19.9754 9.88802 20.0202 9.97682 20.0809 10.0544C20.1415 10.132 20.2169 10.197 20.3027 10.2454C20.3884 10.2939 20.4829 10.3251 20.5806 10.337C20.6784 10.349 20.7776 10.3416 20.8725 10.3153C20.9674 10.2889 21.0562 10.2442 21.1339 10.1835C21.2115 10.1228 21.2764 10.0475 21.3249 9.96172C21.3734 9.87597 21.4045 9.78151 21.4165 9.68373C21.4284 9.58595 21.4211 9.48677 21.3947 9.39185C20.9523 7.80198 20.1136 6.3504 18.9572 5.1731C18.8881 5.10286 18.8059 5.04692 18.7152 5.00846C18.6245 4.97 18.5272 4.94978 18.4287 4.94895C18.3302 4.94812 18.2325 4.96671 18.1411 5.00364C18.0498 5.04057 17.9667 5.09512 17.8964 5.16419C17.8262 5.23326 17.7702 5.31548 17.7318 5.40617C17.6933 5.49686 17.6731 5.59424 17.6723 5.69274C17.6714 5.79124 17.69 5.88894 17.727 5.98026C17.7639 6.07158 17.8185 6.15474 17.8875 6.22497C18.8653 7.22055 19.5746 8.44788 19.9491 9.79216V9.7931Z" fill="#8155DD" />
</svg>