<svg xmlns="http://www.w3.org/2000/svg" width="24" height="25" viewBox="0 0 24 25" fill="none">
    <path d="M13.5004 10.2499V6.49993C13.5004 6.30102 13.5794 6.11025 13.7201 5.9696C13.8607 5.82895 14.0515 5.74993 14.2504 5.74993C14.4493 5.74993 14.6401 5.82895 14.7807 5.9696C14.9214 6.11025 15.0004 6.30102 15.0004 6.49993V8.43962L18.9698 4.4693C19.1105 4.32857 19.3014 4.24951 19.5004 4.24951C19.6994 4.24951 19.8903 4.32857 20.031 4.4693C20.1718 4.61003 20.2508 4.80091 20.2508 4.99993C20.2508 5.19895 20.1718 5.38982 20.031 5.53055L16.0607 9.49993H18.0004C18.1993 9.49993 18.3901 9.57895 18.5307 9.7196C18.6714 9.86025 18.7504 10.051 18.7504 10.2499C18.7504 10.4488 18.6714 10.6396 18.5307 10.7803C18.3901 10.9209 18.1993 10.9999 18.0004 10.9999H14.2504C14.0515 10.9999 13.8607 10.9209 13.7201 10.7803C13.5794 10.6396 13.5004 10.4488 13.5004 10.2499ZM9.75042 13.9999H6.00042C5.8015 13.9999 5.61074 14.0789 5.47009 14.2196C5.32943 14.3603 5.25042 14.551 5.25042 14.7499C5.25042 14.9488 5.32943 15.1396 5.47009 15.2803C5.61074 15.4209 5.8015 15.4999 6.00042 15.4999H7.9401L3.96979 19.4693C3.82906 19.61 3.75 19.8009 3.75 19.9999C3.75 20.199 3.82906 20.3898 3.96979 20.5306C4.11052 20.6713 4.30139 20.7503 4.50042 20.7503C4.69944 20.7503 4.89031 20.6713 5.03104 20.5306L9.00042 16.5602V18.4999C9.00042 18.6988 9.07943 18.8896 9.22009 19.0303C9.36074 19.1709 9.5515 19.2499 9.75042 19.2499C9.94933 19.2499 10.1401 19.1709 10.2807 19.0303C10.4214 18.8896 10.5004 18.6988 10.5004 18.4999V14.7499C10.5004 14.551 10.4214 14.3603 10.2807 14.2196C10.1401 14.0789 9.94933 13.9999 9.75042 13.9999ZM16.0607 15.4999H18.0004C18.1993 15.4999 18.3901 15.4209 18.5307 15.2803C18.6714 15.1396 18.7504 14.9488 18.7504 14.7499C18.7504 14.551 18.6714 14.3603 18.5307 14.2196C18.3901 14.0789 18.1993 13.9999 18.0004 13.9999H14.2504C14.0515 13.9999 13.8607 14.0789 13.7201 14.2196C13.5794 14.3603 13.5004 14.551 13.5004 14.7499V18.4999C13.5004 18.6988 13.5794 18.8896 13.7201 19.0303C13.8607 19.1709 14.0515 19.2499 14.2504 19.2499C14.4493 19.2499 14.6401 19.1709 14.7807 19.0303C14.9214 18.8896 15.0004 18.6988 15.0004 18.4999V16.5602L18.9698 20.5306C19.0395 20.6002 19.1222 20.6555 19.2132 20.6932C19.3043 20.7309 19.4019 20.7503 19.5004 20.7503C19.599 20.7503 19.6965 20.7309 19.7876 20.6932C19.8786 20.6555 19.9614 20.6002 20.031 20.5306C20.1007 20.4609 20.156 20.3781 20.1937 20.2871C20.2314 20.1961 20.2508 20.0985 20.2508 19.9999C20.2508 19.9014 20.2314 19.8038 20.1937 19.7128C20.156 19.6217 20.1007 19.539 20.031 19.4693L16.0607 15.4999ZM9.75042 5.74993C9.5515 5.74993 9.36074 5.82895 9.22009 5.9696C9.07943 6.11025 9.00042 6.30102 9.00042 6.49993V8.43962L5.03104 4.4693C4.89031 4.32857 4.69944 4.24951 4.50042 4.24951C4.30139 4.24951 4.11052 4.32857 3.96979 4.4693C3.82906 4.61003 3.75 4.80091 3.75 4.99993C3.75 5.19895 3.82906 5.38982 3.96979 5.53055L7.9401 9.49993H6.00042C5.8015 9.49993 5.61074 9.57895 5.47009 9.7196C5.32943 9.86025 5.25042 10.051 5.25042 10.2499C5.25042 10.4488 5.32943 10.6396 5.47009 10.7803C5.61074 10.9209 5.8015 10.9999 6.00042 10.9999H9.75042C9.94933 10.9999 10.1401 10.9209 10.2807 10.7803C10.4214 10.6396 10.5004 10.4488 10.5004 10.2499V6.49993C10.5004 6.30102 10.4214 6.11025 10.2807 5.9696C10.1401 5.82895 9.94933 5.74993 9.75042 5.74993Z" fill="white" />
</svg>