<svg xmlns="http://www.w3.org/2000/svg" width="20" height="20" viewBox="0 0 32 32" fill="none">
    <path d="M28.415 9.17119L22.8288 3.58619C22.643 3.40043 22.4225 3.25307 22.1799 3.15253C21.9372 3.05199 21.6771 3.00024 21.4144 3.00024C21.1517 3.00024 20.8916 3.05199 20.6489 3.15253C20.4062 3.25307 20.1857 3.40043 20 3.58619L4.58626 18.9999C4.39973 19.185 4.25185 19.4053 4.15121 19.648C4.05057 19.8907 3.99917 20.151 4.00001 20.4137V25.9999C4.00001 26.5304 4.21072 27.0391 4.5858 27.4142C4.96087 27.7892 5.46958 27.9999 6.00001 27.9999H27C27.2652 27.9999 27.5196 27.8946 27.7071 27.7071C27.8947 27.5195 28 27.2652 28 26.9999C28 26.7347 27.8947 26.4804 27.7071 26.2928C27.5196 26.1053 27.2652 25.9999 27 25.9999H14.415L28.415 11.9999C28.6008 11.8142 28.7481 11.5937 28.8487 11.351C28.9492 11.1084 29.001 10.8482 29.001 10.5856C29.001 10.3229 28.9492 10.0628 28.8487 9.82009C28.7481 9.57741 28.6008 9.35692 28.415 9.17119ZM11.5863 25.9999H6.00001V20.4137L17 9.41369L22.5863 14.9999L11.5863 25.9999ZM24 13.5862L18.415 7.99994L21.415 4.99994L27 10.5862L24 13.5862Z" fill="#fff" />
</svg>