<svg xmlns="http://www.w3.org/2000/svg" width="24" height="25" viewBox="0 0 24 25" fill="none">
    <path d="M20.25 5V9.5C20.25 9.69891 20.171 9.88968 20.0303 10.0303C19.8897 10.171 19.6989 10.25 19.5 10.25C19.3011 10.25 19.1103 10.171 18.9697 10.0303C18.829 9.88968 18.75 9.69891 18.75 9.5V6.81031L14.0306 11.5306C13.8899 11.6714 13.699 11.7504 13.5 11.7504C13.301 11.7504 13.1101 11.6714 12.9694 11.5306C12.8286 11.3899 12.7496 11.199 12.7496 11C12.7496 10.801 12.8286 10.6101 12.9694 10.4694L17.6897 5.75H15C14.8011 5.75 14.6103 5.67098 14.4697 5.53033C14.329 5.38968 14.25 5.19891 14.25 5C14.25 4.80109 14.329 4.61032 14.4697 4.46967C14.6103 4.32902 14.8011 4.25 15 4.25H19.5C19.6989 4.25 19.8897 4.32902 20.0303 4.46967C20.171 4.61032 20.25 4.80109 20.25 5ZM9.96937 13.4694L5.25 18.1897V15.5C5.25 15.3011 5.17098 15.1103 5.03033 14.9697C4.88968 14.829 4.69891 14.75 4.5 14.75C4.30109 14.75 4.11032 14.829 3.96967 14.9697C3.82902 15.1103 3.75 15.3011 3.75 15.5V20C3.75 20.1989 3.82902 20.3897 3.96967 20.5303C4.11032 20.671 4.30109 20.75 4.5 20.75H9C9.19891 20.75 9.38968 20.671 9.53033 20.5303C9.67098 20.3897 9.75 20.1989 9.75 20C9.75 19.8011 9.67098 19.6103 9.53033 19.4697C9.38968 19.329 9.19891 19.25 9 19.25H6.31031L11.0306 14.5306C11.1714 14.3899 11.2504 14.199 11.2504 14C11.2504 13.801 11.1714 13.6101 11.0306 13.4694C10.8899 13.3286 10.699 13.2496 10.5 13.2496C10.301 13.2496 10.1101 13.3286 9.96937 13.4694Z" fill="white" />
</svg>