<svg xmlns="http://www.w3.org/2000/svg" width="24" height="24" viewBox="0 0 32 32" fill="none">
    <path d="M29.0175 17.955C28.9211 17.8588 28.8004 17.7907 28.6683 17.7579C28.5362 17.725 28.3976 17.7288 28.2675 17.7688C26.3175 18.3582 24.244 18.4074 22.2682 17.9113C20.2924 17.4152 18.4882 16.3923 17.0479 14.9516C15.6076 13.5109 14.5852 11.7064 14.0896 9.73049C13.594 7.75454 13.6438 5.68114 14.2337 3.73126C14.2731 3.60124 14.2765 3.46294 14.2434 3.33116C14.2103 3.19938 14.1421 3.07906 14.0459 2.98305C13.9498 2.88704 13.8294 2.81895 13.6976 2.78605C13.5657 2.75315 13.4275 2.75668 13.2975 2.79626C10.7119 3.5895 8.44227 5.1777 6.81123 7.33501C4.96231 9.79013 4.06245 12.8305 4.2773 15.8964C4.49215 18.9623 5.80724 21.8475 7.9805 24.0207C10.1538 26.194 13.0389 27.5091 16.1048 27.7239C19.1708 27.9388 22.2111 27.0389 24.6662 25.19C26.8236 23.559 28.4117 21.2893 29.205 18.7038C29.2445 18.5737 29.248 18.4353 29.215 18.3034C29.1819 18.1715 29.1137 18.0511 29.0175 17.955ZM23.7675 23.9913C21.601 25.6161 18.9212 26.4049 16.22 26.213C13.5188 26.021 10.9774 24.8611 9.06253 22.9462C7.14766 21.0313 5.98776 18.49 5.79579 15.7888C5.60382 13.0875 6.39266 10.4077 8.01748 8.24126C9.1748 6.70679 10.7024 5.49096 12.4575 4.70751C12.088 6.73704 12.2162 8.8259 12.831 10.795C13.4459 12.7642 14.5291 14.5548 15.9878 16.0135C17.4464 17.4722 19.2371 18.5554 21.2062 19.1702C23.1753 19.7851 25.2642 19.9133 27.2937 19.5438C26.5124 21.3011 25.2978 22.8314 23.7637 23.9913H23.7675Z" fill="currentColor" />
</svg>