<svg xmlns="http://www.w3.org/2000/svg" width="20" height="20" viewBox="0 0 20 20" fill="none">
    <path d="M16.7863 14.0719C16.7441 14.1425 16.6883 14.204 16.6222 14.253C16.5561 14.302 16.481 14.3375 16.4011 14.3574C16.3213 14.3773 16.2383 14.3812 16.1569 14.3689C16.0755 14.3567 15.9974 14.3285 15.927 14.2859L10.6254 11.1039V16.875C10.6254 17.0408 10.5596 17.1997 10.4423 17.3169C10.3251 17.4342 10.1662 17.5 10.0004 17.5C9.83464 17.5 9.67567 17.4342 9.55846 17.3169C9.44125 17.1997 9.3754 17.0408 9.3754 16.875V11.1039L4.07228 14.2859C4.00187 14.3292 3.92358 14.3581 3.84195 14.3709C3.76031 14.3837 3.67695 14.3801 3.59668 14.3605C3.51641 14.3409 3.44083 14.3055 3.37431 14.2565C3.30779 14.2075 3.25166 14.1458 3.20915 14.0749C3.16664 14.004 3.13861 13.9255 3.12667 13.8437C3.11474 13.7619 3.11913 13.6786 3.13961 13.5985C3.16008 13.5185 3.19623 13.4433 3.24595 13.3773C3.29568 13.3113 3.358 13.2558 3.42931 13.2141L8.78556 10L3.42931 6.78594C3.358 6.74418 3.29568 6.6887 3.24595 6.62271C3.19623 6.55671 3.16008 6.48151 3.13961 6.40145C3.11913 6.3214 3.11474 6.23808 3.12667 6.15631C3.13861 6.07454 3.16664 5.99595 3.20915 5.92509C3.25166 5.85423 3.30779 5.7925 3.37431 5.74348C3.44083 5.69445 3.51641 5.6591 3.59668 5.63948C3.67695 5.61985 3.76031 5.61634 3.84195 5.62914C3.92358 5.64194 4.00187 5.67081 4.07228 5.71406L9.3754 8.89609V3.125C9.3754 2.95924 9.44125 2.80027 9.55846 2.68306C9.67567 2.56585 9.83464 2.5 10.0004 2.5C10.1662 2.5 10.3251 2.56585 10.4423 2.68306C10.5596 2.80027 10.6254 2.95924 10.6254 3.125V8.89609L15.9285 5.71406C15.9989 5.67081 16.0772 5.64194 16.1589 5.62914C16.2405 5.61634 16.3239 5.61985 16.4041 5.63948C16.4844 5.6591 16.56 5.69445 16.6265 5.74348C16.693 5.7925 16.7491 5.85423 16.7917 5.92509C16.8342 5.99595 16.8622 6.07454 16.8741 6.15631C16.8861 6.23808 16.8817 6.3214 16.8612 6.40145C16.8407 6.48151 16.8046 6.55671 16.7549 6.62271C16.7051 6.6887 16.6428 6.74418 16.5715 6.78594L11.2152 10L16.5715 13.2141C16.642 13.2563 16.7034 13.3119 16.7524 13.3779C16.8013 13.4438 16.8367 13.5188 16.8567 13.5984C16.8767 13.6781 16.8807 13.7609 16.8686 13.8422C16.8566 13.9234 16.8286 14.0015 16.7863 14.0719Z" fill="white" />
</svg>