<svg xmlns="http://www.w3.org/2000/svg" width="14" height="14" viewBox="0 0 14 14" fill="none">
    <path d="M11.8125 2.625H9.625V2.1875C9.625 1.8394 9.48672 1.50556 9.24058 1.25942C8.99444 1.01328 8.6606 0.875 8.3125 0.875H5.6875C5.3394 0.875 5.00556 1.01328 4.75942 1.25942C4.51328 1.50556 4.375 1.8394 4.375 2.1875V2.625H2.1875C2.07147 2.625 1.96019 2.67109 1.87814 2.75314C1.79609 2.83519 1.75 2.94647 1.75 3.0625C1.75 3.17853 1.79609 3.28981 1.87814 3.37186C1.96019 3.45391 2.07147 3.5 2.1875 3.5H2.625V11.375C2.625 11.6071 2.71719 11.8296 2.88128 11.9937C3.04538 12.1578 3.26794 12.25 3.5 12.25H10.5C10.7321 12.25 10.9546 12.1578 11.1187 11.9937C11.2828 11.8296 11.375 11.6071 11.375 11.375V3.5H11.8125C11.9285 3.5 12.0398 3.45391 12.1219 3.37186C12.2039 3.28981 12.25 3.17853 12.25 3.0625C12.25 2.94647 12.2039 2.83519 12.1219 2.75314C12.0398 2.67109 11.9285 2.625 11.8125 2.625ZM5.25 2.1875C5.25 2.07147 5.29609 1.96019 5.37814 1.87814C5.46019 1.79609 5.57147 1.75 5.6875 1.75H8.3125C8.42853 1.75 8.53981 1.79609 8.62186 1.87814C8.70391 1.96019 8.75 2.07147 8.75 2.1875V2.625H5.25V2.1875ZM10.5 11.375H3.5V3.5H10.5V11.375ZM6.125 5.6875V9.1875C6.125 9.30353 6.07891 9.41481 5.99686 9.49686C5.91481 9.57891 5.80353 9.625 5.6875 9.625C5.57147 9.625 5.46019 9.57891 5.37814 9.49686C5.29609 9.41481 5.25 9.30353 5.25 9.1875V5.6875C5.25 5.57147 5.29609 5.46019 5.37814 5.37814C5.46019 5.29609 5.57147 5.25 5.6875 5.25C5.80353 5.25 5.91481 5.29609 5.99686 5.37814C6.07891 5.46019 6.125 5.57147 6.125 5.6875ZM8.75 5.6875V9.1875C8.75 9.30353 8.70391 9.41481 8.62186 9.49686C8.53981 9.57891 8.42853 9.625 8.3125 9.625C8.19647 9.625 8.08519 9.57891 8.00314 9.49686C7.92109 9.41481 7.875 9.30353 7.875 9.1875V5.6875C7.875 5.57147 7.92109 5.46019 8.00314 5.37814C8.08519 5.29609 8.19647 5.25 8.3125 5.25C8.42853 5.25 8.53981 5.29609 8.62186 5.37814C8.70391 5.46019 8.75 5.57147 8.75 5.6875Z" fill="currentColor" />
</svg>