<svg xmlns="http://www.w3.org/2000/svg" width="20" height="20" viewBox="0 0 20 20" fill="none">
    <path d="M18.7011 5.47658C18.639 5.28266 18.5206 5.11156 18.3611 4.98499C18.2015 4.85842 18.008 4.78208 17.805 4.76564L14.8972 4.51955L13.7628 1.87502C13.6828 1.68962 13.5502 1.53172 13.3815 1.42078C13.2127 1.30985 13.0152 1.25073 12.8132 1.25073C12.6113 1.25073 12.4138 1.30985 12.245 1.42078C12.0763 1.53172 11.9437 1.68962 11.8636 1.87502L10.7293 4.52033L7.82066 4.76564C7.61869 4.78187 7.42605 4.85754 7.26704 4.98311C7.10803 5.10869 6.98977 5.27854 6.92718 5.47125C6.86459 5.66396 6.86047 5.87088 6.91534 6.06593C6.97021 6.26097 7.08162 6.4354 7.2355 6.56721L9.4355 8.44221L8.77691 11.2336C8.73061 11.4293 8.74296 11.6342 8.81243 11.8229C8.8819 12.0116 9.00541 12.1756 9.16753 12.2945C9.33158 12.415 9.52749 12.4845 9.73078 12.4942C9.93406 12.5039 10.1357 12.4535 10.3105 12.3492L12.8105 10.8649L15.3105 12.3492C15.4853 12.4535 15.6869 12.5039 15.8902 12.4942C16.0935 12.4845 16.2894 12.415 16.4535 12.2945C16.6157 12.1757 16.7392 12.0117 16.8087 11.823C16.8782 11.6343 16.8905 11.4293 16.8441 11.2336L16.1855 8.44221L18.3847 6.56721C18.5395 6.43716 18.6522 6.26409 18.7085 6.06994C18.7649 5.87578 18.7623 5.66927 18.7011 5.47658ZM15.2746 7.58596C15.1306 7.70792 15.0233 7.86741 14.9645 8.04671C14.9058 8.226 14.8979 8.41807 14.9418 8.60158L15.5128 11.0235L13.3425 9.73361C13.1824 9.63811 12.9993 9.5877 12.8128 9.5877C12.6264 9.5877 12.4433 9.63811 12.2832 9.73361L10.1128 11.0156L10.6839 8.59377C10.7284 8.41035 10.7209 8.21816 10.6623 8.03876C10.6036 7.85937 10.4962 7.69986 10.3519 7.57814L8.4566 5.96721L10.9636 5.75471C11.1497 5.73909 11.328 5.6731 11.4794 5.56382C11.6308 5.45453 11.7496 5.30608 11.823 5.13439L12.8128 2.83127L13.8003 5.13439C13.8739 5.30598 13.9927 5.45434 14.1441 5.56361C14.2955 5.67287 14.4737 5.73893 14.6597 5.75471L17.1668 5.96721L15.2746 7.58596ZM6.69254 9.81721L2.31754 14.1922C2.20026 14.3095 2.0412 14.3754 1.87535 14.3754C1.7095 14.3754 1.55044 14.3095 1.43316 14.1922C1.31588 14.0749 1.25 13.9159 1.25 13.75C1.25 13.5842 1.31588 13.4251 1.43316 13.3078L5.80816 8.93283C5.92544 8.81556 6.0845 8.74967 6.25035 8.74967C6.4162 8.74967 6.57526 8.81556 6.69254 8.93283C6.80981 9.05011 6.87569 9.20917 6.8757 9.37502C6.8757 9.54087 6.80981 9.69993 6.69254 9.81721ZM7.94254 14.1922L3.56753 18.5672C3.50947 18.6253 3.44053 18.6713 3.36466 18.7028C3.28879 18.7342 3.20747 18.7504 3.12535 18.7504C3.04323 18.7504 2.96191 18.7342 2.88604 18.7028C2.81017 18.6713 2.74123 18.6253 2.68316 18.5672C2.62509 18.5091 2.57903 18.4402 2.5476 18.3643C2.51618 18.2885 2.5 18.2071 2.5 18.125C2.5 18.0429 2.51618 17.9616 2.5476 17.8857C2.57903 17.8098 2.62509 17.7409 2.68316 17.6828L7.05816 13.3078C7.17544 13.1906 7.3345 13.1247 7.50035 13.1247C7.6662 13.1247 7.82526 13.1906 7.94254 13.3078C8.05981 13.4251 8.12569 13.5842 8.1257 13.75C8.1257 13.9159 8.05981 14.0749 7.94254 14.1922ZM13.5675 13.3078C13.6256 13.3659 13.6717 13.4348 13.7032 13.5107C13.7347 13.5866 13.7508 13.6679 13.7508 13.75C13.7508 13.8322 13.7347 13.9135 13.7032 13.9894C13.6717 14.0652 13.6256 14.1342 13.5675 14.1922L9.19254 18.5672C9.13447 18.6253 9.06553 18.6713 8.98966 18.7028C8.91379 18.7342 8.83247 18.7504 8.75035 18.7504C8.66823 18.7504 8.58691 18.7342 8.51104 18.7028C8.43517 18.6713 8.36623 18.6253 8.30816 18.5672C8.25009 18.5091 8.20403 18.4402 8.1726 18.3643C8.14117 18.2885 8.125 18.2071 8.125 18.125C8.125 18.0429 8.14117 17.9616 8.1726 17.8857C8.20403 17.8098 8.25009 17.7409 8.30816 17.6828L12.6832 13.3078C12.7412 13.2497 12.8101 13.2036 12.886 13.1722C12.9619 13.1407 13.0432 13.1245 13.1253 13.1245C13.2075 13.1245 13.2888 13.1407 13.3647 13.1722C13.4406 13.2036 13.5095 13.2497 13.5675 13.3078Z" fill="white" />
</svg>