<svg xmlns="http://www.w3.org/2000/svg" width="14" height="14" viewBox="0 0 14 14" fill="none">
    <path d="M12.25 8.3126V11.3751C12.25 11.6072 12.1578 11.8297 11.9937 11.9938C11.8296 12.1579 11.6071 12.2501 11.375 12.2501H2.625C2.39294 12.2501 2.17038 12.1579 2.00628 11.9938C1.84219 11.8297 1.75 11.6072 1.75 11.3751V8.3126C1.75 8.19657 1.79609 8.08529 1.87814 8.00324C1.96019 7.92119 2.07147 7.8751 2.1875 7.8751C2.30353 7.8751 2.41481 7.92119 2.49686 8.00324C2.57891 8.08529 2.625 8.19657 2.625 8.3126V11.3751H11.375V8.3126C11.375 8.19657 11.4211 8.08529 11.5031 8.00324C11.5852 7.92119 11.6965 7.8751 11.8125 7.8751C11.9285 7.8751 12.0398 7.92119 12.1219 8.00324C12.2039 8.08529 12.25 8.19657 12.25 8.3126ZM5.12203 4.68463L6.5625 3.24362V8.3126C6.5625 8.42863 6.60859 8.53991 6.69064 8.62196C6.77269 8.70401 6.88397 8.7501 7 8.7501C7.11603 8.7501 7.22731 8.70401 7.30936 8.62196C7.39141 8.53991 7.4375 8.42863 7.4375 8.3126V3.24362L8.87797 4.68463C8.96006 4.76672 9.0714 4.81284 9.1875 4.81284C9.3036 4.81284 9.41494 4.76672 9.49703 4.68463C9.57912 4.60254 9.62524 4.4912 9.62524 4.3751C9.62524 4.259 9.57912 4.14766 9.49703 4.06557L7.30953 1.87807C7.2689 1.83739 7.22065 1.80512 7.16754 1.78311C7.11442 1.76109 7.05749 1.74976 7 1.74976C6.94251 1.74976 6.88558 1.76109 6.83246 1.78311C6.77935 1.80512 6.7311 1.83739 6.69047 1.87807L4.50297 4.06557C4.42088 4.14766 4.37476 4.259 4.37476 4.3751C4.37476 4.4912 4.42088 4.60254 4.50297 4.68463C4.58506 4.76672 4.6964 4.81284 4.8125 4.81284C4.9286 4.81284 5.03994 4.76672 5.12203 4.68463Z" fill="white" />
</svg>