<svg xmlns="http://www.w3.org/2000/svg" width="24" height="24" viewBox="0 0 24 24" fill="none">
    <path d="M13.125 12C13.125 12.2225 13.059 12.44 12.9354 12.625C12.8118 12.81 12.6361 12.9542 12.4305 13.0394C12.225 13.1245 11.9988 13.1468 11.7805 13.1034C11.5623 13.06 11.3618 12.9528 11.2045 12.7955C11.0472 12.6382 10.94 12.4377 10.8966 12.2195C10.8532 12.0012 10.8755 11.775 10.9606 11.5695C11.0458 11.3639 11.19 11.1882 11.375 11.0646C11.56 10.941 11.7775 10.875 12 10.875C12.2984 10.875 12.5845 10.9935 12.7955 11.2045C13.0065 11.4155 13.125 11.7016 13.125 12ZM12 6.75C12.2225 6.75 12.44 6.68402 12.625 6.5604C12.81 6.43679 12.9542 6.26109 13.0394 6.05552C13.1245 5.84995 13.1468 5.62375 13.1034 5.40552C13.06 5.1873 12.9528 4.98684 12.7955 4.82951C12.6382 4.67217 12.4377 4.56503 12.2195 4.52162C12.0012 4.47821 11.775 4.50049 11.5695 4.58564C11.3639 4.67078 11.1882 4.81498 11.0646 4.99998C10.941 5.18499 10.875 5.4025 10.875 5.625C10.875 5.92337 10.9935 6.20952 11.2045 6.4205C11.4155 6.63147 11.7016 6.75 12 6.75ZM12 17.25C11.7775 17.25 11.56 17.316 11.375 17.4396C11.19 17.5632 11.0458 17.7389 10.9606 17.9445C10.8755 18.15 10.8532 18.3762 10.8966 18.5945C10.94 18.8127 11.0472 19.0132 11.2045 19.1705C11.3618 19.3278 11.5623 19.435 11.7805 19.4784C11.9988 19.5218 12.225 19.4995 12.4305 19.4144C12.6361 19.3292 12.8118 19.185 12.9354 19C13.059 18.815 13.125 18.5975 13.125 18.375C13.125 18.0766 13.0065 17.7905 12.7955 17.5795C12.5845 17.3685 12.2984 17.25 12 17.25Z" fill="#506490" />
</svg>