<svg xmlns="http://www.w3.org/2000/svg" width="24" height="24" viewBox="0 0 24 24" fill="none">
    <path d="M22.201 17.6334L14.0026 3.39556C13.7977 3.04674 13.5052 2.75752 13.1541 2.55656C12.803 2.3556 12.4055 2.24988 12.001 2.24988C11.5965 2.24988 11.199 2.3556 10.8479 2.55656C10.4968 2.75752 10.2043 3.04674 9.99944 3.39556L1.80101 17.6334C1.60388 17.9708 1.5 18.3545 1.5 18.7453C1.5 19.136 1.60388 19.5197 1.80101 19.8571C2.00325 20.2081 2.29523 20.4989 2.64697 20.6997C2.99871 20.9005 3.39755 21.0041 3.80257 20.9999H20.1994C20.6041 21.0038 21.0026 20.9 21.354 20.6992C21.7054 20.4984 21.997 20.2078 22.1991 19.8571C22.3965 19.5199 22.5007 19.1363 22.5011 18.7455C22.5014 18.3548 22.3978 17.9709 22.201 17.6334ZM11.251 9.74994C11.251 9.55103 11.33 9.36026 11.4707 9.21961C11.6113 9.07896 11.8021 8.99994 12.001 8.99994C12.1999 8.99994 12.3907 9.07896 12.5313 9.21961C12.672 9.36026 12.751 9.55103 12.751 9.74994V13.4999C12.751 13.6989 12.672 13.8896 12.5313 14.0303C12.3907 14.1709 12.1999 14.2499 12.001 14.2499C11.8021 14.2499 11.6113 14.1709 11.4707 14.0303C11.33 13.8896 11.251 13.6989 11.251 13.4999V9.74994ZM12.001 17.9999C11.7785 17.9999 11.561 17.934 11.376 17.8103C11.191 17.6867 11.0468 17.511 10.9616 17.3055C10.8765 17.0999 10.8542 16.8737 10.8976 16.6555C10.941 16.4372 11.0482 16.2368 11.2055 16.0794C11.3628 15.9221 11.5633 15.815 11.7815 15.7716C11.9998 15.7281 12.226 15.7504 12.4315 15.8356C12.6371 15.9207 12.8128 16.0649 12.9364 16.2499C13.06 16.4349 13.126 16.6524 13.126 16.8749C13.126 17.1733 13.0075 17.4595 12.7965 17.6704C12.5855 17.8814 12.2994 17.9999 12.001 17.9999Z" fill="#FEC84B" />
</svg>