<?xml version="1.0" encoding="UTF-8" standalone="no"?>
<!DOCTYPE svg PUBLIC "-//W3C//DTD SVG 1.1//EN" "http://www.w3.org/Graphics/SVG/1.1/DTD/svg11.dtd">
<svg width="100%" height="100%" viewBox="0 0 17 17" version="1.1" xmlns="http://www.w3.org/2000/svg" xmlns:xlink="http://www.w3.org/1999/xlink" xml:space="preserve" xmlns:serif="http://www.serif.com/" style="fill-rule:evenodd;clip-rule:evenodd;stroke-linejoin:round;stroke-miterlimit:2;">
    <g transform="matrix(1,0,0,1,-1.676611,-1.74995)">
        <path d="M11.248,18.25C10.698,18.25 10.175,18.145 9.68,17.936C9.19,17.729 8.742,17.433 8.36,17.062C7.94,17.205 7.5,17.277 7.056,17.276C6.338,17.282 5.631,17.094 5.01,16.732C4.387,16.373 3.865,15.862 3.492,15.247C3.116,14.614 2.922,13.889 2.932,13.152C2.932,12.832 2.976,12.485 3.063,12.112C2.632,11.717 2.285,11.241 2.04,10.71C1.55,9.629 1.556,8.386 2.057,7.31C2.304,6.768 2.664,6.284 3.113,5.892C3.571,5.487 4.12,5.198 4.713,5.05C4.828,4.436 5.089,3.859 5.473,3.367C5.868,2.861 6.352,2.465 6.924,2.179C7.492,1.894 8.12,1.747 8.756,1.75C9.306,1.75 9.828,1.854 10.323,2.063C10.818,2.272 11.258,2.564 11.643,2.938C12.063,2.795 12.503,2.722 12.947,2.723C13.684,2.723 14.366,2.905 14.993,3.268C15.613,3.625 16.13,4.137 16.494,4.753C16.879,5.38 17.072,6.079 17.072,6.848C17.072,7.168 17.028,7.515 16.94,7.888C17.38,8.295 17.721,8.768 17.963,9.307C18.205,9.835 18.326,10.39 18.326,10.973C18.326,11.568 18.199,12.14 17.946,12.69C17.693,13.238 17.328,13.727 16.874,14.125C16.419,14.522 15.876,14.805 15.29,14.95C15.174,15.566 14.908,16.145 14.515,16.633C14.135,17.135 13.643,17.542 13.079,17.821C12.511,18.106 11.883,18.253 11.247,18.25M7.171,16.188C7.721,16.188 8.199,16.072 8.606,15.841L11.709,14.059C11.815,13.991 11.877,13.872 11.873,13.746L11.873,12.326L7.881,14.62C7.66,14.762 7.376,14.762 7.155,14.62L4.037,12.822C4.036,12.861 4.03,12.899 4.02,12.937L4.02,13.135C4.02,13.696 4.152,14.213 4.416,14.686C4.691,15.148 5.071,15.511 5.555,15.775C6.048,16.053 6.606,16.195 7.172,16.187M7.337,13.497C7.393,13.528 7.455,13.545 7.518,13.547C7.573,13.547 7.628,13.53 7.683,13.497L8.921,12.787L4.944,10.477C4.711,10.349 4.57,10.099 4.581,9.834L4.581,6.254C4.031,6.495 3.591,6.869 3.261,7.376C2.933,7.863 2.76,8.439 2.766,9.026C2.766,9.565 2.904,10.082 3.179,10.576C3.454,11.071 3.811,11.446 4.251,11.699L7.337,13.497ZM11.247,17.16C11.83,17.16 12.359,17.028 12.832,16.764C13.791,16.237 14.383,15.219 14.366,14.124L14.366,10.56C14.372,10.438 14.308,10.322 14.201,10.263L12.947,9.537L12.947,14.141C12.958,14.406 12.817,14.656 12.584,14.784L9.465,16.583C9.982,16.961 10.607,17.163 11.248,17.16M11.875,11.121L11.875,8.878L10.01,7.822L8.129,8.878L8.129,11.122L10.01,12.178L11.875,11.121ZM7.057,5.859C7.046,5.593 7.187,5.343 7.42,5.215L10.539,3.417C10.022,3.039 9.397,2.837 8.757,2.839C8.174,2.839 7.646,2.971 7.173,3.235C6.708,3.491 6.32,3.867 6.05,4.324C5.783,4.797 5.647,5.332 5.654,5.875L5.654,9.422C5.654,9.555 5.709,9.659 5.819,9.736L7.056,10.462L7.057,5.859ZM15.44,13.746C15.99,13.503 16.424,13.129 16.743,12.623C17.073,12.118 17.238,11.568 17.238,10.973C17.237,10.429 17.095,9.895 16.826,9.423C16.551,8.928 16.193,8.553 15.753,8.3L12.667,6.518C12.601,6.475 12.541,6.458 12.486,6.469C12.427,6.469 12.37,6.487 12.321,6.519L11.083,7.211L15.076,9.538C15.19,9.596 15.282,9.688 15.34,9.802C15.409,9.91 15.444,10.037 15.44,10.165L15.44,13.746ZM12.123,5.364C12.34,5.211 12.632,5.211 12.849,5.364L15.984,7.195L15.984,6.898C15.984,6.37 15.852,5.87 15.588,5.397C15.337,4.915 14.954,4.514 14.483,4.242C14.01,3.955 13.46,3.812 12.833,3.812C12.283,3.812 11.804,3.928 11.397,4.159L8.294,5.941C8.188,6.009 8.125,6.129 8.129,6.255L8.129,7.673L12.123,5.364Z" style="fill-rule:nonzero;"/>
    </g>
</svg>
