<?xml version="1.0" encoding="UTF-8"?>
<svg id="Layer_2" data-name="Layer 2" xmlns="http://www.w3.org/2000/svg" viewBox="0 0 159.08 28.35">
  <defs>
    <style>
      .cls-1 {
        fill: #3cf;
      }

      .cls-1, .cls-2, .cls-3, .cls-4 {
        stroke-width: 0px;
      }

      .cls-2 {
        fill: #0cc;
      }

      .cls-3 {
        fill: #036;
      }

      .cls-4 {
        fill: #005dcc;
      }
    </style>
  </defs>
  <g id="Layer_1-2" data-name="Layer 1">
    <g>
      <g>
        <path class="cls-4" d="m28.71,14.36c-.1,3.74-1.65,7.3-4.33,9.91s-6.28,4.07-10.02,4.08c-3.74,0-7.34-1.46-10.02-4.07C1.66,21.67.1,18.11,0,14.37h13.17v3.59c0,.32.13.62.35.85.22.22.53.35.85.35s.62-.13.85-.35c.22-.22.35-.53.35-.85v-3.6h13.16Z"/>
        <path class="cls-2" d="m13.16,5.99L0,8.52v5.83h13.16V5.99Z"/>
        <path class="cls-1" d="m28.71,0l-13.17,2.57v11.78h13.17V0Z"/>
      </g>
      <path class="cls-3" d="m50.35,0h2.87v14.66c0,2.42-.63,4.21-1.89,5.35-1.24,1.12-3.13,1.68-5.65,1.68s-4.41-.56-5.65-1.68c-1.24-1.14-1.86-2.92-1.86-5.35V0h2.87v15.06c0,1.38.42,2.39,1.25,3.02.86.61,1.98.92,3.36.92s2.57-.31,3.42-.92c.86-.63,1.28-1.64,1.28-3.02V0Zm6.69,28.35v-14.3c0-1.06.19-2.06.58-2.99.39-.94.92-1.74,1.59-2.41.67-.69,1.47-1.23,2.38-1.62.92-.41,1.89-.61,2.93-.61s2.01.2,2.9.61c.92.39,1.71.93,2.38,1.62.69.69,1.23,1.51,1.62,2.44.39.92.58,1.9.58,2.96s-.19,2.06-.58,2.99c-.37.92-.89,1.72-1.56,2.41-.67.69-1.47,1.24-2.38,1.65-.92.39-1.9.58-2.96.58-1.3,0-2.51-.31-3.63-.92v-2.75c1,.73,2.18,1.1,3.54,1.1.73,0,1.39-.12,1.99-.37.61-.26,1.12-.62,1.53-1.07.43-.45.75-.98.98-1.59.22-.63.34-1.31.34-2.05s-.11-1.41-.34-2.02c-.22-.63-.54-1.17-.95-1.62-.41-.45-.91-.79-1.5-1.04-.57-.26-1.22-.4-1.95-.4s-1.36.12-1.95.37c-.57.24-1.07.59-1.5,1.04-.41.45-.72.99-.95,1.62-.22.61-.34,1.29-.34,2.05v14.3h-2.75Zm28.34-21.63v2.57h-5.41c-.59,0-1.1.11-1.53.34-.43.22-.64.54-.64.95,0,.24.05.47.15.67.1.18.21.34.34.46.14.12.35.25.61.4.29.12.5.21.64.27.16.04.81.24,1.95.61,1.14.37,1.99.67,2.54.92.55.24.97.58,1.25,1.01.31.41.5.81.58,1.22.08.39.12.77.12,1.16,0,2.73-1.87,4.09-5.62,4.09h-5.28v-2.57h5.28c1.91,0,2.87-.51,2.87-1.53,0-.49-.29-.9-.86-1.22-.55-.33-1.23-.6-2.05-.82-.79-.22-1.6-.48-2.41-.76-.79-.31-1.48-.78-2.05-1.44-.55-.67-.82-1.5-.82-2.47,0-1.24.48-2.19,1.44-2.84.96-.67,2.12-1.01,3.48-1.01h5.41Zm2.14,2.57l5.47-5.47v2.9h4.12v2.57h-4.12v6.29c0,.71.11,1.3.34,1.77.24.47.59.8,1.04,1.01.45.18.87.31,1.25.37.41.06.91.09,1.5.09v2.57c-2.34,0-4.07-.45-5.19-1.34-1.12-.9-1.68-2.38-1.68-4.46v-6.29h-2.72Zm12.05,12.1v-8.34c0-2.34.44-3.96,1.31-4.86.43-.45.95-.78,1.56-1.01.61-.22,1.14-.36,1.59-.4.47-.04,1.1-.06,1.89-.06h2.69v2.57h-3.24c-.41,0-.72.01-.95.03-.22.02-.49.09-.79.21-.31.12-.57.32-.79.58-.39.49-.58,1.47-.58,2.93v8.34h-2.69Zm19.17-8.61v2.75c-.77-.59-1.72-.89-2.84-.89-.96,0-1.7.19-2.23.58-.53.37-.79.9-.79,1.59,0,1.34,1,2.02,2.99,2.02h4.03v-5.83c0-2.46-1.2-3.7-3.6-3.7h-4.89v-2.57h5.04c1.98,0,3.49.49,4.55,1.47,1.06.98,1.59,2.38,1.59,4.22v8.98h-6.81c-1.73,0-3.11-.39-4.12-1.16s-1.53-1.9-1.53-3.39.54-2.62,1.62-3.39c1.08-.77,2.43-1.16,4.06-1.16.92,0,1.89.16,2.93.49Zm7.21,15.58v-14.3c0-1.06.19-2.06.58-2.99.39-.94.92-1.74,1.59-2.41.67-.69,1.47-1.23,2.38-1.62.92-.41,1.89-.61,2.93-.61s2.01.2,2.9.61c.92.39,1.71.93,2.38,1.62.69.69,1.23,1.51,1.62,2.44.39.92.58,1.9.58,2.96s-.19,2.06-.58,2.99c-.37.92-.89,1.72-1.56,2.41-.67.69-1.47,1.24-2.38,1.65-.92.39-1.9.58-2.96.58-1.3,0-2.51-.31-3.63-.92v-2.75c1,.73,2.18,1.1,3.54,1.1.73,0,1.39-.12,1.99-.37.61-.26,1.12-.62,1.53-1.07.43-.45.75-.98.98-1.59.22-.63.34-1.31.34-2.05s-.11-1.41-.34-2.02c-.22-.63-.54-1.17-.95-1.62s-.91-.79-1.5-1.04c-.57-.26-1.22-.4-1.95-.4s-1.36.12-1.95.37c-.57.24-1.07.59-1.5,1.04-.41.45-.72.99-.95,1.62-.22.61-.34,1.29-.34,2.05v14.3h-2.75Zm18.17,0v-14.3c0-1.06.19-2.06.58-2.99.39-.94.92-1.74,1.59-2.41.67-.69,1.47-1.23,2.38-1.62.92-.41,1.89-.61,2.93-.61s2.01.2,2.9.61c.92.39,1.71.93,2.38,1.62.69.69,1.23,1.51,1.62,2.44.39.92.58,1.9.58,2.96s-.19,2.06-.58,2.99c-.37.92-.89,1.72-1.56,2.41-.67.69-1.47,1.24-2.38,1.65-.92.39-1.9.58-2.96.58-1.3,0-2.51-.31-3.63-.92v-2.75c1,.73,2.18,1.1,3.54,1.1.73,0,1.39-.12,1.99-.37.61-.26,1.12-.62,1.53-1.07.43-.45.75-.98.98-1.59.22-.63.34-1.31.34-2.05s-.11-1.41-.34-2.02c-.22-.63-.54-1.17-.95-1.62s-.91-.79-1.5-1.04c-.57-.26-1.22-.4-1.95-.4s-1.36.12-1.95.37c-.57.24-1.07.59-1.5,1.04-.41.45-.72.99-.95,1.62-.22.61-.34,1.29-.34,2.05v14.3h-2.75Z"/>
    </g>
  </g>
</svg>