<svg width="41" height="40" viewBox="0 0 41 40" fill="none" xmlns="http://www.w3.org/2000/svg">
<g clip-path="url(#clip0_153_22051)">
<path fill-rule="evenodd" clip-rule="evenodd" d="M20.3558 0C9.09958 0 0 9.16667 0 20.5071C0 29.5721 5.83042 37.2454 13.9187 39.9612C14.93 40.1654 15.3004 39.52 15.3004 38.9771C15.3004 38.5017 15.2671 36.8721 15.2671 35.1742C9.60458 36.3967 8.42542 32.7296 8.42542 32.7296C7.51542 30.3529 6.16708 29.7421 6.16708 29.7421C4.31375 28.4858 6.30208 28.4858 6.30208 28.4858C8.35792 28.6217 9.43667 30.5908 9.43667 30.5908C11.2563 33.7142 14.1883 32.8317 15.3679 32.2883C15.5363 30.9642 16.0758 30.0475 16.6488 29.5383C12.1325 29.0629 7.38083 27.2975 7.38083 19.4204C7.38083 17.1796 8.18917 15.3462 9.47 13.9204C9.26792 13.4113 8.56 11.3058 9.6725 8.48792C9.6725 8.48792 11.3913 7.94458 15.2667 10.5929C16.9259 10.144 18.637 9.91567 20.3558 9.91375C22.0746 9.91375 23.8267 10.1517 25.4446 10.5929C29.3204 7.94458 31.0392 8.48792 31.0392 8.48792C32.1517 11.3058 31.4433 13.4113 31.2412 13.9204C32.5558 15.3462 33.3308 17.1796 33.3308 19.4204C33.3308 27.2975 28.5792 29.0287 24.0292 29.5383C24.7708 30.1833 25.4108 31.4054 25.4108 33.3408C25.4108 36.0908 25.3775 38.2979 25.3775 38.9767C25.3775 39.52 25.7483 40.1654 26.7592 39.9617C34.8475 37.245 40.6779 29.5721 40.6779 20.5071C40.7113 9.16667 31.5783 0 20.3558 0Z" fill="white"/>
</g>
<defs>
<clipPath id="clip0_153_22051">
<rect width="40.8333" height="40" fill="white"/>
</clipPath>
</defs>
</svg>
