<svg xmlns="http://www.w3.org/2000/svg" width="256" height="256" viewBox="0 0 256 256">
  <g id="logo_light_round_bg" transform="translate(6397.059)">
    <rect id="Rectangle_3" data-name="Rectangle 3" width="256" height="256" rx="128" transform="translate(-6397.059 0)" fill="#222"/>
    <g id="Group_6" data-name="Group 6" transform="translate(-6381.559 100.408)">
      <path id="Path_25" data-name="Path 25" d="M-6191.774,488.579a18.783,18.783,0,0,0,3.447-.318,4.587,4.587,0,0,0,2.976-1.97,8.614,8.614,0,0,0,1.061-4.869,13.773,13.773,0,0,0-2.18-7.68,15.156,15.156,0,0,0-5.72-5.222,16.978,16.978,0,0,0-15.94.241,16.834,16.834,0,0,0-5.927,5.592,14.034,14.034,0,0,0-2.258,7.748v7.275a14.611,14.611,0,0,0,2.377,8.347,15.98,15.98,0,0,0,6.465,5.532,23.61,23.61,0,0,0,9.43,1.963,23.568,23.568,0,0,0,6.742-.984,13.007,13.007,0,0,0,4.52-2.419,4.3,4.3,0,0,0,1.8-2.918l.008-.052,0-.052a4.371,4.371,0,0,0-.43-1.74,4.905,4.905,0,0,0-1.2-1.646,2.974,2.974,0,0,0-2.073-.759,4.665,4.665,0,0,0-2.4.769,27.9,27.9,0,0,1-2.725,1.424,9.9,9.9,0,0,1-4.133.721,10.281,10.281,0,0,1-6.707-2.132,6.935,6.935,0,0,1-2.554-5.656v-1.192Zm-15.425-8.023a6.038,6.038,0,0,1,.965-3.428,6.843,6.843,0,0,1,2.593-2.334,7.584,7.584,0,0,1,3.613-.855,7.427,7.427,0,0,1,3.666.895,6.36,6.36,0,0,1,2.508,2.465,6.821,6.821,0,0,1,.912,3.432l0,.074a1.748,1.748,0,0,1-.368,1.315,3.222,3.222,0,0,1-1.811.344l-12.068,0-.015-1.9Z" transform="translate(6246.004 -450.397)" fill="#f24462"/>
      <path id="Path_26" data-name="Path 26" d="M-6058.379,425.224h8.67a2.376,2.376,0,0,0,2.137-1.2,4.629,4.629,0,0,0,.008-4.727,2.381,2.381,0,0,0-2.135-1.22h-8.68V405.122a2.744,2.744,0,0,0-1.609-2.381,6.015,6.015,0,0,0-2.968-.788h-.057a5.808,5.808,0,0,0-2.925.792,2.727,2.727,0,0,0-1.566,2.4l0,39.059a11.826,11.826,0,0,0,3.6,9.6l.057.048a15.5,15.5,0,0,0,9.168,3.029c.344,0,.688-.012,1.032-.035l2.537,0a3.737,3.737,0,0,0,3.111-1.3,4.324,4.324,0,0,0-.019-5.567,3.774,3.774,0,0,0-3.039-1.224h-2.591l-.061,0a5.222,5.222,0,0,1-3.668-1,4.872,4.872,0,0,1-1-3.5Z" transform="translate(6134.425 -401.872)" fill="#f24462"/>
      <path id="Path_27" data-name="Path 27" d="M-6312.827,448.654h-8.331l-.062,0a5.174,5.174,0,0,1-3.662-1.008,4.961,4.961,0,0,1-1-3.544V405.141a2.77,2.77,0,0,0-1.608-2.4,5.973,5.973,0,0,0-2.972-.8h-.057a5.765,5.765,0,0,0-2.928.8,2.753,2.753,0,0,0-1.566,2.423l0,38.889a12.014,12.014,0,0,0,3.595,9.7l.057.049a15.4,15.4,0,0,0,9.172,3.061c.344,0,.688-.012,1.032-.036l8.276,0a3.726,3.726,0,0,0,3.116-1.314,4.4,4.4,0,0,0-.02-5.617A3.76,3.76,0,0,0-6312.827,448.654Z" transform="translate(6335.059 -401.863)" fill="#f24462"/>
      <path id="Path_28" data-name="Path 28" d="M-5932.921,488.089l-.014-.023a10.726,10.726,0,0,0-3.6-3.493,19.03,19.03,0,0,0-4.578-1.944c-1.547-.422-3.049-.849-4.482-1.273a10.744,10.744,0,0,1-3.23-1.441,2.442,2.442,0,0,1-1.04-2.127,3.248,3.248,0,0,1,.513-1.689,4.393,4.393,0,0,1,1.707-1.524,6.8,6.8,0,0,1,3.287-.667,10.458,10.458,0,0,1,3.513.505,21.624,21.624,0,0,1,2.557,1.068,5.114,5.114,0,0,0,2.167.649,2.66,2.66,0,0,0,2.077-.924,6.183,6.183,0,0,0,1.117-1.831,5.148,5.148,0,0,0,.43-1.726,3.4,3.4,0,0,0-1.952-2.761,15,15,0,0,0-4.409-1.716,24.475,24.475,0,0,0-5.564-.627,15.861,15.861,0,0,0-7.924,1.718,10.693,10.693,0,0,0-4.365,4.457,12.071,12.071,0,0,0-1.357,5.415,9.242,9.242,0,0,0,1.428,5.407,9.7,9.7,0,0,0,3.623,3.18,23.368,23.368,0,0,0,4.545,1.766c1.551.435,3.034.885,4.423,1.344a9.641,9.641,0,0,1,3.205,1.682,3.288,3.288,0,0,1,1.128,2.657,3.324,3.324,0,0,1-1.11,2.4,6.8,6.8,0,0,1-4.7,1.191l-.046-.006-.047,0a11.383,11.383,0,0,1-4.812-.832,15.051,15.051,0,0,1-2.773-1.664,4.032,4.032,0,0,0-2.484-1.034,2.55,2.55,0,0,0-1.8.778,5.039,5.039,0,0,0-1.5,3.379v.039l0,.039a4.4,4.4,0,0,0,1.929,3.272,14.111,14.111,0,0,0,4.853,2.441,23.066,23.066,0,0,0,6.8.943q.5.032.991.032a15.412,15.412,0,0,0,9.225-3.081,10.233,10.233,0,0,0,3.657-8.154A10.678,10.678,0,0,0-5932.921,488.089Z" transform="translate(6053.005 -450.303)" fill="#f24462"/>
      <path id="Path_29" data-name="Path 29" d="M-5824.676,409.074a4.8,4.8,0,0,0,.772-2.622,4.459,4.459,0,0,0-.814-2.626l-.053-.073a3.64,3.64,0,0,0-3.08-1.4h-30.323a3.572,3.572,0,0,0-3.048,1.491,4.572,4.572,0,0,0-.011,5.341,3.583,3.583,0,0,0,3.061,1.512h10.727v42.63a3.448,3.448,0,0,0,1.715,3.125,5.269,5.269,0,0,0,2.726.753h.06a5.363,5.363,0,0,0,2.677-.716,3.478,3.478,0,0,0,1.8-3.147V410.685h10.627A3.559,3.559,0,0,0-5824.676,409.074Z" transform="translate(5980.332 -402.167)" fill="#fff"/>
      <path id="Path_30" data-name="Path 30" d="M-5534.064,450.286l-12.157-17.7,9.814-8.574.081-.074a3.767,3.767,0,0,0,.89-1.362l.032-.092a4.209,4.209,0,0,0,.206-1.3,3.965,3.965,0,0,0-.747-2.382,4.712,4.712,0,0,0-1.61-1.426,4.449,4.449,0,0,0-2.136-.548h-.059l-.06,0a3.959,3.959,0,0,0-2.335.952l-15.2,13.455V405.461a3.553,3.553,0,0,0-1.65-3.037,5.144,5.144,0,0,0-2.854-.792,5.046,5.046,0,0,0-2.755.792,3.543,3.543,0,0,0-1.65,3.009v47.352a3.717,3.717,0,0,0,1.479,2.852,4.56,4.56,0,0,0,2.927,1.029,4.784,4.784,0,0,0,3-1.023,3.712,3.712,0,0,0,1.49-2.863V442.366l4.612-4.044,11.478,16.751a3.8,3.8,0,0,0,3.157,1.741h.07a4.744,4.744,0,0,0,2.143-.57,4.625,4.625,0,0,0,1.74-1.616,4.153,4.153,0,0,0,.7-2.164A3.837,3.837,0,0,0-5534.064,450.286Z" transform="translate(5758.455 -401.631)" fill="#fff"/>
      <path id="Path_31" data-name="Path 31" d="M-5705.888,467.083a16.376,16.376,0,0,0-8.028-2.106h-.093a16.1,16.1,0,0,0-8.214,2.144,17.032,17.032,0,0,0-5.914,5.6,14.089,14.089,0,0,0-2.3,7.768v7.874a14.258,14.258,0,0,0,2.321,7.826,17.55,17.55,0,0,0,5.947,5.713,15.793,15.793,0,0,0,8.06,2.2h.145a15.961,15.961,0,0,0,8.085-2.184,16.8,16.8,0,0,0,5.955-5.755,14.454,14.454,0,0,0,2.287-7.785v-7.858a14.1,14.1,0,0,0-2.292-7.9A16.689,16.689,0,0,0-5705.888,467.083Zm-.634,13.4v7.878a6.817,6.817,0,0,1-1.024,3.557,8.365,8.365,0,0,1-2.749,2.829,6.7,6.7,0,0,1-3.7,1.031h-.1a6.769,6.769,0,0,1-3.616-1.036,8.288,8.288,0,0,1-2.8-2.847,6.809,6.809,0,0,1-1-3.526V480.49a6.317,6.317,0,0,1,.989-3.369,8.7,8.7,0,0,1,2.778-2.793A6.916,6.916,0,0,1-5714,473.3a7.007,7.007,0,0,1,3.759,1.043,8.125,8.125,0,0,1,2.752,2.784A6.431,6.431,0,0,1-5706.521,480.487Z" transform="translate(5881.589 -449.14)" fill="#fff"/>
      <g id="Path_2147" data-name="Path 2147" transform="translate(92.02 0.047)">
        <path id="Path_32" data-name="Path 32" d="M-5965.874,401.935l11.341,7.371a.715.715,0,0,1,0,1.2l-11.341,7.37a.715.715,0,0,1-1.1-.6V402.535A.715.715,0,0,1-5965.874,401.935Z" transform="translate(5966.979 -401.818)" fill="#fff"/>
      </g>
    </g>
  </g>
</svg>
