<svg width="36" height="36" viewBox="0 0 36 36" fill="none" xmlns="http://www.w3.org/2000/svg">
<rect width="36" height="36" rx="18" fill="#22394F"/>
<path d="M22.375 14.9977V14.5625C22.375 12.6031 19.4195 11.125 15.5 11.125C11.5805 11.125 8.625 12.6031 8.625 14.5625V17.6875C8.625 19.3195 10.6758 20.6164 13.625 21.0047V21.4375C13.625 23.3969 16.5805 24.875 20.5 24.875C24.4195 24.875 27.375 23.3969 27.375 21.4375V18.3125C27.375 16.6953 25.3891 15.3969 22.375 14.9977ZM26.125 18.3125C26.125 19.3453 23.7195 20.5 20.5 20.5C20.2086 20.5 19.9195 20.4898 19.6344 20.4711C21.3195 19.857 22.375 18.8594 22.375 17.6875V16.2609C24.7086 16.6086 26.125 17.5523 26.125 18.3125ZM13.625 19.7383V17.8797C14.2467 17.9607 14.873 18.0009 15.5 18C16.127 18.0009 16.7533 17.9607 17.375 17.8797V19.7383C16.7542 19.83 16.1275 19.8757 15.5 19.875C14.8725 19.8757 14.2458 19.83 13.625 19.7383ZM21.125 16.5883V17.6875C21.125 18.343 20.1555 19.0469 18.625 19.4742V17.6484C19.6336 17.4039 20.4875 17.0398 21.125 16.5883ZM15.5 12.375C18.7195 12.375 21.125 13.5297 21.125 14.5625C21.125 15.5953 18.7195 16.75 15.5 16.75C12.2805 16.75 9.875 15.5953 9.875 14.5625C9.875 13.5297 12.2805 12.375 15.5 12.375ZM9.875 17.6875V16.5883C10.5125 17.0398 11.3664 17.4039 12.375 17.6484V19.4742C10.8445 19.0469 9.875 18.343 9.875 17.6875ZM14.875 21.4375V21.1117C15.0805 21.1195 15.2883 21.125 15.5 21.125C15.8031 21.125 16.0992 21.1148 16.3898 21.0977C16.7127 21.2132 17.0416 21.3113 17.375 21.3914V23.2242C15.8445 22.7969 14.875 22.093 14.875 21.4375ZM18.625 23.4883V21.625C19.2465 21.7085 19.8729 21.7503 20.5 21.75C21.127 21.7509 21.7533 21.7107 22.375 21.6297V23.4883C21.1316 23.6706 19.8684 23.6706 18.625 23.4883ZM23.625 23.2242V21.3984C24.6336 21.1539 25.4875 20.7898 26.125 20.3383V21.4375C26.125 22.093 25.1555 22.7969 23.625 23.2242Z" fill="#8B90FF"/>
</svg>
