<svg xmlns="http://www.w3.org/2000/svg" xmlns:xlink="http://www.w3.org/1999/xlink" version="1.1" x="0px" y="0px" style="enable-background:new 0 0 485.5 142;" xml:space="preserve" viewBox="3 4 138.5 134.02">
<style type="text/css">
	.st0{display:none;}
	.st1{display:inline;fill:#080B13;}
	.st2{enable-background:new    ;}
	.st3{fill:#FFFFFF;}
	.st4{fill:url(#SVGID_1_);}
</style>
<g class="st2">
	<g>
		<path class="st3" d="M141.5,33.7c-4-1.1-7.5-2.4-11.1-3.2c-6-1.3-9.4-4.8-10.7-10.7c-0.8-3.4-1.9-6.7-2.9-10.1    c0-0.2-0.2-0.3-0.3-0.7c-1.2,4.1-2.4,8-3.6,11.9c-0.3,1-0.7,2.1-1.1,3.1c-0.9,2.3-2.5,4.1-4.9,4.9c-4.3,1.4-8.7,2.7-13.1,4.1    c-0.6,0.2-1.3,0.4-2.3,0.7c3.7,1.1,7,2,10.4,3c1.5,0.4,3,0.9,4.4,1.4c2.9,1,4.8,2.9,5.8,5.8c1.5,4.7,2.9,9.4,4.4,14.2    c0.1-0.3,0.3-0.6,0.4-0.9c1.3-4.3,2.6-8.6,3.9-12.9c1-3.4,3.3-5.6,6.7-6.6C132,36.6,136.5,35.2,141.5,33.7z"/>
		<path class="st3" d="M98.1,4c-0.7,2.2-1.3,4-1.7,5.8c-0.6,2.3-2,3.6-4.2,4.1c-1.8,0.5-3.7,1.1-5.9,1.7c2.3,0.7,4.2,1.3,6.2,1.8    c2.1,0.6,3.3,1.8,3.9,3.9c0.5,1.9,1.1,3.7,1.8,5.9c0.6-2.1,1.2-3.7,1.6-5.4c0.6-2.4,2-4,4.5-4.6c1.8-0.4,3.5-1,5.7-1.6    c-1.2-0.4-2-0.6-2.8-0.9c-6.6-1.9-6.2-1.6-8.1-7.9C98.7,6.1,98.4,5.3,98.1,4z"/>
	</g>
	<g id="Vector_Smart_Object_xA0_Image_00000107568830299365483660000013795074849348738710_">
		<linearGradient id="SVGID_1_" gradientUnits="userSpaceOnUse" x1="2.9587" y1="85.8536" x2="109.8734" y2="85.8536">
			<stop offset="0" style="stop-color:#713CE2"/>
			<stop offset="1" style="stop-color:#6730D9"/>
		</linearGradient>
		<path class="st4" d="M56.4,33.7C26.9,33.7,3,57.6,3,87.2c0,23,14.7,43.4,36.6,50.7c2.7,0.5,3.7-1.1,3.7-2.5    c0-0.8,0.1-8.4,0.1-15.5c0-4.4,0.8-7,2.8-8.6c-10.3-4.1-17.6-14.2-17.6-25.9c0-15.4,12.5-27.9,27.9-27.9    c15.4,0,27.9,12.5,27.9,27.9c0,11.8-7.3,21.8-17.6,25.9c1.4,1.3,3.3,3.3,3.1,9.4c-0.3,7.1-0.1,12.9-0.1,14.7c0,1.4,1,3.1,3.7,2.5    c21.8-7.3,36.4-27.8,36.4-50.7C109.9,57.6,86,33.7,56.4,33.7z"/>
	</g>
</g>
</svg>