<svg width="145" height="160" viewBox="0 0 145 160" fill="none" xmlns="http://www.w3.org/2000/svg">
<path d="M23.67 27.5459C23.7772 29.2774 23.9284 31.2308 24.101 33.4605L30.3317 113.972C31.0281 122.971 31.3764 127.47 33.3936 130.772C35.168 133.676 37.8163 135.944 40.9588 137.25C44.5314 138.735 49.0308 138.387 58.0295 137.691L119.694 132.918C125.528 132.467 129.471 132.162 132.422 131.453C131.433 133.777 129.905 135.847 127.952 137.486C124.988 139.972 120.59 140.987 111.796 143.015L51.529 156.917C42.7343 158.945 38.337 159.96 34.583 159.023C31.281 158.199 28.3246 156.351 26.1375 153.743C23.6511 150.779 22.6367 146.382 20.6081 137.587L2.45777 58.901C0.42913 50.1063 -0.585193 45.709 0.351525 41.9551C1.17549 38.653 3.02365 35.6966 5.63114 33.5095C8.59546 31.0231 12.9928 30.0088 21.7875 27.9801L23.67 27.5459Z" fill="#612BD3"/>
<path d="M26.5624 33.2683C26.2111 28.7284 25.9609 25.4713 25.9719 22.8993C25.9828 20.3562 26.2536 18.7014 26.8213 17.3359C27.9276 14.6747 29.848 12.4321 32.3073 10.9295C33.5692 10.1585 35.1627 9.63635 37.6738 9.23431C40.2134 8.82769 43.4702 8.57372 48.0102 8.22237L109.675 3.45015C114.215 3.0988 117.472 2.84866 120.044 2.85968C122.587 2.87059 124.242 3.14131 125.607 3.70902C128.269 4.81537 130.511 6.73578 132.014 9.19502C132.785 10.4569 133.307 12.0504 133.709 14.5615C134.116 17.1012 134.37 20.358 134.721 24.898L140.952 105.41C141.303 109.95 141.553 113.207 141.542 115.779C141.531 118.322 141.261 119.976 140.693 121.342C139.586 124.003 137.666 126.246 135.207 127.748C133.945 128.519 132.351 129.041 129.84 129.444C127.301 129.85 124.044 130.104 119.504 130.455L57.8391 135.228C53.2992 135.579 50.0421 135.829 47.4701 135.818C44.927 135.807 43.2722 135.537 41.9067 134.969C39.2455 133.862 37.0029 131.942 35.5003 129.483C34.7293 128.221 34.2072 126.627 33.8051 124.116C33.3985 121.577 33.1445 118.32 32.7932 113.78L26.5624 33.2683Z" stroke="#131019" stroke-width="4.93733"/>
<path d="M48.2009 10.6828L109.866 5.91061C114.446 5.55612 117.586 5.31699 120.034 5.32748C122.424 5.33773 123.715 5.59492 124.66 5.98769C126.84 6.89391 128.677 8.46693 129.907 10.4813C130.441 11.3544 130.894 12.5911 131.272 14.951C131.659 17.3679 131.905 20.507 132.26 25.0876L138.491 105.599C138.845 110.18 139.084 113.319 139.074 115.767C139.063 118.157 138.806 119.449 138.413 120.393C137.507 122.573 135.934 124.41 133.92 125.641C133.047 126.174 131.81 126.627 129.45 127.005C127.033 127.392 123.894 127.639 119.314 127.993L57.6488 132.766C53.0683 133.12 49.9286 133.359 47.4808 133.349C45.0909 133.338 43.7993 133.081 42.8545 132.688C40.6748 131.782 38.8379 130.209 37.6071 128.195C37.0736 127.322 36.6207 126.085 36.2429 123.725C35.8559 121.308 35.6092 118.169 35.2547 113.589L29.0239 33.077C28.6694 28.4964 28.4303 25.3567 28.4408 22.909C28.451 20.5191 28.7082 19.2275 29.101 18.2827C30.0072 16.1029 31.5802 14.266 33.5946 13.0352C34.4677 12.5018 35.7044 12.0489 38.0642 11.6711C40.4812 11.2841 43.6203 11.0373 48.2009 10.6828Z" fill="white"/>
<path d="M74.8847 29.3257L75.4745 36.9536C76.5328 35.644 77.9119 34.5142 79.6119 33.5643C81.3066 32.5466 83.4083 31.9407 85.9171 31.7468C88.2224 31.5685 90.4261 31.8415 92.5284 32.5657C94.6984 33.2846 96.6392 34.5669 98.3507 36.4127C100.125 38.1853 101.61 40.6284 102.805 43.7417C104.001 46.8551 104.774 50.6832 105.125 55.226C105.377 58.4805 105.324 61.7587 104.965 65.0604C104.674 68.3569 103.916 71.3484 102.692 74.035C101.467 76.7216 99.6973 78.9729 97.3822 80.7889C95.1296 82.5319 92.2066 83.5423 88.613 83.8201C86.0365 84.0193 83.9762 83.8376 82.4321 83.2749C80.8828 82.6443 79.6985 81.8833 78.8792 80.9917L80.79 105.706L66.4276 110.5L60.2393 30.458L74.8847 29.3257ZM83.0471 75.3492C84.81 75.2129 86.2571 74.5213 87.3884 73.2743C88.5145 71.9595 89.3432 70.3266 89.8744 68.3757C90.4735 66.4195 90.8195 64.2783 90.9125 61.952C91.068 59.5527 91.0567 57.2004 90.8784 54.8951C90.5901 51.1659 90.0231 48.2427 89.1773 46.1254C88.3993 44.0029 87.5303 42.4672 86.5702 41.5183C85.6049 40.5016 84.6711 39.8917 83.7686 39.6886C82.934 39.4803 82.2794 39.3945 81.8048 39.4312C80.5843 39.5256 79.4319 40.058 78.3474 41.0286C77.2576 41.9313 76.507 43.2512 76.0957 44.9882L78.2895 73.3639C78.6705 73.8801 79.2548 74.3806 80.0426 74.8653C80.8251 75.2823 81.8266 75.4436 83.0471 75.3492Z" fill="#131019"/>
</svg>
